999
dxflib 3.17.0.0
  0
SECTION
  2
HEADER
  9
$ACADVER
  1
AC1015
  9
$HANDSEED
  5
FFFF
  9
$ANGBASE
 50
0.0
  9
$ATTMODE
 70
0
  9
$AUNITS
 70
0
  9
$AUPREC
 70
2
  9
$CELTSCALE
 40
1.0
  9
$CHAMFERA
 40
0.0
  9
$CHAMFERB
 40
0.0
  9
$CHAMFERC
 40
0.0
  9
$CHAMFERD
 40
0.0
  9
$CMLJUST
 70
0
  9
$CMLSCALE
 40
20.0
  9
$DIMADEC
 70
0
  9
$DIMALTD
 70
3
  9
$DIMALTF
 40
0.03937
  9
$DIMALTRND
 40
0.0
  9
$DIMALTTD
 70
3
  9
$DIMALTTZ
 70
0
  9
$DIMALTU
 70
2
  9
$DIMALTZ
 70
0
  9
$DIMAPOST
  1

  9
$DIMASZ
 40
2.5
  9
$DIMATFIT
 70
3
  9
$DIMAUNIT
 70
0
  9
$DIMAZIN
 70
0
  9
$DIMCEN
 40
2.5
  9
$DIMDEC
 70
2
  9
$DIMDLE
 40
0.0
  9
$DIMDLI
 40
3.75
  9
$DIMDSEP
 70
44
  9
$DIMEXE
 40
1.25
  9
$DIMEXO
 40
0.625
  9
$DIMFRAC
 70
0
  9
$DIMGAP
 40
0.625
  9
$DIMJUST
 70
0
  9
$DIMLFAC
 40
1.0
  9
$DIMLUNIT
 70
2
  9
$DIMLWD
 70
-2
  9
$DIMLWE
 70
-2
  9
$DIMPOST
  1

  9
$DIMRND
 40
0.0
  9
$DIMSCALE
 40
1.0
  9
$DIMTAD
 70
1
  9
$DIMTDEC
 70
2
  9
$DIMTFAC
 40
1.0
  9
$DIMTM
 40
0.0
  9
$DIMTOLJ
 70
0
  9
$DIMTP
 40
0.0
  9
$DIMTSZ
 40
0.0
  9
$DIMTVP
 40
0.0
  9
$DIMTXT
 40
2.5
  9
$DIMTZIN
 70
8
  9
$DIMZIN
 70
8
  9
$DWGCODEPAGE
  3
ANSI_1252
  9
$ELEVATION
 40
0.0
  9
$EXTMAX
 10
6252.6172138500323854
 20
3263.0532362096419092
 30
0.0
  9
$EXTMIN
 10
2029.773869065468034
 20
1620.4165379013929851
 30
0.0
  9
$FILLETRAD
 40
0.0
  9
$INSBASE
 10
0.0
 20
0.0
 30
0.0
  9
$INSUNITS
 70
4
  9
$LIMMAX
 10
420.0
 20
297.0
  9
$LIMMIN
 10
0.0
 20
0.0
  9
$LTSCALE
 40
1.0
  9
$LUNITS
 70
2
  9
$LUPREC
 70
4
  9
$MAXACTVP
 70
2
  9
$MEASUREMENT
 70
1
  9
$PDMODE
 70
34
  9
$PDSIZE
 40
0.0
  9
$PELEVATION
 40
0.0
  9
$PEXTMAX
 10
0.0
 20
0.0
 30
0.0
  9
$PEXTMIN
 10
0.0
 20
0.0
 30
0.0
  9
$PINSBASE
 10
0.0
 20
0.0
 30
0.0
  9
$PLIMMAX
 10
297.0
 20
210.0
  9
$PLIMMIN
 10
0.0
 20
0.0
  9
$PLINEWID
 40
0.0
  9
$PROXYGRAPHICS
 70
1
  9
$PUCSORG
 10
0.0
 20
0.0
 30
0.0
  9
$PUCSXDIR
 10
1.0
 20
0.0
 30
0.0
  9
$PUCSYDIR
 10
0.0
 20
1.0
 30
0.0
  9
$SHADEDGE
 70
3
  9
$SHADEDIF
 70
70
  9
$SKETCHINC
 40
1.0
  9
$SPLINESEGS
 70
8
  9
$SPLINETYPE
 70
6
  9
$SURFTAB1
 70
6
  9
$SURFTAB2
 70
6
  9
$SURFTYPE
 70
6
  9
$SURFU
 70
6
  9
$SURFV
 70
6
  9
$TEXTSIZE
 40
1.0
  9
$THICKNESS
 40
0.0
  9
$TRACEWID
 40
15.6799999999999997
  9
$TREEDEPTH
 70
3020
  9
$UCSORG
 10
0.0
 20
0.0
 30
0.0
  9
$UCSXDIR
 10
1.0
 20
0.0
 30
0.0
  9
$UCSYDIR
 10
0.0
 20
1.0
 30
0.0
  9
$UNITMODE
 70
0
  9
$USERI1
 70
0
  9
$USERI2
 70
0
  9
$USERI3
 70
0
  9
$USERI4
 70
0
  9
$USERI5
 70
0
  9
$USERR1
 40
0.0
  9
$USERR2
 40
0.0
  9
$USERR3
 40
0.0
  9
$USERR4
 40
0.0
  9
$USERR5
 40
0.0
  0
ENDSEC
  0
SECTION
  2
TABLES
  0
TABLE
  2
VPORT
  5
8
100
AcDbSymbolTable
 70
1
  0
VPORT
  5
30
100
AcDbSymbolTableRecord
100
AcDbViewportTableRecord
  2
*Active
 70
0
 10
0.0
 20
0.0
 11
1.0
 21
1.0
 12
286.3055555555554861
 22
148.5
 13
0.0
 23
0.0
 14
10.0
 24
10.0
 15
10.0
 25
10.0
 16
0.0
 26
0.0
 36
1.0
 17
0.0
 27
0.0
 37
0.0
 40
297.0
 41
1.92798353909465
 42
50.0
 43
0.0
 44
0.0
 50
0.0
 51
0.0
 71
0
 72
100
 73
1
 74
3
 75
1
 76
1
 77
0
 78
0
281
0
 65
1
110
0.0
120
0.0
130
0.0
111
1.0
121
0.0
131
0.0
112
0.0
122
1.0
132
0.0
 79
0
146
0.0
  0
ENDTAB
  0
TABLE
  2
LTYPE
  5
5
100
AcDbSymbolTable
 70
56
  0
LTYPE
  5
16
100
AcDbSymbolTableRecord
100
AcDbLinetypeTableRecord
  2
Continuous
 70
0
  3
Solid line
 72
65
 73
0
 40
0.0
  0
LTYPE
  5
31
100
AcDbSymbolTableRecord
100
AcDbLinetypeTableRecord
  2
HIDDEN
 70
0
  3
Hidden __ __ __ __ __ __ __ __ __ __ __ __ __ __
 72
65
 73
2
 40
9.5249999999999986
 49
6.3499999999999996
 74
0
 49
-3.1749999999999998
 74
0
  0
LTYPE
  5
32
100
AcDbSymbolTableRecord
100
AcDbLinetypeTableRecord
  2
FENCELINE1
 70
0
  3
Fenceline circle ----0-----0----0-----0----0-----0--
 72
65
 73
4
 40
36.8299999999999983
 49
6.3499999999999996
 74
0
 49
-2.54
 74
0
 49
-2.54
 74
0
 49
25.3999999999999986
 74
0
  0
LTYPE
  5
33
100
AcDbSymbolTableRecord
100
AcDbLinetypeTableRecord
  2
HIDDENX2
 70
0
  3
Hidden (2x) ____ ____ ____ ____ ____ ____ ____ 
 72
65
 73
2
 40
19.0499999999999972
 49
12.6999999999999993
 74
0
 49
-6.3499999999999996
 74
0
  0
LTYPE
  5
34
100
AcDbSymbolTableRecord
100
AcDbLinetypeTableRecord
  2
DIVIDE
 70
0
  3
Divide ____ . . ____ . . ____ . . ____ . . ____
 72
65
 73
6
 40
31.7500000000000036
 49
12.6999999999999993
 74
0
 49
-6.2999999999999998
 74
0
 49
0.1
 74
0
 49
-6.25
 74
0
 49
0.1
 74
0
 49
-6.2999999999999998
 74
0
  0
LTYPE
  5
35
100
AcDbSymbolTableRecord
100
AcDbLinetypeTableRecord
  2
ACAD_ISO06W100
 70
0
  3
ISO long-dash triple-dot ____ ... ____ ... ____
 72
65
 73
8
 40
36.0000000000000071
 49
24.0
 74
0
 49
-2.9500000000000002
 74
0
 49
0.1
 74
0
 49
-2.9000000000000004
 74
0
 49
0.1
 74
0
 49
-2.9000000000000004
 74
0
 49
0.1
 74
0
 49
-2.9500000000000002
 74
0
  0
LTYPE
  5
36
100
AcDbSymbolTableRecord
100
AcDbLinetypeTableRecord
  2
BORDERX2
 70
0
  3
Border (2x) ____  ____  .  ____  ____  .  ___
 72
65
 73
6
 40
88.8999999999999773
 49
25.3999999999999986
 74
0
 49
-12.6999999999999993
 74
0
 49
25.3999999999999986
 74
0
 49
-12.6499999999999986
 74
0
 49
0.1
 74
0
 49
-12.6499999999999986
 74
0
  0
LTYPE
  5
37
100
AcDbSymbolTableRecord
100
AcDbLinetypeTableRecord
  2
DOT2
 70
0
  3
Dot (.5x) .....................................
 72
65
 73
2
 40
3.1749999999999998
 49
0.1
 74
0
 49
-3.0749999999999997
 74
0
  0
LTYPE
  5
38
100
AcDbSymbolTableRecord
100
AcDbLinetypeTableRecord
  2
DIVIDE2
 70
0
  3
Divide (.5x) __..__..__..__..__..__..__..__.._
 72
65
 73
6
 40
15.8749999999999982
 49
6.3499999999999996
 74
0
 49
-3.125
 74
0
 49
0.1
 74
0
 49
-3.0750000000000002
 74
0
 49
0.1
 74
0
 49
-3.125
 74
0
  0
LTYPE
  5
39
100
AcDbSymbolTableRecord
100
AcDbLinetypeTableRecord
  2
DOTX2
 70
0
  3
Dot (2x) .  .  .  .  .  .  .  .  .  .  .  .  .
 72
65
 73
2
 40
12.6999999999999993
 49
0.1
 74
0
 49
-12.5999999999999996
 74
0
  0
LTYPE
  5
3A
100
AcDbSymbolTableRecord
100
AcDbLinetypeTableRecord
  2
DRAINAGE
 70
0
  3
Drainage ---->---->---->----
 72
65
 73
2
 40
10.1600000000000001
 49
5.0800000000000001
 74
0
 49
5.0800000000000001
 74
0
  0
LTYPE
  5
3B
100
AcDbSymbolTableRecord
100
AcDbLinetypeTableRecord
  2
HOT_WATER_SUPPLY
 70
0
  3
Hot water supply ---- HW ---- HW ---- HW ----
 72
65
 73
3
 40
22.8599999999999994
 49
12.6999999999999993
 74
0
 49
-5.0800000000000001
 74
0
 49
-5.0800000000000001
 74
0
  0
LTYPE
  5
3C
100
AcDbSymbolTableRecord
100
AcDbLinetypeTableRecord
  2
DOT
 70
0
  3
Dot . . . . . . . . . . . . . . . . . . . . . .
 72
65
 73
2
 40
6.3499999999999996
 49
0.1
 74
0
 49
-6.25
 74
0
  0
LTYPE
  5
3D
100
AcDbSymbolTableRecord
100
AcDbLinetypeTableRecord
  2
DASHEDTINY
 70
0
  3
Dashed (.15x) _ _ _ _ _ _ _ _ _ _ _ _ _ _ _ _ _
 72
65
 73
2
 40
2.8574999999999999
 49
1.905
 74
0
 49
-0.9525
 74
0
  0
LTYPE
  5
3E
100
AcDbSymbolTableRecord
100
AcDbLinetypeTableRecord
  2
ACAD_ISO05W100
 70
0
  3
ISO long-dash double-dot ____ .. ____ .. ____ . 
 72
65
 73
6
 40
33.0000000000000071
 49
24.0
 74
0
 49
-2.9500000000000002
 74
0
 49
0.1
 74
0
 49
-2.9000000000000004
 74
0
 49
0.1
 74
0
 49
-2.9500000000000002
 74
0
  0
LTYPE
  5
3F
100
AcDbSymbolTableRecord
100
AcDbLinetypeTableRecord
  2
CENTERTINY
 70
0
  3
Center (.15x) ___ _ ___ _ ___ _ ___ _ ___ _ ___
 72
65
 73
4
 40
7.6199999999999992
 49
4.7625000000000002
 74
0
 49
-0.9525
 74
0
 49
0.9525
 74
0
 49
-0.9525
 74
0
  0
LTYPE
  5
40
100
AcDbSymbolTableRecord
100
AcDbLinetypeTableRecord
  2
ACAD_ISO07W100
 70
0
  3
ISO dot . . . . . . . . . . . . . . . . . . . . 
 72
65
 73
2
 40
3.0
 49
0.1
 74
0
 49
-2.8999999999999999
 74
0
  0
LTYPE
  5
41
100
AcDbSymbolTableRecord
100
AcDbLinetypeTableRecord
  2
ACAD_ISO10W100
 70
0
  3
ISO dash dot __ . __ . __ . __ . __ . __ . __ . 
 72
65
 73
4
 40
18.0
 49
12.0
 74
0
 49
-2.9500000000000002
 74
0
 49
0.1
 74
0
 49
-2.9500000000000002
 74
0
  0
LTYPE
  5
42
100
AcDbSymbolTableRecord
100
AcDbLinetypeTableRecord
  2
DIVIDETINY
 70
0
  3
Divide (.15x) __..__..__..__..__..__..__..__.._
 72
65
 73
6
 40
4.7625000000000002
 49
1.905
 74
0
 49
-0.9025
 74
0
 49
0.1
 74
0
 49
-0.8524999999999999
 74
0
 49
0.1
 74
0
 49
-0.9025
 74
0
  0
LTYPE
  5
43
100
AcDbSymbolTableRecord
100
AcDbLinetypeTableRecord
  2
DASHDOTX2
 70
0
  3
Dash dot (2x) ____  .  ____  .  ____  .  ___
 72
65
 73
4
 40
50.7999999999999972
 49
25.3999999999999986
 74
0
 49
-12.6499999999999986
 74
0
 49
0.1
 74
0
 49
-12.6499999999999986
 74
0
  0
LTYPE
  5
44
100
AcDbSymbolTableRecord
100
AcDbLinetypeTableRecord
  2
BORDERTINY
 70
0
  3
Border (.15x) __.__.__.__.__.__.__.__.__.__.__.
 72
65
 73
6
 40
6.6674999999999995
 49
1.905
 74
0
 49
-0.9525
 74
0
 49
1.905
 74
0
 49
-0.9025
 74
0
 49
0.1
 74
0
 49
-0.9025
 74
0
  0
LTYPE
  5
45
100
AcDbSymbolTableRecord
100
AcDbLinetypeTableRecord
  2
DASHDOTTINY
 70
0
  3
Dash dot (.15x) _._._._._._._._._._._._._._._.
 72
65
 73
4
 40
3.8100000000000001
 49
1.905
 74
0
 49
-0.9025
 74
0
 49
0.1
 74
0
 49
-0.9025
 74
0
  0
LTYPE
  5
46
100
AcDbSymbolTableRecord
100
AcDbLinetypeTableRecord
  2
CENTER
 70
0
  3
Center ____ _ ____ _ ____ _ ____ _ ____ _ ____
 72
65
 73
4
 40
50.8000000000000043
 49
31.75
 74
0
 49
-6.3499999999999996
 74
0
 49
6.3499999999999996
 74
0
 49
-6.3499999999999996
 74
0
  0
LTYPE
  5
47
100
AcDbSymbolTableRecord
100
AcDbLinetypeTableRecord
  2
FENCELINE2
 70
0
  3
Fenceline square ----[]-----[]----[]-----[]----[]---
 72
65
 73
4
 40
36.8299999999999983
 49
6.3499999999999996
 74
0
 49
-2.54
 74
0
 49
-2.54
 74
0
 49
25.3999999999999986
 74
0
  0
LTYPE
  5
48
100
AcDbSymbolTableRecord
100
AcDbLinetypeTableRecord
  2
DASHEDX2
 70
0
  3
Dashed (2x) ____  ____  ____  ____  ____  ___
 72
65
 73
2
 40
38.0999999999999943
 49
25.3999999999999986
 74
0
 49
-12.6999999999999993
 74
0
  0
LTYPE
  5
49
100
AcDbSymbolTableRecord
100
AcDbLinetypeTableRecord
  2
ACAD_ISO03W100
 70
0
  3
ISO dash space __    __    __    __    __    __
 72
65
 73
2
 40
30.0
 49
12.0
 74
0
 49
-18.0
 74
0
  0
LTYPE
  5
4A
100
AcDbSymbolTableRecord
100
AcDbLinetypeTableRecord
  2
BORDER2
 70
0
  3
Border (.5x) __.__.__.__.__.__.__.__.__.__.__.
 72
65
 73
6
 40
22.2250000000000014
 49
6.3499999999999996
 74
0
 49
-3.1749999999999998
 74
0
 49
6.3499999999999996
 74
0
 49
-3.125
 74
0
 49
0.1
 74
0
 49
-3.125
 74
0
  0
LTYPE
  5
4B
100
AcDbSymbolTableRecord
100
AcDbLinetypeTableRecord
  2
DRAINAGE2
 70
0
  3
Drainage reversed----<----<----<----
 72
65
 73
2
 40
10.1600000000000001
 49
5.0800000000000001
 74
0
 49
5.0800000000000001
 74
0
  0
LTYPE
  5
4C
100
AcDbSymbolTableRecord
100
AcDbLinetypeTableRecord
  2
BATTING
 70
0
  3
Batting SSSSSSSSSSSSSSSSSSSSSSSSSSSSSSSSSSSSSSSSSSSSSSS
 72
65
 73
4
 40
10.1625399999999999
 49
0.00254
 74
0
 49
-2.54
 74
0
 49
-5.0800000000000001
 74
0
 49
-2.54
 74
0
  0
LTYPE
  5
4D
100
AcDbSymbolTableRecord
100
AcDbLinetypeTableRecord
  2
ACAD_ISO08W100
 70
0
  3
ISO long-dash short-dash ____ __ ____ __ ____ _
 72
65
 73
4
 40
36.0
 49
24.0
 74
0
 49
-3.0
 74
0
 49
6.0
 74
0
 49
-3.0
 74
0
  0
LTYPE
  5
4E
100
AcDbSymbolTableRecord
100
AcDbLinetypeTableRecord
  2
DASHED
 70
0
  3
Dashed _ _ _ _ _ _ _ _ _ _ _ _ _ _ _ _ _
 72
65
 73
2
 40
19.0499999999999972
 49
12.6999999999999993
 74
0
 49
-6.3499999999999996
 74
0
  0
LTYPE
  5
4F
100
AcDbSymbolTableRecord
100
AcDbLinetypeTableRecord
  2
ACAD_ISO11W100
 70
0
  3
ISO double-dash dot __ __ . __ __ . __ __ . __ _
 72
65
 73
6
 40
33.0
 49
12.0
 74
0
 49
-3.0
 74
0
 49
12.0
 74
0
 49
-2.9500000000000002
 74
0
 49
0.1
 74
0
 49
-2.9500000000000002
 74
0
  0
LTYPE
  5
50
100
AcDbSymbolTableRecord
100
AcDbLinetypeTableRecord
  2
ACAD_ISO14W100
 70
0
  3
ISO dash triple-dot __ . . . __ . . . __ . . . _
 72
65
 73
8
 40
24.0000000000000036
 49
12.0
 74
0
 49
-2.9500000000000002
 74
0
 49
0.1
 74
0
 49
-2.9000000000000004
 74
0
 49
0.1
 74
0
 49
-2.9000000000000004
 74
0
 49
0.1
 74
0
 49
-2.9500000000000002
 74
0
  0
LTYPE
  5
51
100
AcDbSymbolTableRecord
100
AcDbLinetypeTableRecord
  2
GAS_LINE
 70
0
  3
Gas line ----GAS----GAS----GAS----GAS----GAS----GAS--
 72
65
 73
3
 40
24.1300000000000026
 49
12.6999999999999993
 74
0
 49
-5.0800000000000001
 74
0
 49
-6.3499999999999996
 74
0
  0
LTYPE
  5
52
100
AcDbSymbolTableRecord
100
AcDbLinetypeTableRecord
  2
DASHDOT2
 70
0
  3
Dash dot (.5x) _._._._._._._._._._._._._._._.
 72
65
 73
4
 40
12.6999999999999993
 49
6.3499999999999996
 74
0
 49
-3.125
 74
0
 49
0.1
 74
0
 49
-3.125
 74
0
  0
LTYPE
  5
53
100
AcDbSymbolTableRecord
100
AcDbLinetypeTableRecord
  2
ACAD_ISO04W100
 70
0
  3
ISO long-dash dot ____ . ____ . ____ . ____ . _
 72
65
 73
4
 40
30.0
 49
24.0
 74
0
 49
-2.9500000000000002
 74
0
 49
0.1
 74
0
 49
-2.9500000000000002
 74
0
  0
LTYPE
  5
54
100
AcDbSymbolTableRecord
100
AcDbLinetypeTableRecord
  2
PHANTOM2
 70
0
  3
Phantom (.5x) ___ _ _ ___ _ _ ___ _ _ ___ _ _
 72
65
 73
6
 40
31.7500000000000036
 49
15.875
 74
0
 49
-3.1749999999999998
 74
0
 49
3.1749999999999998
 74
0
 49
-3.1749999999999998
 74
0
 49
3.1749999999999998
 74
0
 49
-3.1749999999999998
 74
0
  0
LTYPE
  5
55
100
AcDbSymbolTableRecord
100
AcDbLinetypeTableRecord
  2
CENTERX2
 70
0
  3
Center (2x) ________  __  ________  __  _____
 72
65
 73
4
 40
101.6000000000000085
 49
63.5
 74
0
 49
-12.6999999999999993
 74
0
 49
12.6999999999999993
 74
0
 49
-12.6999999999999993
 74
0
  0
LTYPE
  5
56
100
AcDbSymbolTableRecord
100
AcDbLinetypeTableRecord
  2
ZIGZAG
 70
0
  3
Zig zag /\/\/\/\/\/\/\/\/\/\/\/\/\/\/\/\/\/\/\/\/\/\/\/
 72
65
 73
4
 40
20.32254
 49
0.00254
 74
0
 49
-5.0800000000000001
 74
0
 49
-10.1600000000000001
 74
0
 49
-5.0800000000000001
 74
0
  0
LTYPE
  5
57
100
AcDbSymbolTableRecord
100
AcDbLinetypeTableRecord
  2
TRACKS
 70
0
  3
Tracks -|-|-|-|-|-|-|-|-|-|-|-|-|-|-|-|-|-|-|-|-|-|-|-|-
 72
65
 73
2
 40
7.6200000000000001
 49
3.8100000000000001
 74
0
 49
3.8100000000000001
 74
0
  0
LTYPE
  5
58
100
AcDbSymbolTableRecord
100
AcDbLinetypeTableRecord
  2
HIDDEN2
 70
0
  3
Hidden (.5x) _ _ _ _ _ _ _ _ _ _ _ _ _ _ _ _ _ 
 72
65
 73
2
 40
4.7624999999999993
 49
3.1749999999999998
 74
0
 49
-1.5874999999999999
 74
0
  0
LTYPE
  5
59
100
AcDbSymbolTableRecord
100
AcDbLinetypeTableRecord
  2
ACAD_ISO02W100
 70
0
  3
ISO dash __ __ __ __ __ __ __ __ __ __ __ __ __
 72
65
 73
2
 40
15.0
 49
12.0
 74
0
 49
-3.0
 74
0
  0
LTYPE
  5
5A
100
AcDbSymbolTableRecord
100
AcDbLinetypeTableRecord
  2
DIVIDEX2
 70
0
  3
Divide (2x) ________  .  .  ________  .  .  _
 72
65
 73
6
 40
63.5
 49
25.3999999999999986
 74
0
 49
-12.6499999999999986
 74
0
 49
0.1
 74
0
 49
-12.5999999999999979
 74
0
 49
0.1
 74
0
 49
-12.6499999999999986
 74
0
  0
LTYPE
  5
14
100
AcDbSymbolTableRecord
100
AcDbLinetypeTableRecord
  2
ByBlock
 70
0
  3

 72
65
 73
0
 40
0.0
  0
LTYPE
  5
5B
100
AcDbSymbolTableRecord
100
AcDbLinetypeTableRecord
  2
DASHED2
 70
0
  3
Dashed (.5x) _ _ _ _ _ _ _ _ _ _ _ _ _ _ _ _ _
 72
65
 73
2
 40
9.5249999999999986
 49
6.3499999999999996
 74
0
 49
-3.1749999999999998
 74
0
  0
LTYPE
  5
5C
100
AcDbSymbolTableRecord
100
AcDbLinetypeTableRecord
  2
ACAD_ISO15W100
 70
0
  3
ISO double-dash triple-dot __ __ . . . __ __ . .
 72
65
 73
10
 40
39.0000000000000071
 49
12.0
 74
0
 49
-3.0
 74
0
 49
12.0
 74
0
 49
-2.9500000000000002
 74
0
 49
0.1
 74
0
 49
-2.9000000000000004
 74
0
 49
0.1
 74
0
 49
-2.9000000000000004
 74
0
 49
0.1
 74
0
 49
-2.9500000000000002
 74
0
  0
LTYPE
  5
5D
100
AcDbSymbolTableRecord
100
AcDbLinetypeTableRecord
  2
DASHDOT
 70
0
  3
Dash dot __ . __ . __ . __ . __ . __ . __ . __
 72
65
 73
4
 40
25.4000000000000021
 49
12.6999999999999993
 74
0
 49
-6.2999999999999998
 74
0
 49
0.1
 74
0
 49
-6.2999999999999998
 74
0
  0
LTYPE
  5
15
100
AcDbSymbolTableRecord
100
AcDbLinetypeTableRecord
  2
ByLayer
 70
0
  3

 72
65
 73
0
 40
0.0
  0
LTYPE
  5
5E
100
AcDbSymbolTableRecord
100
AcDbLinetypeTableRecord
  2
PHANTOMX2
 70
0
  3
Phantom (2x) ____________    ____    ____   _
 72
65
 73
6
 40
127.0000000000000142
 49
63.5
 74
0
 49
-12.6999999999999993
 74
0
 49
12.6999999999999993
 74
0
 49
-12.6999999999999993
 74
0
 49
12.6999999999999993
 74
0
 49
-12.6999999999999993
 74
0
  0
LTYPE
  5
5F
100
AcDbSymbolTableRecord
100
AcDbLinetypeTableRecord
  2
BORDER
 70
0
  3
Border __ __ . __ __ . __ __ . __ __ . __ __ .
 72
65
 73
6
 40
44.4499999999999957
 49
12.6999999999999993
 74
0
 49
-6.3499999999999996
 74
0
 49
12.6999999999999993
 74
0
 49
-6.2999999999999998
 74
0
 49
0.1
 74
0
 49
-6.2999999999999998
 74
0
  0
LTYPE
  5
60
100
AcDbSymbolTableRecord
100
AcDbLinetypeTableRecord
  2
ACAD_ISO12W100
 70
0
  3
ISO dash double-dot __ . . __ . . __ . . __ . . 
 72
65
 73
6
 40
21.0
 49
12.0
 74
0
 49
-2.9500000000000002
 74
0
 49
0.1
 74
0
 49
-2.9000000000000004
 74
0
 49
0.1
 74
0
 49
-2.9500000000000002
 74
0
  0
LTYPE
  5
61
100
AcDbSymbolTableRecord
100
AcDbLinetypeTableRecord
  2
DOTTINY
 70
0
  3
Dot (.15x) .....................................
 72
65
 73
2
 40
0.9525
 49
0.1
 74
0
 49
-0.8525
 74
0
  0
LTYPE
  5
62
100
AcDbSymbolTableRecord
100
AcDbLinetypeTableRecord
  2
ACAD_ISO13W100
 70
0
  3
ISO double-dash double-dot __ __ . . __ __ . . _
 72
65
 73
8
 40
36.0000000000000071
 49
12.0
 74
0
 49
-3.0
 74
0
 49
12.0
 74
0
 49
-2.9500000000000002
 74
0
 49
0.1
 74
0
 49
-2.9000000000000004
 74
0
 49
0.1
 74
0
 49
-2.9500000000000002
 74
0
  0
LTYPE
  5
63
100
AcDbSymbolTableRecord
100
AcDbLinetypeTableRecord
  2
PHANTOM
 70
0
  3
Phantom ______  __  __  ______  __  __  ______ 
 72
65
 73
6
 40
63.5000000000000071
 49
31.75
 74
0
 49
-6.3499999999999996
 74
0
 49
6.3499999999999996
 74
0
 49
-6.3499999999999996
 74
0
 49
6.3499999999999996
 74
0
 49
-6.3499999999999996
 74
0
  0
LTYPE
  5
64
100
AcDbSymbolTableRecord
100
AcDbLinetypeTableRecord
  2
CENTER2
 70
0
  3
Center (.5x) ___ _ ___ _ ___ _ ___ _ ___ _ ___
 72
65
 73
4
 40
28.5750000000000028
 49
19.0500000000000007
 74
0
 49
-3.1749999999999998
 74
0
 49
3.1749999999999998
 74
0
 49
-3.1749999999999998
 74
0
  0
LTYPE
  5
65
100
AcDbSymbolTableRecord
100
AcDbLinetypeTableRecord
  2
ACAD_ISO09W100
 70
0
  3
ISO long-dash double-short-dash ____ __ __ ____
 72
65
 73
6
 40
45.0
 49
24.0
 74
0
 49
-3.0
 74
0
 49
6.0
 74
0
 49
-3.0
 74
0
 49
6.0
 74
0
 49
-3.0
 74
0
  0
ENDTAB
  0
TABLE
  2
LAYER
  5
2
100
AcDbSymbolTable
 70
7
  0
LAYER
  5
66
100
AcDbSymbolTableRecord
100
AcDbLayerTableRecord
  2
Temp
 70
0
 62
7
420
0
  6
Continuous
370
0
390
F
  0
LAYER
  5
67
100
AcDbSymbolTableRecord
100
AcDbLayerTableRecord
  2
Unvisible
 70
0
 62
7
420
0
  6
ACAD_ISO02W100
370
5
390
F
  0
LAYER
  5
68
100
AcDbSymbolTableRecord
100
AcDbLayerTableRecord
  2
Defpoints
 70
0
 62
7
420
16777215
  6
Continuous
290
0
370
-3
390
F
  0
LAYER
  5
69
100
AcDbSymbolTableRecord
100
AcDbLayerTableRecord
  2
Axis
 70
0
 62
7
420
16777215
  6
CENTER
370
-3
390
F
  0
LAYER
  5
6A
100
AcDbSymbolTableRecord
100
AcDbLayerTableRecord
  2
Main
 70
0
 62
7
420
0
  6
Continuous
370
25
390
F
  0
LAYER
  5
10
100
AcDbSymbolTableRecord
100
AcDbLayerTableRecord
  2
0
 70
0
 62
7
420
16777215
  6
Continuous
370
-3
390
F
  0
LAYER
  5
6B
100
AcDbSymbolTableRecord
100
AcDbLayerTableRecord
  2
Dims
 70
0
 62
7
420
0
  6
Continuous
370
9
390
F
  0
ENDTAB
  0
TABLE
  2
STYLE
  5
3
100
AcDbSymbolTable
 70
10
  0
STYLE
  5
6C
100
AcDbSymbolTableRecord
100
AcDbTextStyleTableRecord
  2
Standard
 70
0
 40
0.0
 41
1.0
 50
0.0
 71
0
 42
2.5
  3

  4

1001
ACAD
1000
txt
1071
0
  0
STYLE
  5
6D
100
AcDbSymbolTableRecord
100
AcDbTextStyleTableRecord
  2
textstyle0
 70
0
 40
0.0
 41
1.0
 50
0.0
 71
0
 42
2.5
  3

  4

1001
ACAD
1000
Cyrillic_II
1071
0
  0
STYLE
  5
6E
100
AcDbSymbolTableRecord
100
AcDbTextStyleTableRecord
  2
textstyle1
 70
0
 40
0.0
 41
1.0
 50
0.0
 71
0
 42
2.5
  3

  4

1001
ACAD
1000
Cyrillic_II
1071
0
  0
STYLE
  5
6F
100
AcDbSymbolTableRecord
100
AcDbTextStyleTableRecord
  2
textstyle2
 70
0
 40
0.0
 41
1.0
 50
0.0
 71
0
 42
2.5
  3

  4

1001
ACAD
1000
Cyrillic_II
1071
0
  0
STYLE
  5
70
100
AcDbSymbolTableRecord
100
AcDbTextStyleTableRecord
  2
textstyle3
 70
0
 40
0.0
 41
1.0
 50
0.0
 71
0
 42
2.5
  3

  4

1001
ACAD
1000
Standard
1071
0
  0
STYLE
  5
71
100
AcDbSymbolTableRecord
100
AcDbTextStyleTableRecord
  2
textstyle4
 70
0
 40
0.0
 41
1.0
 50
0.0
 71
0
 42
2.5
  3

  4

1001
ACAD
1000
Standard
1071
0
  0
STYLE
  5
72
100
AcDbSymbolTableRecord
100
AcDbTextStyleTableRecord
  2
textstyle5
 70
0
 40
0.0
 41
1.0
 50
0.0
 71
0
 42
2.5
  3

  4

1001
ACAD
1000
Cyrillic_II
1071
0
  0
STYLE
  5
73
100
AcDbSymbolTableRecord
100
AcDbTextStyleTableRecord
  2
textstyle6
 70
0
 40
0.0
 41
1.0
 50
0.0
 71
0
 42
2.5
  3

  4

1001
ACAD
1000
Standard
1071
0
  0
STYLE
  5
74
100
AcDbSymbolTableRecord
100
AcDbTextStyleTableRecord
  2
textstyle7
 70
0
 40
0.0
 41
1.0
 50
0.0
 71
0
 42
2.5
  3

  4

1001
ACAD
1000
Standard
1071
0
  0
STYLE
  5
75
100
AcDbSymbolTableRecord
100
AcDbTextStyleTableRecord
  2
textstyle8
 70
0
 40
0.0
 41
1.0
 50
0.0
 71
0
 42
2.5
  3

  4

1001
ACAD
1000
Standard
1071
0
  0
ENDTAB
  0
TABLE
  2
VIEW
  5
6
100
AcDbSymbolTable
 70
0
  0
ENDTAB
  0
TABLE
  2
UCS
  5
7
100
AcDbSymbolTable
 70
0
  0
ENDTAB
  0
TABLE
  2
APPID
  5
9
100
AcDbSymbolTable
 70
1
  0
APPID
  5
12
100
AcDbSymbolTableRecord
100
AcDbRegAppTableRecord
  2
ACAD
 70
0
  0
APPID
  5
76
100
AcDbSymbolTableRecord
100
AcDbRegAppTableRecord
  2
QCAD
 70
0
  0
ENDTAB
  0
TABLE
  2
DIMSTYLE
  5
A
100
AcDbSymbolTable
 70
1
100
AcDbDimStyleTable
 71
0
  0
DIMSTYLE
105
27
100
AcDbSymbolTableRecord
100
AcDbDimStyleTableRecord
  2
Standard
 41
2.5
 42
0.625
 43
3.75
 44
1.25
 70
0
 73
0
 74
0
 77
1
 78
8
140
2.5
141
2.5
143
0.03937007874016
147
0.625
171
3
172
1
271
2
272
2
274
3
278
44
283
0
284
8
340
6C
  0
ENDTAB
  0
TABLE
  2
BLOCK_RECORD
  5
1
100
AcDbSymbolTable
 70
1
  0
BLOCK_RECORD
  5
1F
100
AcDbSymbolTableRecord
100
AcDbBlockTableRecord
  2
*Model_Space
340
22
  0
BLOCK_RECORD
  5
1B
100
AcDbSymbolTableRecord
100
AcDbBlockTableRecord
  2
*Paper_Space
340
1E
  0
BLOCK_RECORD
  5
23
100
AcDbSymbolTableRecord
100
AcDbBlockTableRecord
  2
*Paper_Space0
340
26
  0
BLOCK_RECORD
  5
77
100
AcDbSymbolTableRecord
100
AcDbBlockTableRecord
  2
BatteryMountInner
340
0
  0
BLOCK_RECORD
  5
78
100
AcDbSymbolTableRecord
100
AcDbBlockTableRecord
  2
LeverStop
340
0
  0
BLOCK_RECORD
  5
79
100
AcDbSymbolTableRecord
100
AcDbBlockTableRecord
  2
\U+0420\U+0435\U+0431\U+0440\U+043e\U+041c\U+0430\U+044f\U+0442\U+043d\U+0438\U+043a\U+0430
340
0
  0
BLOCK_RECORD
  5
7A
100
AcDbSymbolTableRecord
100
AcDbBlockTableRecord
  2
\U+041a\U+0440\U+0435\U+043f\U+043b\U+0435\U+043d\U+0438\U+0435\U+0422\U+043e\U+0440\U+043c\U+043e\U+0437\U+0430
340
0
  0
BLOCK_RECORD
  5
7B
100
AcDbSymbolTableRecord
100
AcDbBlockTableRecord
  2
60100 (6000Z)
340
0
  0
BLOCK_RECORD
  5
7C
100
AcDbSymbolTableRecord
100
AcDbBlockTableRecord
  2
\U+0410\U+043c\U+043e\U+0440\U+0442
340
0
  0
BLOCK_RECORD
  5
7D
100
AcDbSymbolTableRecord
100
AcDbBlockTableRecord
  2
\U+041e\U+043f\U+0440\U+0430\U+0432\U+043a\U+0430\U+0412\U+0442\U+0443\U+043b\U+043a\U+0438
340
0
  0
BLOCK_RECORD
  5
7E
100
AcDbSymbolTableRecord
100
AcDbBlockTableRecord
  2
\U+0423\U+043f\U+043e\U+0440
340
0
  0
BLOCK_RECORD
  5
7F
100
AcDbSymbolTableRecord
100
AcDbBlockTableRecord
  2
\U+041c\U+0430\U+044f\U+0442\U+043d\U+0438\U+043a
340
0
  0
BLOCK_RECORD
  5
80
100
AcDbSymbolTableRecord
100
AcDbBlockTableRecord
  2
\U+0423\U+043f\U+043e\U+0440\U+041f\U+043b\U+0430\U+0441\U+0442\U+0438\U+043d\U+0430
340
0
  0
BLOCK_RECORD
  5
81
100
AcDbSymbolTableRecord
100
AcDbBlockTableRecord
  2
\U+0423\U+043f\U+043e\U+0440\U+0410\U+043c\U+043e\U+0440\U+0442\U+04302
340
0
  0
BLOCK_RECORD
  5
82
100
AcDbSymbolTableRecord
100
AcDbBlockTableRecord
  2
DiskBrakeMount
340
0
  0
BLOCK_RECORD
  5
83
100
AcDbSymbolTableRecord
100
AcDbBlockTableRecord
  2
Lever
340
0
  0
BLOCK_RECORD
  5
84
100
AcDbSymbolTableRecord
100
AcDbBlockTableRecord
  2
AngelPattern
340
0
  0
BLOCK_RECORD
  5
85
100
AcDbSymbolTableRecord
100
AcDbBlockTableRecord
  2
\U+0423\U+043f\U+043e\U+0440\U+0413\U+0443\U+0441\U+044f
340
0
  0
BLOCK_RECORD
  5
86
100
AcDbSymbolTableRecord
100
AcDbBlockTableRecord
  2
\U+0412\U+0442\U+0443\U+043b\U+043a\U+0430\U+041c\U+0430\U+044f\U+0442\U+043d\U+0438\U+043a\U+0430
340
0
  0
BLOCK_RECORD
  5
87
100
AcDbSymbolTableRecord
100
AcDbBlockTableRecord
  2
BalanceAxis
340
0
  0
BLOCK_RECORD
  5
88
100
AcDbSymbolTableRecord
100
AcDbBlockTableRecord
  2
\U+0423\U+043f\U+043e\U+0440\U+0410\U+043c\U+043e\U+0440\U+0442\U+0430
340
0
  0
BLOCK_RECORD
  5
89
100
AcDbSymbolTableRecord
100
AcDbBlockTableRecord
  2
BatteryMount
340
0
  0
BLOCK_RECORD
  5
8A
100
AcDbSymbolTableRecord
100
AcDbBlockTableRecord
  2
Balance
340
0
  0
BLOCK_RECORD
  5
8B
100
AcDbSymbolTableRecord
100
AcDbBlockTableRecord
  2
Hole
340
0
  0
BLOCK_RECORD
  5
8C
100
AcDbSymbolTableRecord
100
AcDbBlockTableRecord
  2
\U+0420\U+0430\U+043c\U+0430
340
0
  0
ENDTAB
  0
ENDSEC
  0
SECTION
  2
BLOCKS
  0
BLOCK
  5
20
100
AcDbEntity
  8
0
100
AcDbBlockBegin
  2
*Model_Space
 70
0
 10
0.0
 20
0.0
 30
0.0
  3
*Model_Space
  1

  0
ENDBLK
  5
21
100
AcDbEntity
  8
0
100
AcDbBlockEnd
  0
BLOCK
  5
1C
100
AcDbEntity
 67
1
  8
0
100
AcDbBlockBegin
  2
*Paper_Space
 70
0
 10
0.0
 20
0.0
 30
0.0
  3
*Paper_Space
  1

  0
ENDBLK
  5
1D
100
AcDbEntity
 67
1
  8
0
100
AcDbBlockEnd
  0
BLOCK
  5
24
100
AcDbEntity
  8
0
100
AcDbBlockBegin
  2
*Paper_Space0
 70
0
 10
0.0
 20
0.0
 30
0.0
  3
*Paper_Space0
  1

  0
ENDBLK
  5
25
100
AcDbEntity
  8
0
100
AcDbBlockEnd
  0
BLOCK
  5
8D
100
AcDbEntity
  8
0
100
AcDbBlockBegin
  2
BatteryMountInner
 70
0
 10
0.0
 20
0.0
 30
0.0
  3
BatteryMountInner
  1

  0
LINE
  5
8E
100
AcDbEntity
  8
Main
 62
256
370
-1
 48
1.0
  6
ByLayer
100
AcDbLine
 10
2.0
 20
-17.5
 30
0.0
 11
54.0
 21
-17.5
 31
0.0
  0
LINE
  5
8F
100
AcDbEntity
  8
Main
 62
256
370
-1
 48
1.0
  6
ByLayer
100
AcDbLine
 10
56.0
 20
-15.5
 30
0.0
 11
56.0
 21
15.5
 31
0.0
  0
LINE
  5
90
100
AcDbEntity
  8
Main
 62
256
370
-1
 48
1.0
  6
ByLayer
100
AcDbLine
 10
54.0
 20
17.5
 30
0.0
 11
2.0
 21
17.5
 31
0.0
  0
LINE
  5
91
100
AcDbEntity
  8
Main
 62
256
370
-1
 48
1.0
  6
ByLayer
100
AcDbLine
 10
0.0
 20
15.5
 30
0.0
 11
0.0
 21
-15.5
 31
0.0
  0
CIRCLE
  5
92
100
AcDbEntity
  8
Main
 62
256
370
-1
 48
1.0
  6
ByLayer
100
AcDbCircle
 10
5.0
 20
0.0
 30
0.0
 40
3.0
  0
CIRCLE
  5
93
100
AcDbEntity
  8
Main
 62
256
370
-1
 48
1.0
  6
ByLayer
100
AcDbCircle
 10
51.0
 20
0.0
 30
0.0
 40
3.0
  0
CIRCLE
  5
94
100
AcDbEntity
  8
Main
 62
256
370
-1
 48
1.0
  6
ByLayer
100
AcDbCircle
 10
17.0
 20
-13.0
 30
0.0
 40
3.0
  0
CIRCLE
  5
95
100
AcDbEntity
  8
Main
 62
256
370
-1
 48
1.0
  6
ByLayer
100
AcDbCircle
 10
17.0
 20
13.0
 30
0.0
 40
3.0
  0
ARC
  5
96
100
AcDbEntity
  8
Main
 62
256
370
-1
 48
1.0
  6
ByLayer
100
AcDbCircle
 10
2.0
 20
15.5
 30
0.0
 40
2.0
100
AcDbArc
 50
90.0
 51
180.0
  0
ARC
  5
97
100
AcDbEntity
  8
Main
 62
256
370
-1
 48
1.0
  6
ByLayer
100
AcDbCircle
 10
54.0
 20
15.5
 30
0.0
 40
2.0
100
AcDbArc
 50
0.0
 51
90.0
  0
ARC
  5
98
100
AcDbEntity
  8
Main
 62
256
370
-1
 48
1.0
  6
ByLayer
100
AcDbCircle
 10
54.0
 20
-15.5
 30
0.0
 40
2.0
100
AcDbArc
 50
270.0
 51
0.0
  0
ARC
  5
99
100
AcDbEntity
  8
Main
 62
256
370
-1
 48
1.0
  6
ByLayer
100
AcDbCircle
 10
2.0
 20
-15.5
 30
0.0
 40
2.0
100
AcDbArc
 50
180.0
 51
270.0
  0
ENDBLK
  5
9A
100
AcDbEntity
  8
0
100
AcDbBlockEnd
  0
BLOCK
  5
9B
100
AcDbEntity
  8
0
100
AcDbBlockBegin
  2
LeverStop
 70
0
 10
0.0
 20
0.0
 30
0.0
  3
LeverStop
  1

  0
LINE
  5
9C
100
AcDbEntity
  8
0
 62
256
370
-1
 48
1.0
  6
ByLayer
100
AcDbLine
 10
13.5
 20
25.0
 30
0.0
 11
-13.5
 21
25.0
 31
0.0
  0
LINE
  5
9D
100
AcDbEntity
  8
0
 62
256
370
-1
 48
1.0
  6
ByLayer
100
AcDbLine
 10
-15.5488678561232501
 20
0.0000000000004547
 30
0.0
 11
15.5488678561237101
 21
0.0
 31
0.0
  0
LINE
  5
9E
100
AcDbEntity
  8
0
 62
256
370
-1
 48
1.0
  6
ByLayer
100
AcDbLine
 10
-16.4999999999995488
 20
11.0
 30
0.0
 11
-13.5
 21
11.0
 31
0.0
  0
LINE
  5
9F
100
AcDbEntity
  8
0
 62
256
370
-1
 48
1.0
  6
ByLayer
100
AcDbLine
 10
13.5000000000004547
 20
11.0
 30
0.0
 11
16.5000000000000036
 21
11.0
 31
0.0
  0
LINE
  5
A0
100
AcDbEntity
  8
0
 62
256
370
-1
 48
1.0
  6
ByLayer
100
AcDbLine
 10
-21.0
 20
25.0
 30
0.0
 11
-65.9999999999997726
 21
6.7804336483659426
 31
0.0
  0
LINE
  5
A1
100
AcDbEntity
  8
0
 62
256
370
-1
 48
1.0
  6
ByLayer
100
AcDbLine
 10
21.0
 20
25.0
 30
0.0
 11
66.0000000000002274
 21
6.7804336483659426
 31
0.0
  0
LINE
  5
A2
100
AcDbEntity
  8
0
 62
256
370
-1
 48
1.0
  6
ByLayer
100
AcDbLine
 10
-15.5488678561232501
 20
0.0000000000004547
 30
0.0
 11
-65.9999999999997726
 21
-15.0
 31
0.0
  0
LINE
  5
A3
100
AcDbEntity
  8
0
 62
256
370
-1
 48
1.0
  6
ByLayer
100
AcDbLine
 10
15.5488678561237101
 20
0.0
 30
0.0
 11
66.0000000000002274
 21
-15.0
 31
0.0
  0
LINE
  5
A4
100
AcDbEntity
  8
0
 62
256
370
-1
 48
1.0
  6
ByLayer
100
AcDbLine
 10
-16.5000000000004512
 20
25.0
 30
0.0
 11
-21.0
 21
25.0
 31
0.0
  0
LINE
  5
A5
100
AcDbEntity
  8
0
 62
256
370
-1
 48
1.0
  6
ByLayer
100
AcDbLine
 10
21.0
 20
25.0
 30
0.0
 11
16.5
 21
25.0
 31
0.0
  0
LINE
  5
A6
100
AcDbEntity
  8
0
 62
256
370
-1
 48
1.0
  6
ByLayer
100
AcDbLine
 10
13.5
 20
25.0
 30
0.0
 11
13.5
 21
11.0
 31
0.0
  0
LINE
  5
A7
100
AcDbEntity
  8
0
 62
256
370
-1
 48
1.0
  6
ByLayer
100
AcDbLine
 10
16.5000000000000036
 20
25.0
 30
0.0
 11
16.5000000000000036
 21
11.0
 31
0.0
  0
LINE
  5
A8
100
AcDbEntity
  8
0
 62
256
370
-1
 48
1.0
  6
ByLayer
100
AcDbLine
 10
-13.5
 20
25.0
 30
0.0
 11
-13.5
 21
11.0
 31
0.0
  0
LINE
  5
A9
100
AcDbEntity
  8
0
 62
256
370
-1
 48
1.0
  6
ByLayer
100
AcDbLine
 10
-16.5000000000000036
 20
25.0
 30
0.0
 11
-16.5000000000000036
 21
11.0
 31
0.0
  0
LINE
  5
AA
100
AcDbEntity
  8
0
 62
256
370
-1
 48
1.0
  6
ByLayer
100
AcDbLine
 10
66.0000000000002274
 20
3.3353252362744574
 30
0.0
 11
66.0000000000002274
 21
6.7804336483659426
 31
0.0
  0
LINE
  5
AB
100
AcDbEntity
  8
0
 62
256
370
-1
 48
1.0
  6
ByLayer
100
AcDbLine
 10
66.0000000000002274
 20
-11.5548915879085126
 30
0.0
 11
70.0000000000002274
 21
-11.5548915879085143
 31
0.0
  0
LINE
  5
AC
100
AcDbEntity
  8
0
 62
256
370
-1
 48
1.0
  6
ByLayer
100
AcDbLine
 10
66.0000000000002274
 20
3.3353252362744574
 30
0.0
 11
70.0000000000002274
 21
3.3353252362744574
 31
0.0
  0
LINE
  5
AD
100
AcDbEntity
  8
0
 62
256
370
-1
 48
1.0
  6
ByLayer
100
AcDbLine
 10
-65.9999999999996021
 20
-11.5548915879096441
 30
0.0
 11
-69.9999999999995879
 21
-11.5548915879097294
 31
0.0
  0
LINE
  5
AE
100
AcDbEntity
  8
0
 62
256
370
-1
 48
1.0
  6
ByLayer
100
AcDbLine
 10
-65.9999999999998437
 20
3.335325236273313
 30
0.0
 11
-69.9999999999998437
 21
3.3353252362731958
 31
0.0
  0
LINE
  5
AF
100
AcDbEntity
  8
0
 62
256
370
-1
 48
1.0
  6
ByLayer
100
AcDbLine
 10
-65.9999999999996589
 20
-7.5548915879096583
 30
0.0
 11
-69.9999999999996447
 21
-7.5548915879097578
 31
0.0
  0
LINE
  5
B0
100
AcDbEntity
  8
0
 62
256
370
-1
 48
1.0
  6
ByLayer
100
AcDbLine
 10
66.0000000000002274
 20
-7.5548915879085126
 30
0.0
 11
70.0000000000002274
 21
-7.5548915879085143
 31
0.0
  0
LINE
  5
B1
100
AcDbEntity
  8
0
 62
256
370
-1
 48
1.0
  6
ByLayer
100
AcDbLine
 10
66.0000000000002274
 20
-0.664674763725543
 30
0.0
 11
70.0000000000002274
 21
-0.664674763725543
 31
0.0
  0
LINE
  5
B2
100
AcDbEntity
  8
0
 62
256
370
-1
 48
1.0
  6
ByLayer
100
AcDbLine
 10
-65.9999999999997868
 20
-0.6646747637266834
 30
0.0
 11
-69.9999999999997726
 21
-0.6646747637267509
 31
0.0
  0
LINE
  5
B3
100
AcDbEntity
  8
0
 62
256
370
-1
 48
1.0
  6
ByLayer
100
AcDbLine
 10
-69.9999999999996447
 20
-7.5548915879097578
 30
0.0
 11
-69.9999999999995879
 21
-11.5548915879097294
 31
0.0
  0
LINE
  5
B4
100
AcDbEntity
  8
0
 62
256
370
-1
 48
1.0
  6
ByLayer
100
AcDbLine
 10
70.0000000000002274
 20
-7.5548915879085143
 30
0.0
 11
70.0000000000002274
 21
-11.5548915879085143
 31
0.0
  0
LINE
  5
B5
100
AcDbEntity
  8
0
 62
256
370
-1
 48
1.0
  6
ByLayer
100
AcDbLine
 10
70.0000000000002274
 20
-0.664674763725543
 30
0.0
 11
70.0000000000002274
 21
3.3353252362744574
 31
0.0
  0
LINE
  5
B6
100
AcDbEntity
  8
0
 62
256
370
-1
 48
1.0
  6
ByLayer
100
AcDbLine
 10
-69.9999999999997726
 20
-0.6646747637267509
 30
0.0
 11
-69.9999999999998437
 21
3.3353252362731958
 31
0.0
  0
LINE
  5
B7
100
AcDbEntity
  8
0
 62
256
370
-1
 48
1.0
  6
ByLayer
100
AcDbLine
 10
66.0000000000002274
 20
-0.664674763725543
 30
0.0
 11
66.0000000000002274
 21
-7.5548915879085126
 31
0.0
  0
LINE
  5
B8
100
AcDbEntity
  8
0
 62
256
370
-1
 48
1.0
  6
ByLayer
100
AcDbLine
 10
-65.9999999999997868
 20
-0.6646747637266834
 30
0.0
 11
-65.9999999999996589
 21
-7.5548915879096583
 31
0.0
  0
LINE
  5
B9
100
AcDbEntity
  8
0
 62
256
370
-1
 48
1.0
  6
ByLayer
100
AcDbLine
 10
66.0000000000002274
 20
-11.5548915879085126
 30
0.0
 11
66.0000000000002274
 21
-15.0
 31
0.0
  0
LINE
  5
BA
100
AcDbEntity
  8
0
 62
256
370
-1
 48
1.0
  6
ByLayer
100
AcDbLine
 10
-65.9999999999996021
 20
-11.5548915879096441
 30
0.0
 11
-65.9999999999995026
 21
-15.0000000000011795
 31
0.0
  0
LINE
  5
BB
100
AcDbEntity
  8
0
 62
256
370
-1
 48
1.0
  6
ByLayer
100
AcDbLine
 10
-65.9999999999997726
 20
6.7804336483659426
 30
0.0
 11
-65.9999999999998437
 21
3.335325236273313
 31
0.0
  0
ENDBLK
  5
BC
100
AcDbEntity
  8
0
100
AcDbBlockEnd
  0
BLOCK
  5
BD
100
AcDbEntity
  8
0
100
AcDbBlockBegin
  2
\U+0420\U+0435\U+0431\U+0440\U+043e\U+041c\U+0430\U+044f\U+0442\U+043d\U+0438\U+043a\U+0430
 70
0
 10
0.0
 20
0.0
 30
0.0
  3
\U+0420\U+0435\U+0431\U+0440\U+043e\U+041c\U+0430\U+044f\U+0442\U+043d\U+0438\U+043a\U+0430
  1

  0
LINE
  5
BE
100
AcDbEntity
  8
0
 62
256
370
-1
 48
1.0
  6
ByLayer
100
AcDbLine
 10
122.5
 20
-4.0
 30
0.0
 11
113.0858154844522829
 21
-13.4141845155477153
 31
0.0
  0
LINE
  5
BF
100
AcDbEntity
  8
0
 62
256
370
-1
 48
1.0
  6
ByLayer
100
AcDbLine
 10
111.671531797348706
 20
-13.9999709519452615
 30
0.0
 11
-111.7634370478071872
 21
-13.9921367934530068
 31
0.0
  0
LINE
  5
C0
100
AcDbEntity
  8
0
 62
256
370
-1
 48
1.0
  6
ByLayer
100
AcDbLine
 10
-113.0857864376278172
 20
-13.4142135623721792
 30
0.0
 11
-122.5000000000004547
 21
-3.9999999999995453
 31
0.0
  0
LINE
  5
C1
100
AcDbEntity
  8
0
 62
256
370
-1
 48
1.0
  6
ByLayer
100
AcDbLine
 10
89.5
 20
0.0
 30
0.0
 11
95.5
 21
0.0
 31
0.0
  0
LINE
  5
C2
100
AcDbEntity
  8
0
 62
256
370
-1
 48
1.0
  6
ByLayer
100
AcDbLine
 10
-3.0
 20
0.0
 30
0.0
 11
3.0
 21
0.0
 31
0.0
  0
LINE
  5
C3
100
AcDbEntity
  8
0
 62
256
370
-1
 48
1.0
  6
ByLayer
100
AcDbLine
 10
-110.5
 20
-4.0
 30
0.0
 11
-110.5
 21
0.0
 31
0.0
  0
LINE
  5
C4
100
AcDbEntity
  8
0
 62
256
370
-1
 48
1.0
  6
ByLayer
100
AcDbLine
 10
-104.5
 20
-4.0
 30
0.0
 11
-3.0
 21
-4.0
 31
0.0
  0
LINE
  5
C5
100
AcDbEntity
  8
0
 62
256
370
-1
 48
1.0
  6
ByLayer
100
AcDbLine
 10
-104.5
 20
0.0
 30
0.0
 11
-104.5
 21
-4.0
 31
0.0
  0
LINE
  5
C6
100
AcDbEntity
  8
0
 62
256
370
-1
 48
1.0
  6
ByLayer
100
AcDbLine
 10
-122.5
 20
-4.0
 30
0.0
 11
-110.5
 21
-4.0
 31
0.0
  0
LINE
  5
C7
100
AcDbEntity
  8
0
 62
256
370
-1
 48
1.0
  6
ByLayer
100
AcDbLine
 10
111.671531797348706
 20
-13.9999709519452615
 30
0.0
 11
-111.6715728752547534
 21
-13.9999999999990941
 31
0.0
  0
LINE
  5
C8
100
AcDbEntity
  8
0
 62
256
370
-1
 48
1.0
  6
ByLayer
100
AcDbLine
 10
122.5000000000004547
 20
-4.0
 30
0.0
 11
113.0858154844525103
 21
-13.4141845155479427
 31
0.0
  0
LINE
  5
C9
100
AcDbEntity
  8
0
 62
256
370
-1
 48
1.0
  6
ByLayer
100
AcDbLine
 10
-113.0857864376273341
 20
-13.4142135623718133
 30
0.0
 11
-122.5
 21
-4.0
 31
0.0
  0
LINE
  5
CA
100
AcDbEntity
  8
0
 62
256
370
-1
 48
1.0
  6
ByLayer
100
AcDbLine
 10
90.0
 20
0.0
 30
0.0
 11
95.0
 21
0.0
 31
0.0
  0
LINE
  5
CB
100
AcDbEntity
  8
0
 62
256
370
-1
 48
1.0
  6
ByLayer
100
AcDbLine
 10
95.5000000000000142
 20
-4.0
 30
0.0
 11
122.5000000000004547
 21
-4.0
 31
0.0
  0
LINE
  5
CC
100
AcDbEntity
  8
0
 62
256
370
-1
 48
1.0
  6
ByLayer
100
AcDbLine
 10
-2.5
 20
0.0
 30
0.0
 11
2.5
 21
0.0
 31
0.0
  0
LINE
  5
CD
100
AcDbEntity
  8
0
 62
256
370
-1
 48
1.0
  6
ByLayer
100
AcDbLine
 10
3.0
 20
-4.0
 30
0.0
 11
89.5
 21
-4.0
 31
0.0
  0
LINE
  5
CE
100
AcDbEntity
  8
0
 62
256
370
-1
 48
1.0
  6
ByLayer
100
AcDbLine
 10
-110.5
 20
0.0
 30
0.0
 11
-104.5
 21
0.0
 31
0.0
  0
LINE
  5
CF
100
AcDbEntity
  8
0
 62
256
370
-1
 48
1.0
  6
ByLayer
100
AcDbLine
 10
89.5
 20
0.0
 30
0.0
 11
89.5
 21
-4.0
 31
0.0
  0
LINE
  5
D0
100
AcDbEntity
  8
0
 62
256
370
-1
 48
1.0
  6
ByLayer
100
AcDbLine
 10
-3.0
 20
0.0
 30
0.0
 11
-3.0
 21
-4.0
 31
0.0
  0
LINE
  5
D1
100
AcDbEntity
  8
0
 62
256
370
-1
 48
1.0
  6
ByLayer
100
AcDbLine
 10
95.5
 20
0.0
 30
0.0
 11
95.5
 21
-4.0
 31
0.0
  0
LINE
  5
D2
100
AcDbEntity
  8
0
 62
256
370
-1
 48
1.0
  6
ByLayer
100
AcDbLine
 10
3.0
 20
0.0
 30
0.0
 11
3.0
 21
-4.0
 31
0.0
  0
LINE
  5
D3
100
AcDbEntity
  8
0
 62
256
370
-1
 48
1.0
  6
ByLayer
100
AcDbLine
 10
-110.5
 20
0.0
 30
0.0
 11
-110.5
 21
-4.0
 31
0.0
  0
LINE
  5
D4
100
AcDbEntity
  8
0
 62
256
370
-1
 48
1.0
  6
ByLayer
100
AcDbLine
 10
-104.5
 20
0.0
 30
0.0
 11
-104.5
 21
-4.0
 31
0.0
  0
LINE
  5
D5
100
AcDbEntity
  8
0
 62
256
370
-1
 48
1.0
  6
ByLayer
100
AcDbLine
 10
-110.5
 20
-4.0
 30
0.0
 11
-110.5
 21
0.0
 31
0.0
  0
LINE
  5
D6
100
AcDbEntity
  8
0
 62
256
370
-1
 48
1.0
  6
ByLayer
100
AcDbLine
 10
-110.5
 20
0.0
 30
0.0
 11
-104.5
 21
0.0
 31
0.0
  0
LINE
  5
D7
100
AcDbEntity
  8
0
 62
256
370
-1
 48
1.0
  6
ByLayer
100
AcDbLine
 10
-104.5
 20
0.0
 30
0.0
 11
-104.5
 21
-4.0
 31
0.0
  0
ARC
  5
D8
100
AcDbEntity
  8
0
 62
256
370
-1
 48
1.0
  6
ByLayer
100
AcDbCircle
 10
-111.6715728752547392
 20
-11.9999999999990941
 30
0.0
 40
2.0
100
AcDbArc
 50
225.0000000000001137
 51
269.9999999999996021
  0
ARC
  5
D9
100
AcDbEntity
  8
0
 62
256
370
-1
 48
1.0
  6
ByLayer
100
AcDbCircle
 10
111.6716019220792049
 20
-11.9999709531746337
 30
0.0
 40
2.0
100
AcDbArc
 50
269.9979910744510221
 51
314.9999999999999432
  0
LWPOLYLINE
  5
DA
100
AcDbEntity
  8
0
 62
256
370
-1
 48
1.0
  6
ByLayer
100
AcDbPolyline
 90
5
 70
0
 10
-122.5
 20
-4.0
 10
-110.5
 20
-4.0
 10
-110.5
 20
-0.0
 10
-104.5
 20
0.0
 10
-104.5
 20
-4.0
  0
ENDBLK
  5
DB
100
AcDbEntity
  8
0
100
AcDbBlockEnd
  0
BLOCK
  5
DC
100
AcDbEntity
  8
0
100
AcDbBlockBegin
  2
\U+041a\U+0440\U+0435\U+043f\U+043b\U+0435\U+043d\U+0438\U+0435\U+0422\U+043e\U+0440\U+043c\U+043e\U+0437\U+0430
 70
0
 10
0.0
 20
0.0
 30
0.0
  3
\U+041a\U+0440\U+0435\U+043f\U+043b\U+0435\U+043d\U+0438\U+0435\U+0422\U+043e\U+0440\U+043c\U+043e\U+0437\U+0430
  1

  0
ARC
  5
DD
100
AcDbEntity
  8
0
 62
256
370
-1
 48
1.0
  6
ByLayer
100
AcDbCircle
 10
-5.0000000000000009
 20
0.0
 30
0.0
 40
3.0
100
AcDbArc
 50
89.9999999999999858
 51
270.0
  0
ARC
  5
DE
100
AcDbEntity
  8
0
 62
256
370
-1
 48
1.0
  6
ByLayer
100
AcDbCircle
 10
5.0
 20
-0.0000000000000018
 30
0.0
 40
3.0
100
AcDbArc
 50
270.0
 51
89.9999999999999858
  0
ARC
  5
DF
100
AcDbEntity
  8
0
 62
256
370
-1
 48
1.0
  6
ByLayer
100
AcDbCircle
 10
47.0
 20
0.0
 30
0.0
 40
3.0
100
AcDbArc
 50
89.9999999999999858
 51
270.0
  0
ARC
  5
E0
100
AcDbEntity
  8
0
 62
256
370
-1
 48
1.0
  6
ByLayer
100
AcDbCircle
 10
57.0
 20
-0.0000000000000018
 30
0.0
 40
3.0
100
AcDbArc
 50
270.0
 51
89.9999999999999858
  0
LWPOLYLINE
  5
E1
100
AcDbEntity
  8
0
 62
256
370
-1
 48
1.0
  6
ByLayer
100
AcDbPolyline
 90
2
 70
0
 10
-5.0
 20
3.0
 10
5.0000000000000009
 20
2.9999999999999982
  0
LWPOLYLINE
  5
E2
100
AcDbEntity
  8
0
 62
256
370
-1
 48
1.0
  6
ByLayer
100
AcDbPolyline
 90
2
 70
0
 10
47.0
 20
3.0
 10
57.0
 20
2.9999999999999982
  0
LWPOLYLINE
  5
E3
100
AcDbEntity
  8
0
 62
256
370
-1
 48
1.0
  6
ByLayer
100
AcDbPolyline
 90
2
 70
0
 10
-5.0000000000000018
 20
-3.0
 10
4.9999999999999991
 20
-3.0000000000000018
  0
LWPOLYLINE
  5
E4
100
AcDbEntity
  8
0
 62
256
370
-1
 48
1.0
  6
ByLayer
100
AcDbPolyline
 90
2
 70
0
 10
47.0
 20
-3.0
 10
57.0
 20
-3.0000000000000018
  0
ENDBLK
  5
E5
100
AcDbEntity
  8
0
100
AcDbBlockEnd
  0
BLOCK
  5
E6
100
AcDbEntity
  8
0
100
AcDbBlockBegin
  2
60100 (6000Z)
 70
0
 10
0.0
 20
0.0
 30
0.0
  3
60100 (6000Z)
  1

  0
LWPOLYLINE
  5
E7
100
AcDbEntity
  8
0
 62
256
370
-1
 48
1.0
  6
ByLayer
100
AcDbPolyline
 90
4
 70
1
 10
0.0
 20
-13.0
 10
8.0
 20
-13.0
 10
8.0
 20
13.0
 10
0.0
 20
13.0
  0
LWPOLYLINE
  5
E8
100
AcDbEntity
  8
0
 62
256
370
-1
 48
1.0
  6
ByLayer
100
AcDbPolyline
 90
4
 70
1
 10
0.0
 20
-6.0
 10
8.0
 20
-6.0
 10
8.0
 20
6.0
 10
0.0
 20
6.0
  0
LINE
  5
E9
100
AcDbEntity
  8
0
 62
256
370
-1
 48
1.0
  6
ByLayer
100
AcDbLine
 10
0.0
 20
-13.0
 30
0.0
 11
8.0
 21
-6.0
 31
0.0
  0
LINE
  5
EA
100
AcDbEntity
  8
0
 62
256
370
-1
 48
1.0
  6
ByLayer
100
AcDbLine
 10
-0.0
 20
-6.0
 30
0.0
 11
8.0
 21
-13.0
 31
0.0
  0
LINE
  5
EB
100
AcDbEntity
  8
0
 62
256
370
-1
 48
1.0
  6
ByLayer
100
AcDbLine
 10
8.0
 20
13.0
 30
0.0
 11
-0.0
 21
6.0
 31
0.0
  0
LINE
  5
EC
100
AcDbEntity
  8
0
 62
256
370
-1
 48
1.0
  6
ByLayer
100
AcDbLine
 10
0.0
 20
13.0
 30
0.0
 11
8.0
 21
6.0
 31
0.0
  0
ENDBLK
  5
ED
100
AcDbEntity
  8
0
100
AcDbBlockEnd
  0
BLOCK
  5
EE
100
AcDbEntity
  8
0
100
AcDbBlockBegin
  2
\U+0410\U+043c\U+043e\U+0440\U+0442
 70
0
 10
0.0
 20
0.0
 30
0.0
  3
\U+0410\U+043c\U+043e\U+0440\U+0442
  1

  0
LINE
  5
EF
100
AcDbEntity
  8
0
 62
256
370
-1
 48
1.0
  6
ByLayer
100
AcDbLine
 10
0.0
 20
0.0
 30
0.0
 11
-200.0
 21
0.0
 31
0.0
  0
LWPOLYLINE
  5
F0
100
AcDbEntity
  8
0
 62
256
370
-1
 48
1.0
  6
ByLayer
100
AcDbPolyline
 90
4
 70
1
 10
-150.0
 20
-25.0
 10
-50.0
 20
-25.0
 10
-50.0
 20
25.0
 10
-150.0
 20
25.0
  0
ENDBLK
  5
F1
100
AcDbEntity
  8
0
100
AcDbBlockEnd
  0
BLOCK
  5
F2
100
AcDbEntity
  8
0
100
AcDbBlockBegin
  2
\U+041e\U+043f\U+0440\U+0430\U+0432\U+043a\U+0430\U+0412\U+0442\U+0443\U+043b\U+043a\U+0438
 70
0
 10
0.0
 20
0.0
 30
0.0
  3
\U+041e\U+043f\U+0440\U+0430\U+0432\U+043a\U+0430\U+0412\U+0442\U+0443\U+043b\U+043a\U+0438
  1

  0
LWPOLYLINE
  5
F3
100
AcDbEntity
  8
Main
 62
256
370
-1
 48
1.0
  6
ByLayer
100
AcDbPolyline
 90
9
 70
0
 10
-18.0
 20
63.0
 10
18.0
 20
63.0
 42
-0.414213562373095
 10
20.0
 20
61.0
 10
20.0
 20
-20.0
 42
-0.414213562373095
 10
18.0
 20
-22.0
 10
-18.0
 20
-22.0
 42
-0.414213562373095
 10
-20.0
 20
-20.0
 10
-20.0
 20
61.0
 42
-0.414213562373095
 10
-18.0
 20
63.0
  0
CIRCLE
  5
F4
100
AcDbEntity
  8
Main
 62
256
370
-1
 48
1.0
  6
ByLayer
100
AcDbCircle
 10
-15.0
 20
-16.75
 30
0.0
 40
3.0
  0
CIRCLE
  5
F5
100
AcDbEntity
  8
Main
 62
256
370
-1
 48
1.0
  6
ByLayer
100
AcDbCircle
 10
15.0
 20
-16.75
 30
0.0
 40
3.0
  0
CIRCLE
  5
F6
100
AcDbEntity
  8
Main
 62
256
370
-1
 48
1.0
  6
ByLayer
100
AcDbCircle
 10
-15.0
 20
51.75
 30
0.0
 40
3.0
  0
CIRCLE
  5
F7
100
AcDbEntity
  8
Main
 62
256
370
-1
 48
1.0
  6
ByLayer
100
AcDbCircle
 10
15.0
 20
51.75
 30
0.0
 40
3.0
  0
CIRCLE
  5
F8
100
AcDbEntity
  8
Main
 62
256
370
-1
 48
1.0
  6
ByLayer
100
AcDbCircle
 10
0.0
 20
0.0
 30
0.0
 40
15.0
  0
ENDBLK
  5
F9
100
AcDbEntity
  8
0
100
AcDbBlockEnd
  0
BLOCK
  5
FA
100
AcDbEntity
  8
0
100
AcDbBlockBegin
  2
\U+0423\U+043f\U+043e\U+0440
 70
0
 10
0.0
 20
0.0
 30
0.0
  3
\U+0423\U+043f\U+043e\U+0440
  1

  0
ARC
  5
FB
100
AcDbEntity
  8
0
 62
256
370
-1
 48
1.0
  6
ByLayer
100
AcDbCircle
 10
38.1217137224393809
 20
39.9970545439091367
 30
0.0
 40
11.9999999999996891
100
AcDbArc
 50
280.0
 51
90.0000000000034106
  0
LINE
  5
FC
100
AcDbEntity
  8
0
 62
256
370
-1
 48
1.0
  6
ByLayer
100
AcDbLine
 10
9.7323065586823052
 20
28.01441062503525
 30
0.0
 11
40.2054918544424851
 21
28.1793615077635167
 31
0.0
  0
LINE
  5
FD
100
AcDbEntity
  8
0
 62
256
370
-1
 48
1.0
  6
ByLayer
100
AcDbLine
 10
38.1217137224394236
 20
51.9970545439089022
 30
0.0
 11
-24.5184585504632793
 21
51.9970545439091154
 31
0.0
  0
CIRCLE
  5
FE
100
AcDbEntity
  8
0
 62
256
370
-1
 48
1.0
  6
ByLayer
100
AcDbCircle
 10
10.1217137224393845
 20
39.9970545439091438
 30
0.0
 40
3.0
  0
CIRCLE
  5
FF
100
AcDbEntity
  8
0
 62
256
370
-1
 48
1.0
  6
ByLayer
100
AcDbCircle
 10
38.1217137224393809
 20
39.9970545439091367
 30
0.0
 40
3.0
  0
LINE
  5
100
100
AcDbEntity
  8
0
 62
256
370
-1
 48
1.0
  6
ByLayer
100
AcDbLine
 10
-24.5184585504632722
 20
51.9970545439091154
 30
0.0
 11
-17.5556661740068023
 21
47.1216548349251951
 31
0.0
  0
LINE
  5
101
100
AcDbEntity
  8
0
 62
256
370
-1
 48
1.0
  6
ByLayer
100
AcDbLine
 10
-0.353473243937966
 20
35.0765496715532095
 30
0.0
 11
-2.0742025529911139
 21
32.6190935386862151
 31
0.0
  0
LINE
  5
102
100
AcDbEntity
  8
0
 62
256
370
-1
 48
1.0
  6
ByLayer
100
AcDbLine
 10
2.9231349332179715
 20
32.782243926149043
 30
0.0
 11
1.2024056241648502
 21
30.3247877932820309
 31
0.0
  0
LINE
  5
103
100
AcDbEntity
  8
0
 62
256
370
-1
 48
1.0
  6
ByLayer
100
AcDbLine
 10
-17.5556661740068023
 20
47.121654834925188
 30
0.0
 11
-19.2763954830599431
 21
44.6641987020582079
 31
0.0
  0
LINE
  5
104
100
AcDbEntity
  8
0
 62
256
370
-1
 48
1.0
  6
ByLayer
100
AcDbLine
 10
-14.27905799685084
 20
44.8273490895210074
 30
0.0
 11
-15.9997873059039772
 21
42.3698929566540343
 31
0.0
  0
LINE
  5
105
100
AcDbEntity
  8
0
 62
256
370
-1
 48
1.0
  6
ByLayer
100
AcDbLine
 10
-19.2763954830599431
 20
44.6641987020582079
 30
0.0
 11
-15.9997873059039772
 21
42.3698929566540343
 31
0.0
  0
LINE
  5
106
100
AcDbEntity
  8
0
 62
256
370
-1
 48
1.0
  6
ByLayer
100
AcDbLine
 10
-2.0742025529911139
 20
32.6190935386862151
 30
0.0
 11
1.2024056241648502
 21
30.3247877932820309
 31
0.0
  0
LINE
  5
107
100
AcDbEntity
  8
0
 62
256
370
-1
 48
1.0
  6
ByLayer
100
AcDbLine
 10
-14.27905799685084
 20
44.8273490895210074
 30
0.0
 11
-0.353473243937966
 21
35.0765496715532095
 31
0.0
  0
LINE
  5
108
100
AcDbEntity
  8
0
 62
256
370
-1
 48
1.0
  6
ByLayer
100
AcDbLine
 10
2.9231349332179715
 20
32.782243926149043
 30
0.0
 11
9.7323065586823052
 21
28.01441062503525
 31
0.0
  0
ENDBLK
  5
109
100
AcDbEntity
  8
0
100
AcDbBlockEnd
  0
BLOCK
  5
10A
100
AcDbEntity
  8
0
100
AcDbBlockBegin
  2
\U+041c\U+0430\U+044f\U+0442\U+043d\U+0438\U+043a
 70
0
 10
0.0
 20
0.0
 30
0.0
  3
\U+041c\U+0430\U+044f\U+0442\U+043d\U+0438\U+043a
  1

  0
INSERT
  5
10B
100
AcDbEntity
  8
0
 62
256
370
-1
 48
1.0
  6
ByLayer
100
AcDbBlockReference
  2
Balance
 10
99.0
 20
0.0
 30
0.0
  0
INSERT
  5
10C
100
AcDbEntity
  8
0
 62
256
370
-1
 48
1.0
  6
ByLayer
100
AcDbBlockReference
  2
Lever
 10
99.0
 20
0.0000000000002274
 30
0.0
 50
144.9999999999845102
  0
INSERT
  5
10D
100
AcDbEntity
  8
0
 62
256
370
-1
 48
1.0
  6
ByLayer
100
AcDbBlockReference
  2
DiskBrakeMount
 10
237.0
 20
0.75
 30
0.0
  0
ENDBLK
  5
10E
100
AcDbEntity
  8
0
100
AcDbBlockEnd
  0
BLOCK
  5
10F
100
AcDbEntity
  8
0
100
AcDbBlockBegin
  2
\U+0423\U+043f\U+043e\U+0440\U+041f\U+043b\U+0430\U+0441\U+0442\U+0438\U+043d\U+0430
 70
0
 10
0.0
 20
0.0
 30
0.0
  3
\U+0423\U+043f\U+043e\U+0440\U+041f\U+043b\U+0430\U+0441\U+0442\U+0438\U+043d\U+0430
  1

  0
LWPOLYLINE
  5
110
100
AcDbEntity
  8
0
 62
256
370
-1
 48
1.0
  6
ByLayer
100
AcDbPolyline
 90
4
 70
1
 10
0.0
 20
-17.5
 10
60.0
 20
-17.5
 10
60.0
 20
17.5
 10
0.0
 20
17.5
  0
CIRCLE
  5
111
100
AcDbEntity
  8
0
 62
256
370
-1
 48
1.0
  6
ByLayer
100
AcDbCircle
 10
50.0
 20
0.0
 30
0.0
 40
3.0
  0
CIRCLE
  5
112
100
AcDbEntity
  8
0
 62
256
370
-1
 48
1.0
  6
ByLayer
100
AcDbCircle
 10
10.0
 20
0.0
 30
0.0
 40
3.0
  0
ENDBLK
  5
113
100
AcDbEntity
  8
0
100
AcDbBlockEnd
  0
BLOCK
  5
114
100
AcDbEntity
  8
0
100
AcDbBlockBegin
  2
\U+0423\U+043f\U+043e\U+0440\U+0410\U+043c\U+043e\U+0440\U+0442\U+04302
 70
0
 10
0.0
 20
0.0
 30
0.0
  3
\U+0423\U+043f\U+043e\U+0440\U+0410\U+043c\U+043e\U+0440\U+0442\U+04302
  1

  0
ARC
  5
115
100
AcDbEntity
  8
0
 62
256
370
-1
 48
1.0
  6
ByLayer
100
AcDbCircle
 10
28.07038338333723
 20
-0.0017191128204104
 30
0.0
 40
11.9999999999996891
100
AcDbArc
 50
280.0
 51
90.0000000000034106
  0
LINE
  5
116
100
AcDbEntity
  8
0
 62
256
370
-1
 48
1.0
  6
ByLayer
100
AcDbLine
 10
16.9817001823660121
 20
-11.8907144793097359
 30
0.0
 11
30.15416151534032
 21
-11.8194121489664212
 31
0.0
  0
LINE
  5
117
100
AcDbEntity
  8
0
 62
256
370
-1
 48
1.0
  6
ByLayer
100
AcDbLine
 10
28.07038338333723
 20
11.9982808871795896
 30
0.0
 11
-17.1353209333581162
 21
11.9982808871795896
 31
0.0
  0
CIRCLE
  5
118
100
AcDbEntity
  8
0
 62
256
370
-1
 48
1.0
  6
ByLayer
100
AcDbCircle
 10
28.07038338333723
 20
-0.0017191128204104
 30
0.0
 40
3.0
  0
LINE
  5
119
100
AcDbEntity
  8
0
 62
256
370
-1
 48
1.0
  6
ByLayer
100
AcDbLine
 10
-17.2021929300688043
 20
12.0451051633717725
 30
0.0
 11
-10.2394005536123132
 21
7.1697054543878949
 31
0.0
  0
LINE
  5
11A
100
AcDbEntity
  8
0
 62
256
370
-1
 48
1.0
  6
ByLayer
100
AcDbLine
 10
-6.9627923764564912
 20
4.8753997089838776
 30
0.0
 11
-8.6835216855095041
 21
2.4179435761166133
 31
0.0
  0
LINE
  5
11B
100
AcDbEntity
  8
0
 62
256
370
-1
 48
1.0
  6
ByLayer
100
AcDbLine
 10
6.9627923764564912
 20
-4.8753997089838776
 30
0.0
 11
5.2420630674032509
 21
-7.332855841851142
 31
0.0
  0
LINE
  5
11C
100
AcDbEntity
  8
0
 62
256
370
-1
 48
1.0
  6
ByLayer
100
AcDbLine
 10
10.2394005536123132
 20
-7.1697054543883496
 30
0.0
 11
8.5186712445593002
 21
-9.6271615872551592
 31
0.0
  0
LINE
  5
11D
100
AcDbEntity
  8
0
 62
256
370
-1
 48
1.0
  6
ByLayer
100
AcDbLine
 10
-10.2394005536123132
 20
7.1697054543878949
 30
0.0
 11
-11.9601298626655534
 21
4.7122493215210852
 31
0.0
  0
LINE
  5
11E
100
AcDbEntity
  8
0
 62
256
370
-1
 48
1.0
  6
ByLayer
100
AcDbLine
 10
-11.9601298626655534
 20
4.7122493215210852
 30
0.0
 11
-8.6835216855095041
 21
2.4179435761166133
 31
0.0
  0
LINE
  5
11F
100
AcDbEntity
  8
0
 62
256
370
-1
 48
1.0
  6
ByLayer
100
AcDbLine
 10
5.2420630674032509
 20
-7.332855841851142
 30
0.0
 11
8.5186712445593002
 21
-9.6271615872551592
 31
0.0
  0
LINE
  5
120
100
AcDbEntity
  8
0
 62
256
370
-1
 48
1.0
  6
ByLayer
100
AcDbLine
 10
-6.9627923764564912
 20
4.8753997089838776
 30
0.0
 11
6.9627923764564912
 21
-4.8753997089838776
 31
0.0
  0
LINE
  5
121
100
AcDbEntity
  8
0
 62
256
370
-1
 48
1.0
  6
ByLayer
100
AcDbLine
 10
10.2394005536123132
 20
-7.1697054543883496
 30
0.0
 11
17.0485721790767002
 21
-11.9375387555019188
 31
0.0
  0
ENDBLK
  5
122
100
AcDbEntity
  8
0
100
AcDbBlockEnd
  0
BLOCK
  5
123
100
AcDbEntity
  8
0
100
AcDbBlockBegin
  2
DiskBrakeMount
 70
0
 10
0.0
 20
0.0
 30
0.0
  3
DiskBrakeMount
  1

  0
LINE
  5
124
100
AcDbEntity
  8
Main
 62
256
370
-1
 48
1.0
  6
ByLayer
100
AcDbLine
 10
-34.0
 20
2.0
 30
0.0
 11
34.0
 21
2.0
 31
0.0
  0
ARC
  5
125
100
AcDbEntity
  8
Main
 62
256
370
-1
 48
1.0
  6
ByLayer
100
AcDbCircle
 10
-25.0000000000000071
 20
18.0000000000000036
 30
0.0
 40
8.9999999999999947
100
AcDbArc
 50
89.9999999999999574
 51
180.0
  0
ARC
  5
126
100
AcDbEntity
  8
Main
 62
256
370
-1
 48
1.0
  6
ByLayer
100
AcDbCircle
 10
24.9999999999999787
 20
33.9999999999999858
 30
0.0
 40
9.0000000000000213
100
AcDbArc
 50
0.0
 51
180.0
  0
LINE
  5
127
100
AcDbEntity
  8
Main
 62
256
370
-1
 48
1.0
  6
ByLayer
100
AcDbLine
 10
-25.0
 20
27.0
 30
0.0
 11
7.000000000002494
 21
27.0
 31
0.0
  0
ARC
  5
128
100
AcDbEntity
  8
Main
 62
256
370
-1
 48
1.0
  6
ByLayer
100
AcDbCircle
 10
7.1570086038096097
 20
36.083846080816194
 30
0.0
 40
9.0852028772961138
100
AcDbArc
 50
269.0097768519584633
 51
346.7401904502378329
  0
LINE
  5
129
100
AcDbEntity
  8
Main
 62
256
370
-1
 48
1.0
  6
ByLayer
100
AcDbLine
 10
-34.0
 20
18.0
 30
0.0
 11
-34.0
 21
2.0
 31
0.0
  0
LINE
  5
12A
100
AcDbEntity
  8
Main
 62
256
370
-1
 48
1.0
  6
ByLayer
100
AcDbLine
 10
34.0
 20
34.0
 30
0.0
 11
34.0
 21
2.0
 31
0.0
  0
LINE
  5
12B
100
AcDbEntity
  8
Main
 62
256
370
-1
 48
1.0
  6
ByLayer
100
AcDbLine
 10
23.0
 20
37.0
 30
0.0
 11
27.0
 21
37.0
 31
0.0
  0
LINE
  5
12C
100
AcDbEntity
  8
Main
 62
256
370
-1
 48
1.0
  6
ByLayer
100
AcDbLine
 10
-27.0
 20
23.0
 30
0.0
 11
-23.0
 21
23.0
 31
0.0
  0
LINE
  5
12D
100
AcDbEntity
  8
Main
 62
256
370
-1
 48
1.0
  6
ByLayer
100
AcDbLine
 10
23.0
 20
31.0
 30
0.0
 11
27.0
 21
31.0
 31
0.0
  0
LINE
  5
12E
100
AcDbEntity
  8
Main
 62
256
370
-1
 48
1.0
  6
ByLayer
100
AcDbLine
 10
-27.0
 20
17.0
 30
0.0
 11
-23.0
 21
17.0
 31
0.0
  0
ARC
  5
12F
100
AcDbEntity
  8
Main
 62
256
370
-1
 48
1.0
  6
ByLayer
100
AcDbCircle
 10
23.0
 20
34.0
 30
0.0
 40
3.0
100
AcDbArc
 50
90.0
 51
270.0
  0
ARC
  5
130
100
AcDbEntity
  8
Main
 62
256
370
-1
 48
1.0
  6
ByLayer
100
AcDbCircle
 10
27.0
 20
34.0
 30
0.0
 40
3.0
100
AcDbArc
 50
270.0
 51
89.9999999999999858
  0
ARC
  5
131
100
AcDbEntity
  8
Main
 62
256
370
-1
 48
1.0
  6
ByLayer
100
AcDbCircle
 10
-27.0
 20
20.0
 30
0.0
 40
3.0
100
AcDbArc
 50
90.0
 51
270.0
  0
ARC
  5
132
100
AcDbEntity
  8
Main
 62
256
370
-1
 48
1.0
  6
ByLayer
100
AcDbCircle
 10
-23.0
 20
20.0
 30
0.0
 40
3.0
100
AcDbArc
 50
270.0
 51
89.9999999999999858
  0
CIRCLE
  5
133
100
AcDbEntity
  8
0
 62
256
370
-1
 48
1.0
  6
ByLayer
100
AcDbCircle
 10
-26.0
 20
8.0
 30
0.0
 40
3.0
  0
CIRCLE
  5
134
100
AcDbEntity
  8
0
 62
256
370
-1
 48
1.0
  6
ByLayer
100
AcDbCircle
 10
26.0
 20
8.0
 30
0.0
 40
3.0
  0
ENDBLK
  5
135
100
AcDbEntity
  8
0
100
AcDbBlockEnd
  0
BLOCK
  5
136
100
AcDbEntity
  8
0
100
AcDbBlockBegin
  2
Lever
 70
0
 10
0.0
 20
0.0
 30
0.0
  3
Lever
  1

  0
LINE
  5
137
100
AcDbEntity
  8
0
 62
256
370
-1
 48
1.0
  6
ByLayer
100
AcDbLine
 10
0.0
 20
-10.5000000000000711
 30
0.0
 11
0.0
 21
-12.9999999999998419
 31
0.0
  0
LINE
  5
138
100
AcDbEntity
  8
0
 62
256
370
-1
 48
1.0
  6
ByLayer
100
AcDbLine
 10
0.0
 20
10.5
 30
0.0
 11
0.0
 21
13.0
 31
0.0
  0
CIRCLE
  5
139
100
AcDbEntity
  8
0
 62
256
370
-1
 48
1.0
  6
ByLayer
100
AcDbCircle
 10
78.5
 20
0.0
 30
0.0
 40
4.0
  0
CIRCLE
  5
13A
100
AcDbEntity
  8
0
 62
256
370
-1
 48
1.0
  6
ByLayer
100
AcDbCircle
 10
33.5
 20
0.0
 30
0.0
 40
4.0
  0
CIRCLE
  5
13B
100
AcDbEntity
  8
0
 62
256
370
-1
 48
1.0
  6
ByLayer
100
AcDbCircle
 10
125.0
 20
0.0
 30
0.0
 40
4.0
  0
LINE
  5
13C
100
AcDbEntity
  8
0
 62
256
370
-1
 48
1.0
  6
ByLayer
100
AcDbLine
 10
124.9999999999999858
 20
-12.9999999999999787
 30
0.0
 11
0.0
 21
-12.9999999999998419
 31
0.0
  0
LINE
  5
13D
100
AcDbEntity
  8
0
 62
256
370
-1
 48
1.0
  6
ByLayer
100
AcDbLine
 10
125.0
 20
13.0
 30
0.0
 11
0.0
 21
13.0
 31
0.0
  0
ARC
  5
13E
100
AcDbEntity
  8
0
 62
256
370
-1
 48
1.0
  6
ByLayer
100
AcDbCircle
 10
125.0
 20
0.0
 30
0.0
 40
13.0
100
AcDbArc
 50
270.0
 51
90.0
  0
LINE
  5
13F
100
AcDbEntity
  8
0
 62
256
370
-1
 48
1.0
  6
ByLayer
100
AcDbLine
 10
10.3095238095238102
 20
1.9909090438444594
 30
0.0
 11
6.3095238095238102
 21
1.9909090438444594
 31
0.0
  0
LINE
  5
140
100
AcDbEntity
  8
0
 62
256
370
-1
 48
1.0
  6
ByLayer
100
AcDbLine
 10
6.3095238095238102
 20
1.9909090438444594
 30
0.0
 11
6.3095238095238102
 21
-2.0090909561555406
 31
0.0
  0
LINE
  5
141
100
AcDbEntity
  8
0
 62
256
370
-1
 48
1.0
  6
ByLayer
100
AcDbLine
 10
6.3095238095238102
 20
-2.0090909561555406
 30
0.0
 11
10.3095238095238102
 21
-1.9909090438444643
 31
0.0
  0
ARC
  5
142
100
AcDbEntity
  8
0
 62
256
370
-1
 48
1.0
  6
ByLayer
100
AcDbCircle
 10
0.0000000000000042
 20
0.0000000000000142
 30
0.0
 40
10.4999999999999929
100
AcDbArc
 50
10.8986273250969017
 51
90.0000000000000142
  0
ARC
  5
143
100
AcDbEntity
  8
0
 62
256
370
-1
 48
1.0
  6
ByLayer
100
AcDbCircle
 10
-0.0000000000001339
 20
0.000000000000083
 30
0.0
 40
10.5000000000001545
100
AcDbArc
 50
270.000000000000739
 51
349.0699524001879581
  0
ENDBLK
  5
144
100
AcDbEntity
  8
0
100
AcDbBlockEnd
  0
BLOCK
  5
145
100
AcDbEntity
  8
0
100
AcDbBlockBegin
  2
AngelPattern
 70
0
 10
0.0
 20
0.0
 30
0.0
  3
AngelPattern
  1

  0
LINE
  5
146
100
AcDbEntity
  8
0
 62
256
370
-1
 48
1.0
  6
ByLayer
100
AcDbLine
 10
0.0000000246141099
 20
-0.0000000608124537
 30
0.0
 11
-18.7303296461818718
 21
46.3591926675267132
 31
0.0
  0
LINE
  5
147
100
AcDbEntity
  8
0
 62
256
370
-1
 48
1.0
  6
ByLayer
100
AcDbLine
 10
0.0000000248610377
 20
-0.0000000608117716
 30
0.0
 11
100.0000000248610377
 21
-0.0000000608117716
 31
0.0
  0
LINE
  5
148
100
AcDbEntity
  8
0
 62
256
370
-1
 48
1.0
  6
ByLayer
100
AcDbLine
 10
100.0000000248610377
 20
-0.0000000608117716
 30
0.0
 11
-40.8092440550253741
 21
99.9999999393949111
 31
0.0
  0
CIRCLE
  5
149
100
AcDbEntity
  8
0
 62
256
370
-1
 48
1.0
  6
ByLayer
100
AcDbCircle
 10
19.4135380449647528
 20
27.0847083709722938
 30
0.0
 40
16.9502646079628114
  0
CIRCLE
  5
14A
100
AcDbEntity
  8
0
 62
256
370
-1
 48
1.0
  6
ByLayer
100
AcDbCircle
 10
-8.0174643747891423
 20
56.9861806884100588
 30
0.0
 40
8.4428089952093366
  0
CIRCLE
  5
14B
100
AcDbEntity
  8
0
 62
256
370
-1
 48
1.0
  6
ByLayer
100
AcDbCircle
 10
52.594488631259992
 20
13.9192685373309359
 30
0.0
 40
10.0712435186220137
  0
ENDBLK
  5
14C
100
AcDbEntity
  8
0
100
AcDbBlockEnd
  0
BLOCK
  5
14D
100
AcDbEntity
  8
0
100
AcDbBlockBegin
  2
\U+0423\U+043f\U+043e\U+0440\U+0413\U+0443\U+0441\U+044f
 70
0
 10
0.0
 20
0.0
 30
0.0
  3
\U+0423\U+043f\U+043e\U+0440\U+0413\U+0443\U+0441\U+044f
  1

  0
LINE
  5
14E
100
AcDbEntity
  8
Main
 62
256
370
-1
 48
1.0
  6
ByLayer
100
AcDbLine
 10
-12.1701336436630392
 20
-19.7389154797345903
 30
0.0
 11
-72.7791589165778561
 21
20.9886592959937381
 31
0.0
  0
LINE
  5
14F
100
AcDbEntity
  8
Main
 62
256
370
-1
 48
1.0
  6
ByLayer
100
AcDbLine
 10
-27.1701336436645278
 20
-19.7389154797344339
 30
0.0
 11
-67.1115471143025957
 21
7.1006005238439691
 31
0.0
  0
LINE
  5
150
100
AcDbEntity
  8
Main
 62
256
370
-1
 48
1.0
  6
ByLayer
100
AcDbLine
 10
-72.7791589165781829
 20
20.9886592959939229
 30
0.0
 11
-70.701039192975486
 21
15.8963823610478165
 31
0.0
  0
LINE
  5
151
100
AcDbEntity
  8
Main
 62
256
370
-1
 48
1.0
  6
ByLayer
100
AcDbLine
 10
-27.1701336436654302
 20
-19.7389154797344339
 30
0.0
 11
-21.6701336436654373
 21
-19.7389154797344268
 31
0.0
  0
LINE
  5
152
100
AcDbEntity
  8
Main
 62
256
370
-1
 48
1.0
  6
ByLayer
100
AcDbLine
 10
-21.6701336436654728
 20
-19.7389154797349242
 30
0.0
 11
-21.6701336436654231
 21
-23.7389154797344695
 31
0.0
  0
LINE
  5
153
100
AcDbEntity
  8
Main
 62
256
370
-1
 48
1.0
  6
ByLayer
100
AcDbLine
 10
-17.670133643665455
 20
-19.7389154797349029
 30
0.0
 11
-17.6701336436654657
 21
-23.738915479734441
 31
0.0
  0
LINE
  5
154
100
AcDbEntity
  8
Main
 62
256
370
-1
 48
1.0
  6
ByLayer
100
AcDbLine
 10
-21.6701336436654231
 20
-23.7389154797344695
 30
0.0
 11
-17.6701336436654657
 21
-23.738915479734441
 31
0.0
  0
LINE
  5
155
100
AcDbEntity
  8
Main
 62
256
370
-1
 48
1.0
  6
ByLayer
100
AcDbLine
 10
-17.670133643665455
 20
-19.7389154797344517
 30
0.0
 11
-12.1701336436623091
 21
-19.7389154797342989
 31
0.0
  0
LINE
  5
156
100
AcDbEntity
  8
Main
 62
256
370
-1
 48
1.0
  6
ByLayer
100
AcDbLine
 10
-70.6945662022717158
 20
15.8989976190517375
 30
0.0
 11
-74.4033016205388549
 21
14.4005712453881038
 31
0.0
  0
LINE
  5
157
100
AcDbEntity
  8
Main
 62
256
370
-1
 48
1.0
  6
ByLayer
100
AcDbLine
 10
-69.1961398286080538
 20
12.1902622007846055
 30
0.0
 11
-72.904875246875207
 21
10.6918358271209328
 31
0.0
  0
LINE
  5
158
100
AcDbEntity
  8
Main
 62
256
370
-1
 48
1.0
  6
ByLayer
100
AcDbLine
 10
-74.4033016205388549
 20
14.4005712453881038
 30
0.0
 11
-72.904875246875207
 21
10.6918358271209328
 31
0.0
  0
LINE
  5
159
100
AcDbEntity
  8
Main
 62
256
370
-1
 48
1.0
  6
ByLayer
100
AcDbLine
 10
-69.1961398286080538
 20
12.1902622007846055
 30
0.0
 11
-67.1115471143025957
 21
7.1006005238439691
 31
0.0
  0
ENDBLK
  5
15A
100
AcDbEntity
  8
0
100
AcDbBlockEnd
  0
BLOCK
  5
15B
100
AcDbEntity
  8
0
100
AcDbBlockBegin
  2
\U+0412\U+0442\U+0443\U+043b\U+043a\U+0430\U+041c\U+0430\U+044f\U+0442\U+043d\U+0438\U+043a\U+0430
 70
0
 10
0.0
 20
0.0
 30
0.0
  3
\U+0412\U+0442\U+0443\U+043b\U+043a\U+0430\U+041c\U+0430\U+044f\U+0442\U+043d\U+0438\U+043a\U+0430
  1

  0
LINE
  5
15C
100
AcDbEntity
  8
Main
 62
256
370
-1
 48
1.0
  6
ByLayer
100
AcDbLine
 10
-0.0000000000000023
 20
12.4760700000656506
 30
0.0
 11
0.0
 21
-0.0239299999343494
 31
0.0
  0
LINE
  5
15D
100
AcDbEntity
  8
Main
 62
256
370
-1
 48
1.0
  6
ByLayer
100
AcDbLine
 10
0.0
 20
12.4760700000656506
 30
0.0
 11
0.0
 21
12.9760700000656506
 31
0.0
  0
LINE
  5
15E
100
AcDbEntity
  8
Main
 62
256
370
-1
 48
1.0
  6
ByLayer
100
AcDbLine
 10
0.0
 20
12.9760700000656506
 30
0.0
 11
-8.0
 21
12.9760700000656506
 31
0.0
  0
LINE
  5
15F
100
AcDbEntity
  8
Main
 62
256
370
-1
 48
1.0
  6
ByLayer
100
AcDbLine
 10
120.0
 20
12.9760700000656506
 30
0.0
 11
112.0
 21
12.9760700000656506
 31
0.0
  0
LINE
  5
160
100
AcDbEntity
  8
Main
 62
256
370
-1
 48
1.0
  6
ByLayer
100
AcDbLine
 10
112.0
 20
12.9760700000656506
 30
0.0
 11
112.0
 21
12.4760700000656506
 31
0.0
  0
LINE
  5
161
100
AcDbEntity
  8
Main
 62
256
370
-1
 48
1.0
  6
ByLayer
100
AcDbLine
 10
112.0
 20
12.4760700000656506
 30
0.0
 11
0.0
 21
12.4760700000656506
 31
0.0
  0
LINE
  5
162
100
AcDbEntity
  8
Main
 62
256
370
-1
 48
1.0
  6
ByLayer
100
AcDbLine
 10
-8.0
 20
13.9760700000656506
 30
0.0
 11
-7.9999999999999982
 21
-14.0239299999343547
 31
0.0
  0
LINE
  5
163
100
AcDbEntity
  8
Main
 62
256
370
-1
 48
1.0
  6
ByLayer
100
AcDbLine
 10
112.0
 20
12.976070000065647
 30
0.0
 11
112.0
 21
-0.0239299999343512
 31
0.0
  0
LINE
  5
164
100
AcDbEntity
  8
Main
 62
256
370
-1
 48
1.0
  6
ByLayer
100
AcDbLine
 10
120.0
 20
13.9760700000656506
 30
0.0
 11
119.9999999999999858
 21
-14.0239299999343512
 31
0.0
  0
LINE
  5
165
100
AcDbEntity
  8
Axis
 62
256
370
-1
 48
1.0
  6
ByLayer
100
AcDbLine
 10
-23.5902112629980607
 20
-0.0239299999343494
 30
0.0
 11
146.7218949988615009
 21
-0.0239299999343494
 31
0.0
  0
LINE
  5
166
100
AcDbEntity
  8
Axis
 62
256
370
-1
 48
1.0
  6
ByLayer
100
AcDbLine
 10
56.0
 20
22.2963088632834214
 30
0.0
 11
56.0
 21
-36.8398391443067155
 31
0.0
  0
LINE
  5
167
100
AcDbEntity
  8
0
 62
256
370
-1
 48
1.0
  6
ByLayer
100
AcDbLine
 10
-8.0000000000000036
 20
12.9760700000656506
 30
0.0
 11
-0.494314181538078
 21
12.9760700000656506
 31
0.0
  0
LINE
  5
168
100
AcDbEntity
  8
0
 62
256
370
-1
 48
1.0
  6
ByLayer
100
AcDbLine
 10
-0.494314181538078
 20
12.9760700000656506
 30
0.0
 11
0.0
 21
12.9760700000656506
 31
0.0
  0
LINE
  5
169
100
AcDbEntity
  8
Unvisible
 62
256
370
-1
 48
1.0
  6
ByLayer
100
AcDbLine
 10
-0.0000000000000024
 20
-13.0239299999343494
 30
0.0
 11
-0.0
 21
-0.0239299999343494
 31
0.0
  0
LINE
  5
16A
100
AcDbEntity
  8
Unvisible
 62
256
370
-1
 48
1.0
  6
ByLayer
100
AcDbLine
 10
-0.0000000000000024
 20
-13.0239299999343494
 30
0.0
 11
-8.0
 21
-13.0239299999343494
 31
0.0
  0
LINE
  5
16B
100
AcDbEntity
  8
0
 62
256
370
-1
 48
1.0
  6
ByLayer
100
AcDbLine
 10
-7.0
 20
15.1010700000656488
 30
0.0
 11
-7.0
 21
22.25
 31
0.0
  0
LINE
  5
16C
100
AcDbEntity
  8
0
 62
256
370
-1
 48
1.0
  6
ByLayer
100
AcDbLine
 10
-8.0
 20
14.1010700000656488
 30
0.0
 11
-8.0
 21
13.9760700000656506
 31
0.0
  0
MTEXT
  5
16D
100
AcDbEntity
  8
0
 62
256
370
-1
 48
1.0
  6
ByLayer
100
AcDbMText
 10
3.0
 20
21.0
 30
0.0
 40
2.5
 41
0.0
 71
5
 72
1
  1
1x45\FStandard|c0;%%d\FCyrillic_II|c0;\P2 \U+043c\U+0435\U+0441\U+0442\U+0430
  7
textstyle1
 50
0.0
 73
2
 44
1.0
  0
LINE
  5
16E
100
AcDbEntity
  8
0
 62
256
370
-1
 48
1.0
  6
ByLayer
100
AcDbLine
 10
11.0
 20
21.0
 30
0.0
 11
-13.0
 21
21.0
 31
0.0
  0
SOLID
  5
16F
100
AcDbEntity
  8
0
 62
256
370
-1
 48
1.0
  6
ByLayer
100
AcDbTrace
 10
-7.0
 20
21.0
 30
0.0
 11
-4.5
 21
21.4162846577728416
 31
0.0
 12
-4.5
 22
20.5837153422271584
 32
0.0
 13
-4.5
 23
20.5837153422271584
 33
0.0
 39
0.0
  0
SOLID
  5
170
100
AcDbEntity
  8
0
 62
256
370
-1
 48
1.0
  6
ByLayer
100
AcDbTrace
 10
-8.0
 20
21.0
 30
0.0
 11
-10.5
 21
20.5837153422271584
 31
0.0
 12
-10.5
 22
21.4162846577728416
 32
0.0
 13
-10.5
 23
21.4162846577728416
 33
0.0
 39
0.0
  0
MTEXT
  5
171
100
AcDbEntity
  8
0
 62
256
370
-1
 48
1.0
  6
ByLayer
100
AcDbMText
 10
12.1445907670591389
 20
33.7312238025338331
 30
0.0
 40
2.5
 41
0.0
 71
4
 72
1
  3
\U+0414\U+0438\U+0430\U+043c\U+0435\U+0442\U+0440 26 \U+043f\U+043e\U+0434 \U+0443\U+0441\U+0442\U+0430\U+043d\U+043e\U+0432\U+043a\U+0443 \U+043f\U+043e\U+0434\U+0448\U+0438\U+043f\U+043d\U+0438\U+043a\U+0430 (6000) \U+0432\U+043d\U+0430\U+0442\U+04
  1
4f\U+0433
  7
textstyle2
 50
0.0
 73
2
 44
1.0
  0
DIMENSION
  5
172
100
AcDbEntity
  8
0
 62
256
370
-1
 48
1.0
  6
ByLayer
100
AcDbDimension
 10
112.0
 20
21.0
 30
0.0
 11
116.0
 21
22.875
 31
0.0
 70
0
 71
8
 72
2
 41
1.0
 42
0.0
  1

  3
Standard
100
AcDbAlignedDimension
 13
112.0
 23
12.9760700000656506
 33
0.0
 14
120.0
 24
12.9760700000656506
 34
0.0
 50
0.0
100
AcDbRotatedDimension
1001
ACAD
1000
DSTYLE
1002
{
1070
144
1040
1.0
1070
40
1040
1.0
1002
}
  0
DIMENSION
  5
173
100
AcDbEntity
  8
0
 62
256
370
-1
 48
1.0
  6
ByLayer
100
AcDbDimension
 10
-15.4164743894873624
 20
12.9760700000656524
 30
0.0
 11
-17.2914743894873624
 21
-0.0239299999343474
 31
0.0
 70
1
 71
8
 72
2
 41
1.0
 42
0.0
  1

  3
Standard
100
AcDbAlignedDimension
 13
-8.0
 23
12.9760700000656506
 33
0.0
 14
-7.9999999999999991
 24
-13.0239299999343494
 34
0.0
1001
ACAD
1000
DSTYLE
1002
{
1070
144
1040
1.0
1070
40
1040
1.0
1002
}
  0
LINE
  5
174
100
AcDbEntity
  8
0
 62
256
370
-1
 48
1.0
  6
ByLayer
100
AcDbLine
 10
0.0
 20
-0.0239299999343494
 30
0.0
 11
0.0
 21
-12.5239299999343494
 31
0.0
  0
DIMENSION
  5
175
100
AcDbEntity
  8
0
 62
256
370
-1
 48
1.0
  6
ByLayer
100
AcDbDimension
 10
55.9999999999999929
 20
12.4760700000656382
 30
0.0
 11
54.1249999999999929
 21
-0.0239299999343625
 31
0.0
 70
1
 71
8
 72
2
 41
1.0
 42
0.0
  1

  3
Standard
100
AcDbAlignedDimension
 13
-0.0000000000000023
 23
12.4760700000656524
 33
0.0
 14
0.0
 24
-12.5239299999343494
 34
0.0
1001
ACAD
1000
DSTYLE
1002
{
1070
144
1040
1.0
1070
40
1040
1.0
1002
}
  0
LINE
  5
176
100
AcDbEntity
  8
Main
 62
256
370
-1
 48
1.0
  6
ByLayer
100
AcDbLine
 10
-7.0
 20
14.9760700000656506
 30
0.0
 11
119.0
 21
14.9760700000656506
 31
0.0
  0
LINE
  5
177
100
AcDbEntity
  8
0
 62
256
370
-1
 48
1.0
  6
ByLayer
100
AcDbLine
 10
120.0
 20
-14.1489299999343423
 30
0.0
 11
120.0
 21
-14.1489299999343423
 31
0.0
  0
LINE
  5
178
100
AcDbEntity
  8
Main
 62
256
370
-1
 48
1.0
  6
ByLayer
100
AcDbLine
 10
-6.9999999999999982
 20
-15.023929999934353
 30
0.0
 11
119.0
 21
-15.0239299999343512
 31
0.0
  0
LINE
  5
179
100
AcDbEntity
  8
Main
 62
256
370
-1
 48
1.0
  6
ByLayer
100
AcDbLine
 10
-8.0
 20
13.9760700000656506
 30
0.0
 11
-7.0
 21
14.9760700000656506
 31
0.0
  0
LINE
  5
17A
100
AcDbEntity
  8
Main
 62
256
370
-1
 48
1.0
  6
ByLayer
100
AcDbLine
 10
-7.9999999999999991
 20
-14.023929999934353
 30
0.0
 11
-6.9999999999999982
 21
-15.023929999934353
 31
0.0
  0
LINE
  5
17B
100
AcDbEntity
  8
Main
 62
256
370
-1
 48
1.0
  6
ByLayer
100
AcDbLine
 10
119.0
 20
-15.0239299999343512
 30
0.0
 11
119.9999999999999858
 21
-14.0239299999343512
 31
0.0
  0
LINE
  5
17C
100
AcDbEntity
  8
Main
 62
256
370
-1
 48
1.0
  6
ByLayer
100
AcDbLine
 10
119.0
 20
14.9760700000656506
 30
0.0
 11
120.0
 21
13.9760700000656506
 31
0.0
  0
DIMENSION
  5
17D
100
AcDbEntity
  8
0
 62
256
370
-1
 48
1.0
  6
ByLayer
100
AcDbDimension
 10
-23.5902112629980607
 20
14.9760700000656524
 30
0.0
 11
-25.4652112629980607
 21
-0.0239299999343492
 31
0.0
 70
1
 71
8
 72
2
 41
1.0
 42
0.0
  1

  3
Standard
100
AcDbAlignedDimension
 13
-7.0
 23
14.9760700000656506
 33
0.0
 14
-6.9999999999999982
 24
-15.023929999934353
 34
0.0
1001
ACAD
1000
DSTYLE
1002
{
1070
144
1040
1.0
1070
40
1040
1.0
1002
}
  0
LWPOLYLINE
  5
17E
100
AcDbEntity
  8
0
 62
256
370
-1
 48
1.0
  6
ByLayer
100
AcDbPolyline
 90
11
 70
0
 10
-7.0
 20
14.9760700000656506
 10
118.9999999999999858
 20
14.9760700000656506
 10
120.0
 20
13.9760700000656524
 10
120.0
 20
12.9760700000656506
 10
112.0
 20
12.9760700000656506
 10
112.0
 20
12.4760700000656506
 10
-0.0
 20
12.4760700000656506
 10
0.0
 20
12.9760700000656506
 10
-8.0
 20
12.9760700000656506
 10
-8.0
 20
13.9760700000656506
 10
-6.9999999999999991
 20
14.9760700000656506
  0
HATCH
  5
17F
100
AcDbEntity
  8
0
 62
256
370
-1
 48
1.0
  6
ByLayer
100
AcDbHatch
 10
0.0
 20
0.0
 30
0.0
210
0.0
220
0.0
230
1.0
  2
ANSI31
 70
0
 71
0
 91
1
 92
1
 93
10
 72
1
 10
-7.0
 20
14.9760700000656506
 11
118.9999999999999858
 21
14.9760700000656506
 72
1
 10
118.9999999999999858
 20
14.9760700000656506
 11
120.0
 21
13.9760700000656524
 72
1
 10
120.0
 20
13.9760700000656524
 11
120.0
 21
12.9760700000656506
 72
1
 10
120.0
 20
12.9760700000656506
 11
112.0
 21
12.9760700000656506
 72
1
 10
112.0
 20
12.9760700000656506
 11
112.0
 21
12.4760700000656506
 72
1
 10
112.0
 20
12.4760700000656506
 11
-0.0
 21
12.4760700000656506
 72
1
 10
-0.0
 20
12.4760700000656506
 11
0.0
 21
12.9760700000656506
 72
1
 10
0.0
 20
12.9760700000656506
 11
-8.0
 21
12.9760700000656506
 72
1
 10
-8.0
 20
12.9760700000656506
 11
-8.0
 21
13.9760700000656506
 72
1
 10
-8.0
 20
13.9760700000656506
 11
-6.9999999999999991
 21
14.9760700000656506
 97
0
 75
0
 76
1
 52
0.0
 41
0.5
 77
0
 78
1
 53
45.0
 43
0.0
 44
0.0
 45
-0.0883883476483184
 46
0.0883883476483185
 79
0
 98
0
1001
ACAD
1010
0.0
1020
0.0
1030
0
  0
DIMENSION
  5
180
100
AcDbEntity
  8
0
 62
256
370
-1
 48
1.0
  6
ByLayer
100
AcDbDimension
 10
-8.0
 20
-25.7562122206477753
 30
0.0
 11
56.0
 21
-23.8812122206477753
 31
0.0
 70
0
 71
8
 72
2
 41
1.0
 42
0.0
  1
X-2*1mm
  3
Standard
100
AcDbAlignedDimension
 13
-7.9999999999999991
 23
-14.0239299999343547
 33
0.0
 14
120.0
 24
-14.0239299999343316
 34
0.0
 50
0.0
100
AcDbRotatedDimension
1001
ACAD
1000
DSTYLE
1002
{
1070
144
1040
1.0
1070
40
1040
1.0
1002
}
  0
ENDBLK
  5
181
100
AcDbEntity
  8
0
100
AcDbBlockEnd
  0
BLOCK
  5
182
100
AcDbEntity
  8
0
100
AcDbBlockBegin
  2
BalanceAxis
 70
0
 10
0.0
 20
0.0
 30
0.0
  3
BalanceAxis
  1

  0
LWPOLYLINE
  5
183
100
AcDbEntity
  8
0
 62
256
370
-1
 48
1.0
  6
ByLayer
100
AcDbPolyline
 90
4
 70
1
 10
-57.9999999999995524
 20
-10.5
 10
58.0000000000004476
 20
-10.5
 10
58.0000000000004476
 20
10.5
 10
-57.9999999999995524
 20
10.5
  0
ENDBLK
  5
184
100
AcDbEntity
  8
0
100
AcDbBlockEnd
  0
BLOCK
  5
185
100
AcDbEntity
  8
0
100
AcDbBlockBegin
  2
\U+0423\U+043f\U+043e\U+0440\U+0410\U+043c\U+043e\U+0440\U+0442\U+0430
 70
0
 10
0.0
 20
0.0
 30
0.0
  3
\U+0423\U+043f\U+043e\U+0440\U+0410\U+043c\U+043e\U+0440\U+0442\U+0430
  1

  0
LINE
  5
186
100
AcDbEntity
  8
Main
 62
256
370
-1
 48
1.0
  6
ByLayer
100
AcDbLine
 10
-19.0
 20
0.0
 30
0.0
 11
19.0
 21
0.0
 31
0.0
  0
LINE
  5
187
100
AcDbEntity
  8
Main
 62
256
370
-1
 48
1.0
  6
ByLayer
100
AcDbLine
 10
21.0
 20
-2.0
 30
0.0
 11
21.0
 21
-32.0
 31
0.0
  0
LINE
  5
188
100
AcDbEntity
  8
Main
 62
256
370
-1
 48
1.0
  6
ByLayer
100
AcDbLine
 10
19.0
 20
-34.0
 30
0.0
 11
-19.0
 21
-34.0
 31
0.0
  0
LINE
  5
189
100
AcDbEntity
  8
Main
 62
256
370
-1
 48
1.0
  6
ByLayer
100
AcDbLine
 10
-21.0
 20
-32.0
 30
0.0
 11
-21.0
 21
-2.0
 31
0.0
  0
LINE
  5
18A
100
AcDbEntity
  8
Main
 62
256
370
-1
 48
1.0
  6
ByLayer
100
AcDbLine
 10
21.0
 20
-32.5
 30
0.0
 11
21.0
 21
-29.5
 31
0.0
  0
LINE
  5
18B
100
AcDbEntity
  8
Main
 62
256
370
-1
 48
1.0
  6
ByLayer
100
AcDbLine
 10
21.0
 20
-4.5
 30
0.0
 11
21.0
 21
-1.5
 31
0.0
  0
LINE
  5
18C
100
AcDbEntity
  8
Main
 62
256
370
-1
 48
1.0
  6
ByLayer
100
AcDbLine
 10
-21.0
 20
-29.5
 30
0.0
 11
-21.0
 21
-32.5
 31
0.0
  0
LINE
  5
18D
100
AcDbEntity
  8
Main
 62
256
370
-1
 48
1.0
  6
ByLayer
100
AcDbLine
 10
-21.0
 20
-1.5
 30
0.0
 11
-21.0
 21
-4.5
 31
0.0
  0
LINE
  5
18E
100
AcDbEntity
  8
Main
 62
256
370
-1
 48
1.0
  6
ByLayer
100
AcDbLine
 10
-21.0
 20
-4.5
 30
0.0
 11
-21.0
 21
-29.5
 31
0.0
  0
CIRCLE
  5
18F
100
AcDbEntity
  8
Main
 62
256
370
-1
 48
1.0
  6
ByLayer
100
AcDbCircle
 10
-10.5
 20
-31.0
 30
0.0
 40
2.0
  0
CIRCLE
  5
190
100
AcDbEntity
  8
Main
 62
256
370
-1
 48
1.0
  6
ByLayer
100
AcDbCircle
 10
10.5
 20
-31.0
 30
0.0
 40
2.0
  0
CIRCLE
  5
191
100
AcDbEntity
  8
Main
 62
256
370
-1
 48
1.0
  6
ByLayer
100
AcDbCircle
 10
-10.5
 20
-3.0
 30
0.0
 40
2.0
  0
CIRCLE
  5
192
100
AcDbEntity
  8
Main
 62
256
370
-1
 48
1.0
  6
ByLayer
100
AcDbCircle
 10
10.5
 20
-3.0
 30
0.0
 40
2.0
  0
CIRCLE
  5
193
100
AcDbEntity
  8
Main
 62
256
370
-1
 48
1.0
  6
ByLayer
100
AcDbCircle
 10
13.0
 20
-17.0
 30
0.0
 40
3.0
  0
CIRCLE
  5
194
100
AcDbEntity
  8
Main
 62
256
370
-1
 48
1.0
  6
ByLayer
100
AcDbCircle
 10
-13.0
 20
-17.0
 30
0.0
 40
3.0
  0
ARC
  5
195
100
AcDbEntity
  8
Main
 62
256
370
-1
 48
1.0
  6
ByLayer
100
AcDbCircle
 10
-19.0
 20
-2.0
 30
0.0
 40
2.0
100
AcDbArc
 50
90.0
 51
180.0
  0
ARC
  5
196
100
AcDbEntity
  8
Main
 62
256
370
-1
 48
1.0
  6
ByLayer
100
AcDbCircle
 10
-19.0
 20
-32.0
 30
0.0
 40
2.0
100
AcDbArc
 50
180.0
 51
270.0
  0
ARC
  5
197
100
AcDbEntity
  8
Main
 62
256
370
-1
 48
1.0
  6
ByLayer
100
AcDbCircle
 10
19.0
 20
-32.0
 30
0.0
 40
2.0
100
AcDbArc
 50
270.0
 51
0.0
  0
ARC
  5
198
100
AcDbEntity
  8
Main
 62
256
370
-1
 48
1.0
  6
ByLayer
100
AcDbCircle
 10
19.0
 20
-2.0
 30
0.0
 40
2.0
100
AcDbArc
 50
0.0
 51
90.0
  0
ENDBLK
  5
199
100
AcDbEntity
  8
0
100
AcDbBlockEnd
  0
BLOCK
  5
19A
100
AcDbEntity
  8
0
100
AcDbBlockBegin
  2
BatteryMount
 70
0
 10
0.0
 20
0.0
 30
0.0
  3
BatteryMount
  1

  0
LINE
  5
19B
100
AcDbEntity
  8
Main
 62
256
370
-1
 48
1.0
  6
ByLayer
100
AcDbLine
 10
-12.0
 20
-22.5
 30
0.0
 11
54.0
 21
-22.5
 31
0.0
  0
LINE
  5
19C
100
AcDbEntity
  8
Main
 62
256
370
-1
 48
1.0
  6
ByLayer
100
AcDbLine
 10
56.0
 20
-20.5
 30
0.0
 11
56.0
 21
20.5
 31
0.0
  0
LINE
  5
19D
100
AcDbEntity
  8
Main
 62
256
370
-1
 48
1.0
  6
ByLayer
100
AcDbLine
 10
54.0
 20
22.5
 30
0.0
 11
-12.0
 21
22.5
 31
0.0
  0
LINE
  5
19E
100
AcDbEntity
  8
Main
 62
256
370
-1
 48
1.0
  6
ByLayer
100
AcDbLine
 10
-14.0
 20
20.5
 30
0.0
 11
-14.0
 21
-20.5
 31
0.0
  0
CIRCLE
  5
19F
100
AcDbEntity
  8
Main
 62
256
370
-1
 48
1.0
  6
ByLayer
100
AcDbCircle
 10
0.0
 20
0.0
 30
0.0
 40
3.0
  0
CIRCLE
  5
1A0
100
AcDbEntity
  8
Main
 62
256
370
-1
 48
1.0
  6
ByLayer
100
AcDbCircle
 10
46.0
 20
0.0
 30
0.0
 40
3.0
  0
CIRCLE
  5
1A1
100
AcDbEntity
  8
Main
 62
256
370
-1
 48
1.0
  6
ByLayer
100
AcDbCircle
 10
12.0
 20
-13.0000000000000018
 30
0.0
 40
3.0
  0
CIRCLE
  5
1A2
100
AcDbEntity
  8
Main
 62
256
370
-1
 48
1.0
  6
ByLayer
100
AcDbCircle
 10
12.0
 20
13.0
 30
0.0
 40
3.0
  0
ARC
  5
1A3
100
AcDbEntity
  8
Main
 62
256
370
-1
 48
1.0
  6
ByLayer
100
AcDbCircle
 10
-12.0
 20
20.5
 30
0.0
 40
2.0
100
AcDbArc
 50
90.0
 51
180.0
  0
ARC
  5
1A4
100
AcDbEntity
  8
Main
 62
256
370
-1
 48
1.0
  6
ByLayer
100
AcDbCircle
 10
-12.0
 20
-20.5
 30
0.0
 40
2.0
100
AcDbArc
 50
180.0
 51
270.0
  0
ARC
  5
1A5
100
AcDbEntity
  8
Main
 62
256
370
-1
 48
1.0
  6
ByLayer
100
AcDbCircle
 10
54.0
 20
-20.5
 30
0.0
 40
2.0
100
AcDbArc
 50
270.0
 51
0.0
  0
ARC
  5
1A6
100
AcDbEntity
  8
Main
 62
256
370
-1
 48
1.0
  6
ByLayer
100
AcDbCircle
 10
54.0
 20
20.5
 30
0.0
 40
2.0
100
AcDbArc
 50
0.0
 51
90.0
  0
ENDBLK
  5
1A7
100
AcDbEntity
  8
0
100
AcDbBlockEnd
  0
BLOCK
  5
1A8
100
AcDbEntity
  8
0
100
AcDbBlockBegin
  2
Balance
 70
0
 10
0.0
 20
0.0
 30
0.0
  3
Balance
  1

  0
LWPOLYLINE
  5
1A9
100
AcDbEntity
  8
0
 62
256
370
-1
 48
1.0
  6
ByLayer
100
AcDbPolyline
 90
5
 70
0
 10
-53.0
 20
-2.0
 10
-53.0
 20
2.0
 10
-47.0
 20
2.0
 10
-47.0
 20
-2.0
 10
-53.0
 20
-2.0
  0
LWPOLYLINE
  5
1AA
100
AcDbEntity
  8
0
 62
256
370
-1
 48
1.0
  6
ByLayer
100
AcDbPolyline
 90
5
 70
0
 10
54.5
 20
-2.0
 10
54.5
 20
2.0
 10
60.5
 20
2.0
 10
60.5
 20
-2.0
 10
54.5
 20
-2.0
  0
LWPOLYLINE
  5
1AB
100
AcDbEntity
  8
0
 62
256
370
-1
 48
1.0
  6
ByLayer
100
AcDbPolyline
 90
5
 70
0
 10
147.0
 20
-2.0
 10
147.0
 20
2.0
 10
153.0
 20
2.0
 10
153.0
 20
-2.0
 10
147.0
 20
-2.0
  0
LWPOLYLINE
  5
1AC
100
AcDbEntity
  8
0
 62
256
370
-1
 48
1.0
  6
ByLayer
100
AcDbPolyline
 90
5
 70
0
 10
-42.5
 20
3.5900000000000034
 10
-38.5
 20
3.5900000000000034
 10
-38.5
 20
-0.4099999999999966
 10
-42.5
 20
-0.4099999999999966
 10
-42.5
 20
3.5900000000000034
  0
LWPOLYLINE
  5
1AD
100
AcDbEntity
  8
0
 62
256
370
-1
 48
1.0
  6
ByLayer
100
AcDbPolyline
 90
5
 70
0
 10
-42.5
 20
-7.2999999999999972
 10
-38.5
 20
-7.2999999999999972
 10
-38.5
 20
-11.2999999999999972
 10
-42.5
 20
-11.2999999999999972
 10
-42.5
 20
-7.2999999999999972
  0
INSERT
  5
1AE
100
AcDbEntity
  8
0
 62
256
370
-1
 48
1.0
  6
ByLayer
100
AcDbBlockReference
  2
\U+041a\U+0440\U+0435\U+043f\U+043b\U+0435\U+043d\U+0438\U+0435\U+0422\U+043e\U+0440\U+043c\U+043e\U+0437\U+0430
 10
112.0
 20
8.75
 30
0.0
  0
CIRCLE
  5
1AF
100
AcDbEntity
  8
0
 62
256
370
-1
 48
1.0
  6
ByLayer
100
AcDbCircle
 10
0.0
 20
0.0
 30
0.0
 40
10.5
  0
ARC
  5
1B0
100
AcDbEntity
  8
0
 62
256
370
-1
 48
1.0
  6
ByLayer
100
AcDbCircle
 10
0.0
 20
0.0
 30
0.0
 40
20.0
100
AcDbArc
 50
227.518887124567641
 51
312.4811128754324727
  0
ARC
  5
1B1
100
AcDbEntity
  8
0
 62
256
370
-1
 48
1.0
  6
ByLayer
100
AcDbCircle
 10
0.0
 20
0.0
 30
0.0
 40
20.0
100
AcDbArc
 50
47.5188871245676481
 51
132.4811128754323022
  0
LINE
  5
1B2
100
AcDbEntity
  8
0
 62
256
370
-1
 48
1.0
  6
ByLayer
100
AcDbLine
 10
220.0
 20
-9.75
 30
0.0
 11
220.0
 21
-5.0
 31
0.0
  0
ARC
  5
1B3
100
AcDbEntity
  8
0
 62
256
370
-1
 48
1.0
  6
ByLayer
100
AcDbCircle
 10
215.0
 20
-9.75
 30
0.0
 40
5.0
100
AcDbArc
 50
270.0
 51
0.0
  0
LINE
  5
1B4
100
AcDbEntity
  8
0
 62
256
370
-1
 48
1.0
  6
ByLayer
100
AcDbLine
 10
220.0
 20
5.0
 30
0.0
 11
220.0
 21
9.75
 31
0.0
  0
ARC
  5
1B5
100
AcDbEntity
  8
0
 62
256
370
-1
 48
1.0
  6
ByLayer
100
AcDbCircle
 10
215.0
 20
9.75
 30
0.0
 40
5.0
100
AcDbArc
 50
0.0
 51
90.0
  0
LINE
  5
1B6
100
AcDbEntity
  8
0
 62
256
370
-1
 48
1.0
  6
ByLayer
100
AcDbLine
 10
195.25
 20
5.0
 30
0.0
 11
220.0
 21
5.0
 31
0.0
  0
LINE
  5
1B7
100
AcDbEntity
  8
0
 62
256
370
-1
 48
1.0
  6
ByLayer
100
AcDbLine
 10
195.25
 20
-5.0
 30
0.0
 11
220.0
 21
-5.0
 31
0.0
  0
LINE
  5
1B8
100
AcDbEntity
  8
0
 62
256
370
-1
 48
1.0
  6
ByLayer
100
AcDbLine
 10
215.0
 20
14.75
 30
0.0
 11
13.5069426592400994
 21
14.75
 31
0.0
  0
LINE
  5
1B9
100
AcDbEntity
  8
0
 62
256
370
-1
 48
1.0
  6
ByLayer
100
AcDbLine
 10
13.5069426592400994
 20
-14.75
 30
0.0
 11
215.0
 21
-14.75
 31
0.0
  0
ARC
  5
1BA
100
AcDbEntity
  8
0
 62
256
370
-1
 48
1.0
  6
ByLayer
100
AcDbCircle
 10
-80.0
 20
0.0
 30
0.0
 40
14.75
100
AcDbArc
 50
90.0
 51
270.0
  0
LINE
  5
1BB
100
AcDbEntity
  8
0
 62
256
370
-1
 48
1.0
  6
ByLayer
100
AcDbLine
 10
-13.5069426592400994
 20
14.75
 30
0.0
 11
-80.0000009536743164
 21
14.75
 31
0.0
  0
LINE
  5
1BC
100
AcDbEntity
  8
0
 62
256
370
-1
 48
1.0
  6
ByLayer
100
AcDbLine
 10
-80.0
 20
-14.75
 30
0.0
 11
-13.5069426592400994
 21
-14.75
 31
0.0
  0
ARC
  5
1BD
100
AcDbEntity
  8
0
 62
256
370
-1
 48
1.0
  6
ByLayer
100
AcDbCircle
 10
195.2500000000000284
 20
-0.0
 30
0.0
 40
5.0
100
AcDbArc
 50
90.0000000000003411
 51
269.9999999999996589
  0
CIRCLE
  5
1BE
100
AcDbEntity
  8
0
 62
256
370
-1
 48
1.0
  6
ByLayer
100
AcDbCircle
 10
-80.0
 20
0.0
 30
0.0
 40
0.0
  0
CIRCLE
  5
1BF
100
AcDbEntity
  8
0
 62
256
370
-1
 48
1.0
  6
ByLayer
100
AcDbCircle
 10
-80.0
 20
0.0
 30
0.0
 40
5.0
  0
ENDBLK
  5
1C0
100
AcDbEntity
  8
0
100
AcDbBlockEnd
  0
BLOCK
  5
1C1
100
AcDbEntity
  8
0
100
AcDbBlockBegin
  2
Hole
 70
0
 10
0.0
 20
0.0
 30
0.0
  3
Hole
  1

  0
LINE
  5
1C2
100
AcDbEntity
  8
Main
 62
256
370
-1
 48
1.0
  6
ByLayer
100
AcDbLine
 10
1.0000000000004547
 20
3.5
 30
0.0
 11
40.0
 21
3.5
 31
0.0
  0
LINE
  5
1C3
100
AcDbEntity
  8
0
 62
256
370
-1
 48
1.0
  6
ByLayer
100
AcDbLine
 10
0.0
 20
5.0
 30
0.0
 11
38.0000000000002274
 21
5.0000000000004547
 31
0.0
  0
LINE
  5
1C4
100
AcDbEntity
  8
0
 62
256
370
-1
 48
1.0
  6
ByLayer
100
AcDbLine
 10
0.0
 20
-5.0
 30
0.0
 11
38.0000000000002274
 21
-5.0000000000004547
 31
0.0
  0
LINE
  5
1C5
100
AcDbEntity
  8
Main
 62
256
370
-1
 48
1.0
  6
ByLayer
100
AcDbLine
 10
1.0000000000004547
 20
-3.5
 30
0.0
 11
40.0000000000004547
 21
-3.4999999999984084
 31
0.0
  0
LINE
  5
1C6
100
AcDbEntity
  8
0
 62
256
370
-1
 48
1.0
  6
ByLayer
100
AcDbLine
 10
38.0000000000002274
 20
5.0000000000004547
 30
0.0
 11
38.0000000000002274
 21
-5.0000000000004547
 31
0.0
  0
LINE
  5
1C7
100
AcDbEntity
  8
Main
 62
256
370
-1
 48
1.0
  6
ByLayer
100
AcDbLine
 10
0.0
 20
-5.0000000000004547
 30
0.0
 11
1.0
 21
-3.5000000000004547
 31
0.0
  0
LINE
  5
1C8
100
AcDbEntity
  8
Main
 62
256
370
-1
 48
1.0
  6
ByLayer
100
AcDbLine
 10
0.0
 20
5.0000000000004547
 30
0.0
 11
1.0
 21
3.5000000000004547
 31
0.0
  0
LINE
  5
1C9
100
AcDbEntity
  8
Main
 62
256
370
-1
 48
1.0
  6
ByLayer
100
AcDbLine
 10
1.0000000000002274
 20
-3.4999999999995453
 30
0.0
 11
1.0000000000002274
 21
3.4999999999995453
 31
0.0
  0
ENDBLK
  5
1CA
100
AcDbEntity
  8
0
100
AcDbBlockEnd
  0
BLOCK
  5
1CB
100
AcDbEntity
  8
0
100
AcDbBlockBegin
  2
\U+0420\U+0430\U+043c\U+0430
 70
0
 10
0.0
 20
0.0
 30
0.0
  3
\U+0420\U+0430\U+043c\U+0430
  1

  0
LWPOLYLINE
  5
1CC
100
AcDbEntity
  8
0
 62
256
370
-1
 48
1.0
  6
ByLayer
100
AcDbPolyline
 90
4
 70
1
 10
-576.5663441675982313
 20
308.0372929872980876
 10
-451.8788845175038773
 20
2.5
 10
-425.0000000000002274
 20
42.5
 10
-555.6293052356270437
 20
362.5973411320505875
  0
LINE
  5
1CD
100
AcDbEntity
  8
0
 62
256
370
-1
 48
1.0
  6
ByLayer
100
AcDbLine
 10
-451.8788845175038773
 20
2.5
 30
0.0
 11
-576.5663441675982313
 21
308.0372929872980876
 31
0.0
  0
LINE
  5
1CE
100
AcDbEntity
  8
0
 62
256
370
-1
 48
1.0
  6
ByLayer
100
AcDbLine
 10
-553.465867518279083
 20
357.2959988353986773
 30
0.0
 11
-555.6293052356270437
 21
362.5973411320505875
 31
0.0
  0
LINE
  5
1CF
100
AcDbEntity
  8
0
 62
256
370
-1
 48
1.0
  6
ByLayer
100
AcDbLine
 10
-425.0000000000002274
 20
42.5
 30
0.0
 11
-2.0
 21
42.5000000000000213
 31
0.0
  0
LINE
  5
1D0
100
AcDbEntity
  8
0
 62
256
370
-1
 48
1.0
  6
ByLayer
100
AcDbLine
 10
-2.0
 20
42.5000000000000213
 30
0.0
 11
-425.0000000000002274
 21
42.5
 31
0.0
  0
LINE
  5
1D1
100
AcDbEntity
  8
0
 62
256
370
-1
 48
1.0
  6
ByLayer
100
AcDbLine
 10
-425.0000000000002274
 20
42.5
 30
0.0
 11
-555.6293052356270437
 21
362.5973411320505875
 31
0.0
  0
LINE
  5
1D2
100
AcDbEntity
  8
0
 62
256
370
-1
 48
1.0
  6
ByLayer
100
AcDbLine
 10
-555.6293052356270437
 20
362.5973411320505875
 30
0.0
 11
-425.0000000000002842
 21
42.5
 31
0.0
  0
LINE
  5
1D3
100
AcDbEntity
  8
0
 62
256
370
-1
 48
1.0
  6
ByLayer
100
AcDbLine
 10
-555.6293052356270437
 20
362.5973411320505875
 30
0.0
 11
-425.0000000000002274
 21
42.4999999999998934
 31
0.0
  0
LINE
  5
1D4
100
AcDbEntity
  8
0
 62
256
370
-1
 48
1.0
  6
ByLayer
100
AcDbLine
 10
-451.8788845175038205
 20
2.5000000000000182
 30
0.0
 11
-576.5663441675982313
 21
308.0372929872980876
 31
0.0
  0
LINE
  5
1D5
100
AcDbEntity
  8
0
 62
256
370
-1
 48
1.0
  6
ByLayer
100
AcDbLine
 10
-555.6293052356270437
 20
362.5973411320505875
 30
0.0
 11
-425.0000000000002842
 21
42.5
 31
0.0
  0
LWPOLYLINE
  5
1D6
100
AcDbEntity
  8
0
 62
256
370
-1
 48
1.0
  6
ByLayer
100
AcDbPolyline
 90
5
 70
0
 10
-425.0000000000002274
 20
42.4999999999998721
 10
-2.0
 20
42.5000000000000213
 10
18.0000000000000036
 20
27.4999999999999929
 10
18.0
 20
2.5
 10
-451.8788845175038205
 20
2.4999999999999925
  0
CIRCLE
  5
1D7
100
AcDbEntity
  8
0
 62
256
370
-1
 48
1.0
  6
ByLayer
100
AcDbCircle
 10
0.0
 20
0.0
 30
0.0
 40
15.0
  0
ENDBLK
  5
1D8
100
AcDbEntity
  8
0
100
AcDbBlockEnd
  0
ENDSEC
  0
SECTION
  2
ENTITIES
  0
CIRCLE
  5
1D9
100
AcDbEntity
  8
0
 62
256
370
-1
 48
1.0
  6
ByLayer
100
AcDbCircle
 10
2344.786514209134566
 20
2334.5061402391479533
 30
0.0
 40
3.0
  0
CIRCLE
  5
1DA
100
AcDbEntity
  8
0
 62
256
370
-1
 48
1.0
  6
ByLayer
100
AcDbCircle
 10
2318.786514209134566
 20
2334.5061402391479533
 30
0.0
 40
3.0
  0
LWPOLYLINE
  5
1DB
100
AcDbEntity
  8
0
 62
256
370
-1
 48
1.0
  6
ByLayer
100
AcDbPolyline
 90
8
 70
1
 10
2350.786514209134566
 20
2317.5061402391479533
 10
2312.786514209134566
 20
2317.5061402391479533
 42
-0.414213562373095
 10
2310.786514209134566
 20
2319.5061402391479533
 10
2310.786514209134566
 20
2349.5061402391479533
 42
-0.414213562373095
 10
2312.786514209134566
 20
2351.5061402391479533
 10
2350.786514209134566
 20
2351.5061402391479533
 42
-0.414213562373095
 10
2352.786514209134566
 20
2349.5061402391479533
 10
2352.786514209134566
 20
2319.5061402391479533
 42
-0.414213562373095
  0
LINE
  5
1DC
100
AcDbEntity
  8
Main
 62
256
370
-1
 48
1.0
  6
ByLayer
100
AcDbLine
 10
2290.9958400000000438
 20
3222.2893153577160774
 30
0.0
 11
2420.9958400000000438
 21
3222.2893153577160774
 31
0.0
  0
LWPOLYLINE
  5
1DD
100
AcDbEntity
  8
0
 62
256
370
-1
 48
1.0
  6
ByLayer
100
AcDbPolyline
 90
5
 70
0
 10
2319.286514209134566
 20
2350.0061402391479533
 10
2323.286514209134566
 20
2350.0061402391479533
 10
2323.286514209134566
 20
2347.0061402391479533
 10
2319.286514209134566
 20
2347.0061402391479533
 10
2319.286514209134566
 20
2350.0061402391479533
  0
LINE
  5
1DE
100
AcDbEntity
  8
Main
 62
256
370
-1
 48
1.0
  6
ByLayer
100
AcDbLine
 10
2420.9958400000000438
 20
3222.2893153577160774
 30
0.0
 11
2420.9958400000000438
 21
3243.2893153577160774
 31
0.0
  0
LWPOLYLINE
  5
1DF
100
AcDbEntity
  8
0
 62
256
370
-1
 48
1.0
  6
ByLayer
100
AcDbPolyline
 90
5
 70
0
 10
2340.286514209134566
 20
2350.0061402391479533
 10
2344.286514209134566
 20
2350.0061402391479533
 10
2344.286514209134566
 20
2347.0061402391479533
 10
2340.286514209134566
 20
2347.0061402391479533
 10
2340.286514209134566
 20
2350.0061402391479533
  0
LINE
  5
1E0
100
AcDbEntity
  8
Main
 62
256
370
-1
 48
1.0
  6
ByLayer
100
AcDbLine
 10
2420.9958400000000438
 20
3243.2893153577160774
 30
0.0
 11
2290.9958400000000438
 21
3243.2893153577160774
 31
0.0
  0
LWPOLYLINE
  5
1E1
100
AcDbEntity
  8
0
 62
256
370
-1
 48
1.0
  6
ByLayer
100
AcDbPolyline
 90
5
 70
0
 10
2340.286514209134566
 20
2322.0061402391479533
 10
2344.286514209134566
 20
2322.0061402391479533
 10
2344.286514209134566
 20
2319.0061402391479533
 10
2340.286514209134566
 20
2319.0061402391479533
 10
2340.286514209134566
 20
2322.0061402391479533
  0
LINE
  5
1E2
100
AcDbEntity
  8
Main
 62
256
370
-1
 48
1.0
  6
ByLayer
100
AcDbLine
 10
2290.9958400000000438
 20
3243.2893153577160774
 30
0.0
 11
2290.9958400000000438
 21
3222.2893153577160774
 31
0.0
  0
LWPOLYLINE
  5
1E3
100
AcDbEntity
  8
0
 62
256
370
-1
 48
1.0
  6
ByLayer
100
AcDbPolyline
 90
5
 70
0
 10
2319.286514209134566
 20
2322.0061402391479533
 10
2323.286514209134566
 20
2322.0061402391479533
 10
2323.286514209134566
 20
2319.0061402391479533
 10
2319.286514209134566
 20
2319.0061402391479533
 10
2319.286514209134566
 20
2322.0061402391479533
  0
LINE
  5
1E4
100
AcDbEntity
  8
Main
 62
256
370
-1
 48
1.0
  6
ByLayer
100
AcDbLine
 10
2290.9958400000000438
 20
3240.7893153577160774
 30
0.0
 11
2306.8883872642354618
 21
3240.7893153577160774
 31
0.0
  0
SPLINE
  5
1E5
100
AcDbEntity
  8
Main
 62
256
370
-1
 48
1.0
  6
ByLayer
100
AcDbSpline
 70
8
 71
3
 72
8
 73
4
 74
0
 40
0.0
 40
0.0
 40
0.0
 40
0.0
 40
1.0
 40
1.0
 40
1.0
 40
1.0
 10
2306.9958400000000438
 20
3247.2893153577160774
 30
0.0
 10
2307.9958400000000438
 20
3244.2893153577160774
 30
0.0
 10
2305.9958400000000438
 20
3239.2893153577160774
 30
0.0
 10
2306.9958400000000438
 20
3236.2893153577160774
 30
0.0
  0
LINE
  5
1E6
100
AcDbEntity
  8
Axis
 62
256
370
-1
 48
1.0
  6
ByLayer
100
AcDbLine
 10
2270.9958400000000438
 20
3232.7893153577160774
 30
0.0
 11
2449.0041599999999562
 21
3232.7893153577160774
 31
0.0
  0
LINE
  5
1E7
100
AcDbEntity
  8
Axis
 62
256
370
-1
 48
1.0
  6
ByLayer
100
AcDbLine
 10
2355.9958400000000438
 20
3265.40887853650338
 30
0.0
 11
2355.9958400000000438
 21
3208.8787409365036183
 31
0.0
  0
DIMENSION
  5
1E8
100
AcDbEntity
  8
Dims
 62
256
370
-1
 48
1.0
  6
ByLayer
100
AcDbDimension
 10
2276.7639678901732623
 20
3243.2893153577160774
 30
0.0
 11
2274.8889678901732623
 21
3232.7893153577160774
 31
0.0
 70
0
 71
8
 72
2
 41
1.0
 42
0.0
  1
D21
  3
Standard
100
AcDbAlignedDimension
 13
2290.9958400000000438
 23
3243.2893153577160774
 33
0.0
 14
2290.9958400000000438
 24
3222.2893153577160774
 34
0.0
 50
90.0
100
AcDbRotatedDimension
1001
ACAD
1000
DSTYLE
1002
{
1070
144
1040
1.0
1070
40
1040
1.0
1002
}
  0
DIMENSION
  5
1E9
100
AcDbEntity
  8
Dims
 62
256
370
-1
 48
1.0
  6
ByLayer
100
AcDbDimension
 10
2284.9958400000000438
 20
3240.7893153577160774
 30
0.0
 11
2283.1208400000000438
 21
3236.7893153577160774
 31
0.0
 70
0
 71
8
 72
2
 41
1.0
 42
0.0
  1
R8
  3
Standard
100
AcDbAlignedDimension
 13
2290.9958400000000438
 23
3240.7893153577160774
 33
0.0
 14
2290.9958400000000438
 24
3232.7893153577160774
 34
0.0
 50
90.0
100
AcDbRotatedDimension
1001
ACAD
1000
DSTYLE
1002
{
1070
144
1040
1.0
1070
40
1040
1.0
1002
}
  0
LWPOLYLINE
  5
1EA
100
AcDbEntity
  8
Main
 62
256
370
-1
 48
1.0
  6
ByLayer
100
AcDbPolyline
 90
6
 70
0
 10
2290.9958400000000438
 20
3243.2893153577160774
 10
2306.9958400000000438
 20
3243.2893153577160774
 10
2306.9958400000000438
 20
3241.7893153577160774
 10
2306.8883872642354618
 20
3240.7893153577160774
 10
2290.9958400000000438
 20
3240.7893153577160774
 10
2290.9958400000000438
 20
3243.2893153577160774
  0
HATCH
  5
1EB
100
AcDbEntity
  8
Main
 62
256
370
-1
 48
1.0
  6
ByLayer
100
AcDbHatch
 10
0.0
 20
0.0
 30
0.0
210
0.0
220
0.0
230
1.0
  2
LINE
 70
0
 71
0
 91
1
 92
1
 93
5
 72
1
 10
2290.9958400000000438
 20
3243.2893153577160774
 11
2306.9958400000000438
 21
3243.2893153577160774
 72
1
 10
2306.9958400000000438
 20
3243.2893153577160774
 11
2306.9958400000000438
 21
3241.7893153577160774
 72
1
 10
2306.9958400000000438
 20
3241.7893153577160774
 11
2306.8883872642354618
 21
3240.7893153577160774
 72
1
 10
2306.8883872642354618
 20
3240.7893153577160774
 11
2290.9958400000000438
 21
3240.7893153577160774
 72
1
 10
2290.9958400000000438
 20
3240.7893153577160774
 11
2290.9958400000000438
 21
3243.2893153577160774
 97
0
 75
0
 76
1
 52
45.0
 41
0.5
 77
0
 78
1
 53
45.0
 43
0.0
 44
0.0
 45
-0.0883883476483184
 46
0.0883883476483185
 79
0
 98
0
1001
ACAD
1010
0.0
1020
0.0
1030
0
  0
MTEXT
  5
1EC
100
AcDbEntity
  8
0
 62
256
370
-1
 48
1.0
  6
ByLayer
100
AcDbMText
 10
2357.9886900870592399
 20
2722.2852390405769256
 30
0.0
 40
2.5
 41
0.0
 71
5
 72
1
  1
0.5x45\FStandard|c0;%%d\FCyrillic_II|c0;\P2 \U+043c\U+0435\U+0441\U+0442\U+0430
  7
textstyle0
 50
0.0
 73
2
 44
1.0
  0
LINE
  5
1ED
100
AcDbEntity
  8
0
 62
256
370
-1
 48
1.0
  6
ByLayer
100
AcDbLine
 10
2365.9886900870592399
 20
2722.2852390405769256
 30
0.0
 11
2341.9886900870592399
 21
2722.2852390405769256
 31
0.0
  0
INSERT
  5
1EE
100
AcDbEntity
  8
Main
 62
256
370
-1
 48
1.0
  6
ByLayer
100
AcDbBlockReference
  2
\U+0420\U+0430\U+043c\U+0430
 10
3919.1828198283169513
 20
2195.0810430851738602
 30
0.0
  0
INSERT
  5
1EF
100
AcDbEntity
  8
Main
 62
256
370
-1
 48
1.0
  6
ByLayer
100
AcDbBlockReference
  2
Balance
 10
2400.2097674321730665
 20
2518.7320836334629348
 30
0.0
  0
INSERT
  5
1F0
100
AcDbEntity
  8
Main
 62
256
370
-1
 48
1.0
  6
ByLayer
100
AcDbBlockReference
  2
Lever
 10
2311.0
 20
2470.0
 30
0.0
  0
INSERT
  5
1F1
100
AcDbEntity
  8
Main
 62
256
370
-1
 48
1.0
  6
ByLayer
100
AcDbBlockReference
  2
DiskBrakeMount
 10
2330.0835579503850568
 20
2552.0681227137210954
 30
0.0
  0
INSERT
  5
1F2
100
AcDbEntity
  8
Main
 62
256
370
-1
 48
1.0
  6
ByLayer
100
AcDbBlockReference
  2
LeverStop
 10
2369.9999999999995453
 20
2265.0000000000004547
 30
0.0
  0
LWPOLYLINE
  5
1F3
100
AcDbEntity
  8
Main
 62
256
370
-1
 48
1.0
  6
ByLayer
100
AcDbPolyline
 90
4
 70
1
 10
3957.7033504996120428
 20
2180.3310430851743149
 10
3960.7033504996120428
 20
2180.3310430851743149
 10
3960.7033504996120428
 20
2220.3310430851743149
 10
3957.7033504996120428
 20
2220.3310430851743149
  0
INSERT
  5
1F4
100
AcDbEntity
  8
Main
 62
256
370
-1
 48
1.0
  6
ByLayer
100
AcDbBlockReference
  2
\U+041c\U+0430\U+044f\U+0442\U+043d\U+0438\U+043a
 10
2314.7874019781020252
 20
2136.173821976095951
 30
0.0
  0
INSERT
  5
1F5
100
AcDbEntity
  8
Main
 62
256
370
-1
 48
1.0
  6
ByLayer
100
AcDbBlockReference
  2
\U+0420\U+0430\U+043c\U+0430
 10
2106.920976740891092
 20
2748.5094564287078356
 30
0.0
  0
INSERT
  5
1F6
100
AcDbEntity
  8
0
 62
256
370
-1
 48
1.0
  6
ByLayer
100
AcDbBlockReference
  2
\U+041c\U+0430\U+044f\U+0442\U+043d\U+0438\U+043a
 10
3900.1828198283169513
 20
2195.0810430851738602
 30
0.0
  0
LINE
  5
1F7
100
AcDbEntity
  8
Axis
 62
256
370
-1
 48
1.0
  6
CENTER
100
AcDbLine
 10
4193.4328198283174061
 20
2195.0810430851738602
 30
0.0
 11
2949.9791167012231199
 21
2195.0810430851738602
 31
0.0
  0
LWPOLYLINE
  5
1F8
100
AcDbEntity
  8
0
 62
256
370
-1
 48
1.0
  6
ByLayer
100
AcDbPolyline
 90
4
 70
1
 10
3295.9011643052499494
 20
2487.4570574723370555
 10
3331.3772205121431398
 20
2473.8390753896151182
 10
3381.5487334484860185
 20
2604.5403350992228297
 10
3346.0726772415928281
 20
2618.1583171819438576
  0
LINE
  5
1F9
100
AcDbEntity
  8
Axis
 62
256
370
-1
 48
1.0
  6
ByLayer
100
AcDbLine
 10
3204.8199590236617951
 20
2195.0810430851738602
 30
0.0
 11
3602.0644456059308141
 21
3238.0532362096419092
 31
0.0
  0
LINE
  5
1FA
100
AcDbEntity
  8
Axis
 62
256
370
-1
 48
1.0
  6
ByLayer
100
AcDbLine
 10
3313.6391924086969993
 20
2480.6480664309760868
 30
0.0
 11
3118.1199407447570593
 21
1967.4486623660179703
 31
0.0
  0
LINE
  5
1FB
100
AcDbEntity
  8
Main
 62
256
370
-1
 48
1.0
  6
ByLayer
100
AcDbLine
 10
2325.0874257938394294
 20
3106.8676759230738753
 30
0.0
 11
2325.0874257938394294
 21
3141.8676759230738753
 31
0.0
  0
LINE
  5
1FC
100
AcDbEntity
  8
Main
 62
256
370
-1
 48
1.0
  6
ByLayer
100
AcDbLine
 10
2325.0874257938394294
 20
3141.8676759230738753
 30
0.0
 11
2301.5874257938394294
 21
3141.8676759230738753
 31
0.0
  0
LINE
  5
1FD
100
AcDbEntity
  8
Main
 62
256
370
-1
 48
1.0
  6
ByLayer
100
AcDbLine
 10
2300.6374257938396113
 20
3106.8676759230738753
 30
0.0
 11
2313.3374257938394294
 21
3106.8676759230738753
 31
0.0
  0
LINE
  5
1FE
100
AcDbEntity
  8
Main
 62
256
370
-1
 48
1.0
  6
ByLayer
100
AcDbLine
 10
2301.5874257938394294
 20
3141.8676759230738753
 30
0.0
 11
2301.5874257938394294
 21
3106.8676759230738753
 31
0.0
  0
LINE
  5
1FF
100
AcDbEntity
  8
Main
 62
256
370
-1
 48
1.0
  6
ByLayer
100
AcDbLine
 10
2300.6374257938396113
 20
3106.8676759230738753
 30
0.0
 11
2300.6374257938396113
 21
3071.8676759230738753
 31
0.0
  0
LINE
  5
200
100
AcDbEntity
  8
Main
 62
256
370
-1
 48
1.0
  6
ByLayer
100
AcDbLine
 10
2326.0374257938392475
 20
3071.8676759230738753
 30
0.0
 11
2326.0374257938392475
 21
3106.8676759230738753
 31
0.0
  0
LINE
  5
201
100
AcDbEntity
  8
Main
 62
256
370
-1
 48
1.0
  6
ByLayer
100
AcDbLine
 10
2300.6374257938396113
 20
3071.8676759230738753
 30
0.0
 11
2326.0374257938392475
 21
3071.8676759230738753
 31
0.0
  0
MTEXT
  5
202
100
AcDbEntity
  8
Dims
 62
256
370
-1
 48
1.0
  6
ByLayer
100
AcDbMText
 10
2315.4104506609514829
 20
3152.616260460428748
 30
0.0
 40
2.5
 41
0.0
 71
5
 72
1
  1
\U+220520
  7
textstyle6
 50
0.0
 73
2
 44
1.0
  0
SOLID
  5
203
100
AcDbEntity
  8
Dims
 62
256
370
-1
 48
1.0
  6
ByLayer
100
AcDbTrace
 10
2301.5874257938398841
 20
3157.5995549636754731
 30
0.0
 11
2304.0874257938398841
 21
3158.0158396214483219
 31
0.0
 12
2304.0874257938398841
 22
3157.1832703059026244
 32
0.0
 13
2304.0874257938398841
 23
3157.1832703059026244
 33
0.0
 39
0.0
  0
SOLID
  5
204
100
AcDbEntity
  8
Dims
 62
256
370
-1
 48
1.0
  6
ByLayer
100
AcDbTrace
 10
2325.0874257938394294
 20
3157.5995549636754731
 30
0.0
 11
2322.5874257938394294
 21
3157.1832703059026244
 31
0.0
 12
2322.5874257938394294
 22
3158.0158396214483219
 32
0.0
 13
2322.5874257938394294
 23
3158.0158396214483219
 33
0.0
 39
0.0
  0
LINE
  5
205
100
AcDbEntity
  8
Dims
 62
256
370
-1
 48
1.0
  6
ByLayer
100
AcDbLine
 10
2301.5874257938398841
 20
3142.4926759230734206
 30
0.0
 11
2301.5874257938398841
 21
3158.8495549636754731
 31
0.0
  0
LINE
  5
206
100
AcDbEntity
  8
Dims
 62
256
370
-1
 48
1.0
  6
ByLayer
100
AcDbLine
 10
2325.0874257938394294
 20
3142.4926759230743301
 30
0.0
 11
2325.0874257938394294
 21
3158.8495549636754731
 31
0.0
  0
LINE
  5
207
100
AcDbEntity
  8
Dims
 62
256
370
-1
 48
1.0
  6
ByLayer
100
AcDbLine
 10
2301.5874257938398841
 20
3157.5995549636754731
 30
0.0
 11
2325.0874257938394294
 21
3157.5995549636754731
 31
0.0
  0
MTEXT
  5
208
100
AcDbEntity
  8
Dims
 62
256
370
-1
 48
1.0
  6
ByLayer
100
AcDbMText
 10
2313.3374257938398841
 20
3159.4745549636754731
 30
0.0
 40
2.5
 41
0.0
 71
5
 72
1
  1
\U+220523,68
  7
textstyle7
 50
0.0
 73
2
 44
1.0
  0
LINE
  5
209
100
AcDbEntity
  8
Dims
 62
256
370
-1
 48
1.0
  6
ByLayer
100
AcDbLine
 10
2300.6374257938396113
 20
3071.2426759230743301
 30
0.0
 11
2300.6374257938396113
 21
3051.8135886278969338
 31
0.0
  0
LINE
  5
20A
100
AcDbEntity
  8
Dims
 62
256
370
-1
 48
1.0
  6
ByLayer
100
AcDbLine
 10
2326.0374257938397022
 20
3071.2426759230738753
 30
0.0
 11
2326.0374257938397022
 21
3051.8135886278969338
 31
0.0
  0
MTEXT
  5
20B
100
AcDbEntity
  8
Dims
 62
256
370
-1
 48
1.0
  6
ByLayer
100
AcDbMText
 10
2313.3374257938398841
 20
3054.938588627896479
 30
0.0
 40
2.5
 41
0.0
 71
5
 72
1
  1
\U+220525,52
  7
textstyle8
 50
0.0
 73
2
 44
1.0
  0
LINE
  5
20C
100
AcDbEntity
  8
Dims
 62
256
370
-1
 48
1.0
  6
ByLayer
100
AcDbLine
 10
2300.6374257938396113
 20
3053.0635886278969338
 30
0.0
 11
2326.0374257938397022
 21
3053.0635886278969338
 31
0.0
  0
SOLID
  5
20D
100
AcDbEntity
  8
Dims
 62
256
370
-1
 48
1.0
  6
ByLayer
100
AcDbTrace
 10
2300.6374257938396113
 20
3053.0635886278969338
 30
0.0
 11
2303.1374257938396113
 21
3053.4798732856697825
 31
0.0
 12
2303.1374257938396113
 22
3052.647303970124085
 32
0.0
 13
2303.1374257938396113
 23
3052.647303970124085
 33
0.0
 39
0.0
  0
SOLID
  5
20E
100
AcDbEntity
  8
Dims
 62
256
370
-1
 48
1.0
  6
ByLayer
100
AcDbTrace
 10
2326.0374257938397022
 20
3053.0635886278969338
 30
0.0
 11
2323.5374257938397022
 21
3052.647303970124085
 31
0.0
 12
2323.5374257938397022
 22
3053.4798732856697825
 32
0.0
 13
2323.5374257938397022
 23
3053.4798732856697825
 33
0.0
 39
0.0
  0
DIMENSION
  5
20F
100
AcDbEntity
  8
Dims
 62
256
370
-1
 48
1.0
  6
ByLayer
100
AcDbDimension
 10
2289.0470161240223206
 20
3141.8676759230752396
 30
0.0
 11
2287.1720161240218658
 21
3124.3676759230738753
 31
0.0
 70
128
 71
8
 72
2
 41
1.0
 42
0.0
  1

  3
Standard
100
AcDbAlignedDimension
 13
2301.5874257938394294
 23
3141.8676759230734206
 33
0.0
 14
2301.5874257938389746
 24
3106.8676759230738753
 34
0.0
 50
90.0
100
AcDbRotatedDimension
1001
ACAD
1000
DSTYLE
1002
{
1070
144
1040
1.0
1070
40
1040
1.0
1002
}
  0
DIMENSION
  5
210
100
AcDbEntity
  8
Dims
 62
256
370
-1
 48
1.0
  6
ByLayer
100
AcDbDimension
 10
2277.0875745573530367
 20
3141.8676759230729658
 30
0.0
 11
2275.2125745573521272
 21
3106.8676759230738753
 31
0.0
 70
128
 71
8
 72
2
 41
1.0
 42
0.0
  1

  3
Standard
100
AcDbAlignedDimension
 13
2301.5874257938394294
 23
3141.8676759230734206
 33
0.0
 14
2300.6374257938391565
 24
3071.8676759230743301
 34
0.0
 50
90.0
100
AcDbRotatedDimension
1001
ACAD
1000
DSTYLE
1002
{
1070
144
1040
1.0
1070
40
1040
1.0
1002
}
  0
CIRCLE
  5
211
100
AcDbEntity
  8
0
 62
256
370
-1
 48
1.0
  6
ByLayer
100
AcDbCircle
 10
4194.4328198283174061
 20
2195.0810430851738602
 30
0.0
 40
175.0
  0
LINE
  5
212
100
AcDbEntity
  8
Axis
 62
256
370
-1
 48
1.0
  6
ByLayer
100
AcDbLine
 10
4194.5334530343134247
 20
1968.9284174175368207
 30
0.0
 11
4194.5334530343134247
 21
2421.2872074248289209
 31
0.0
  0
CIRCLE
  5
213
100
AcDbEntity
  8
0
 62
256
370
-1
 48
1.0
  6
ByLayer
100
AcDbCircle
 10
3169.8199590236617951
 20
2195.0810430851738602
 30
0.0
 40
175.0
  0
CIRCLE
  5
214
100
AcDbEntity
  8
0
 62
0
370
-2
 48
1.0
  6
ByLayer
100
AcDbCircle
 10
4194.4328198283174061
 20
2195.0810430851738602
 30
0.0
 40
80.0
  0
LWPOLYLINE
  5
215
100
AcDbEntity
  8
0
 62
256
370
-1
 48
1.0
  6
ByLayer
100
AcDbPolyline
 90
4
 70
1
 10
2301.9966583076648021
 20
2977.6970423733682765
 10
2301.9966583076648021
 20
2977.6970423733682765
 10
2301.9966583076648021
 20
2977.6970423733682765
 10
2301.9966583076648021
 20
2977.6970423733682765
  0
LWPOLYLINE
  5
216
100
AcDbEntity
  8
0
 62
256
370
-1
 48
1.0
  6
ByLayer
100
AcDbPolyline
 90
4
 70
1
 10
2301.9966583076648021
 20
2977.6970423733682765
 10
2301.9966583076648021
 20
2977.6970423733682765
 10
2301.9966583076648021
 20
2977.6970423733682765
 10
2301.9966583076648021
 20
2977.6970423733682765
  0
LWPOLYLINE
  5
217
100
AcDbEntity
  8
Main
 62
256
370
-1
 48
1.0
  6
ByLayer
100
AcDbPolyline
 90
4
 70
1
 10
2312.4886900870596946
 20
2844.0126245354399543
 10
2346.4886900870596946
 20
2844.0126245354399543
 10
2346.4886900870596946
 20
2729.0126245354399543
 10
2312.4886900870596946
 20
2729.0126245354399543
  0
LWPOLYLINE
  5
218
100
AcDbEntity
  8
Main
 62
256
370
-1
 48
1.0
  6
ByLayer
100
AcDbPolyline
 90
9
 70
0
 10
2311.9886900870596946
 20
2844.0126245354404091
 10
2346.9886900870601494
 20
2844.0126245354399543
 10
2347.9886900870601494
 20
2843.0126245354404091
 10
2347.9886900870596946
 20
2730.0126245354399543
 10
2346.9886900870592399
 20
2729.0126245354399543
 10
2311.9886900870601494
 20
2729.0126245354399543
 10
2310.9886900870601494
 20
2730.0126245354404091
 10
2310.9886900870596946
 20
2843.0126245354404091
 10
2311.9886900870596946
 20
2844.0126245354404091
  0
LINE
  5
219
100
AcDbEntity
  8
0
 62
256
370
-1
 48
1.0
  6
ByLayer
100
AcDbLine
 10
3342.6164756607190611
 20
2503.1183360724721751
 30
0.0
 11
3381.5487334484860185
 21
2604.5403350992228297
 31
0.0
  0
DIMENSION
  5
21A
100
AcDbEntity
  8
Dims
 62
256
370
-1
 48
1.0
  6
ByLayer
100
AcDbDimension
 10
2297.1363099129407601
 20
2844.0126245354399543
 30
0.0
 11
2295.2613099129407601
 21
2786.5126245354399543
 31
0.0
 70
0
 71
8
 72
2
 41
1.0
 42
0.0
  1

  3
Standard
100
AcDbAlignedDimension
 13
2310.9886900870596946
 23
2844.0126245354404091
 33
0.0
 14
2310.9886900870596946
 24
2729.0126245354394996
 34
0.0
 50
90.0
100
AcDbRotatedDimension
1001
ACAD
1000
DSTYLE
1002
{
1070
144
1040
1.0
1070
40
1040
1.0
1002
}
  0
LINE
  5
21B
100
AcDbEntity
  8
0
 62
256
370
-1
 48
1.0
  6
ByLayer
100
AcDbLine
 10
3498.2112665032750556
 20
2237.5810430851738602
 30
0.0
 11
3508.2112665032750556
 21
2237.5810430851738602
 31
0.0
  0
INSERT
  5
21C
100
AcDbEntity
  8
0
 62
256
370
-1
 48
1.0
  6
ByLayer
100
AcDbBlockReference
  2
\U+0412\U+0442\U+0443\U+043b\U+043a\U+0430\U+041c\U+0430\U+044f\U+0442\U+043d\U+0438\U+043a\U+0430
 10
2309.9966583076648021
 20
2990.7209723733030842
 30
0.0
  0
LINE
  5
21D
100
AcDbEntity
  8
0
 62
256
370
-1
 48
1.0
  6
ByLayer
100
AcDbLine
 10
3603.3217405495129242
 20
2237.5810430851738602
 30
0.0
 11
3645.1644636444198113
 21
2237.5810430851738602
 31
0.0
  0
INSERT
  5
21E
100
AcDbEntity
  8
0
 62
256
370
-1
 48
1.0
  6
ByLayer
100
AcDbBlockReference
  2
\U+0423\U+043f\U+043e\U+0440
 10
2362.8016275859881716
 20
2430.0057325844722982
 30
0.0
 50
180.0
  0
INSERT
  5
21F
100
AcDbEntity
  8
0
 62
256
370
-1
 48
1.0
  6
ByLayer
100
AcDbBlockReference
  2
\U+0423\U+043f\U+043e\U+0440
 10
3688.5027025745102947
 20
2212.1487119293897194
 30
0.0
 50
35.0000000000000071
  0
INSERT
  5
220
100
AcDbEntity
  8
Main
 62
256
370
-1
 48
1.0
  6
ByLayer
100
AcDbBlockReference
  2
\U+041e\U+043f\U+0440\U+0430\U+0432\U+043a\U+0430\U+0412\U+0442\U+0443\U+043b\U+043a\U+0438
 10
2106.920976740891092
 20
2748.5094564287078356
 30
0.0
  0
INSERT
  5
221
100
AcDbEntity
  8
Main
 62
256
370
-1
 48
1.0
  6
ByLayer
100
AcDbBlockReference
  2
\U+041e\U+043f\U+0440\U+0430\U+0432\U+043a\U+0430\U+0412\U+0442\U+0443\U+043b\U+043a\U+0438
 10
2360.5
 20
2650.0
 30
0.0
 50
90.0
  0
MTEXT
  5
222
100
AcDbEntity
  8
Dims
 62
256
370
-1
 48
1.0
  6
ByLayer
100
AcDbMText
 10
2329.8776844970307138
 20
2854.1287582570671475
 30
0.0
 40
2.5
 41
24.0972219444449003
 71
5
 72
1
  1
33.90..34.00\P\U+0432\U+044b\U+0434\U+0435\U+0440\U+0436\U+0430\U+0442\U+044c \U+043d\U+0430 10\U+043c\U+043c \U+0441\U+0432\U+0435\U+0440\U+0445\U+0443 \U+0438 10\U+043c\U+043c \U+0441\U+043d\U+0438\U+0437\U+0443
  7
textstyle5
 50
0.0
 73
2
 44
1.0
  0
LINE
  5
223
100
AcDbEntity
  8
0
 62
256
370
-1
 48
1.0
  6
ByLayer
100
AcDbLine
 10
3307.140419453825416
 20
2516.7363181551941125
 30
0.0
 11
3328.0808600132299944
 21
2571.2880308663688993
 31
0.0
  0
LINE
  5
224
100
AcDbEntity
  8
0
 62
256
370
-1
 48
1.0
  6
ByLayer
100
AcDbLine
 10
1681.920976740891092
 20
2791.0094564287078356
 30
0.0
 11
1731.920976740891092
 21
2791.0094564287078356
 31
0.0
  0
LWPOLYLINE
  5
225
100
AcDbEntity
  8
0
 62
256
370
-1
 48
1.0
  6
ByLayer
100
AcDbPolyline
 90
2
 70
0
 10
1681.9209767408906373
 20
2791.0094564287078356
 10
1731.920976740891092
 20
2791.0094564287078356
  0
LINE
  5
226
100
AcDbEntity
  8
0
 62
256
370
-1
 48
1.0
  6
ByLayer
100
AcDbLine
 10
1681.920976740891092
 20
2791.0094564287078356
 30
0.0
 11
1781.920976740891092
 21
2791.0094564287078356
 31
0.0
  0
LINE
  5
227
100
AcDbEntity
  8
0
 62
256
370
-1
 48
1.0
  6
ByLayer
100
AcDbLine
 10
1681.920976740891092
 20
2791.0094564287078356
 30
0.0
 11
1781.920976740891092
 21
2791.0094564287078356
 31
0.0
  0
LINE
  5
228
100
AcDbEntity
  8
0
 62
256
370
-1
 48
1.0
  6
ByLayer
100
AcDbLine
 10
1681.9209767409852248
 20
2791.0094564284813714
 30
0.0
 11
1655.0420922233879537
 21
2751.0094564287078356
 31
0.0
  0
INSERT
  5
229
100
AcDbEntity
  8
Main
 62
256
370
-1
 48
1.0
  6
ByLayer
100
AcDbBlockReference
  2
\U+0420\U+0435\U+0431\U+0440\U+043e\U+041c\U+0430\U+044f\U+0442\U+043d\U+0438\U+043a\U+0430
 10
2430.0
 20
2436.9999999999995453
 30
0.0
  0
SOLID
  5
22A
100
AcDbEntity
  8
0
 62
256
370
-1
 48
1.0
  6
ByLayer
100
AcDbTrace
 10
2346.4886900870596946
 20
2850.2607141350731581
 30
0.0
 11
2343.9886900870596946
 21
2849.8444294773003094
 31
0.0
 12
2343.9886900870596946
 22
2850.6769987928460068
 32
0.0
 13
2343.9886900870596946
 23
2850.6769987928460068
 33
0.0
 39
0.0
  0
SOLID
  5
22B
100
AcDbEntity
  8
0
 62
256
370
-1
 48
1.0
  6
ByLayer
100
AcDbTrace
 10
2312.4886900870596946
 20
2850.2607141350731581
 30
0.0
 11
2314.9886900870596946
 21
2850.6769987928460068
 31
0.0
 12
2314.9886900870596946
 22
2849.8444294773003094
 32
0.0
 13
2314.9886900870596946
 23
2849.8444294773003094
 33
0.0
 39
0.0
  0
LINE
  5
22C
100
AcDbEntity
  8
0
 62
256
370
-1
 48
1.0
  6
ByLayer
100
AcDbLine
 10
2312.4886900870596946
 20
2850.2607141350731581
 30
0.0
 11
2346.4886900870596946
 21
2850.2607141350731581
 31
0.0
  0
LINE
  5
22D
100
AcDbEntity
  8
0
 62
256
370
-1
 48
1.0
  6
ByLayer
100
AcDbLine
 10
2346.4886900870596946
 20
2844.6376245354399543
 30
0.0
 11
2346.4886900870596946
 21
2851.5107141350731581
 31
0.0
  0
LINE
  5
22E
100
AcDbEntity
  8
0
 62
256
370
-1
 48
1.0
  6
ByLayer
100
AcDbLine
 10
2312.4886900870596946
 20
2844.6376245354399543
 30
0.0
 11
2312.4886900870596946
 21
2851.5107141350731581
 31
0.0
  0
DIMENSION
  5
22F
100
AcDbEntity
  8
0
 62
256
370
-1
 48
1.0
  6
ByLayer
100
AcDbDimension
 10
2310.9886900870596946
 20
2703.6545750762661555
 30
0.0
 11
2329.4886900870596946
 21
2705.5295750762661555
 31
0.0
 70
1
 71
8
 72
2
 41
1.0
 42
0.0
  1

  3
Standard
100
AcDbAlignedDimension
 13
2310.9886900870596946
 23
2729.0126245354394996
 33
0.0
 14
2347.9886900870596946
 24
2729.0126245354399543
 34
0.0
1001
ACAD
1000
DSTYLE
1002
{
1070
144
1040
1.0
1070
40
1040
1.0
1002
}
  0
DIMENSION
  5
230
100
AcDbEntity
  8
Dims
 62
256
370
-1
 48
1.0
  6
ByLayer
100
AcDbDimension
 10
2366.1760349520795899
 20
3003.1970423733682765
 30
0.0
 11
2364.3010349520791351
 21
2990.6970423733687312
 31
0.0
 70
1
 71
8
 72
2
 41
1.0
 42
0.0
  1

  3
Standard
100
AcDbAlignedDimension
 13
2365.9966583076648021
 23
3003.1970423733682765
 33
0.0
 14
2365.9966583076643474
 24
2978.197042373369186
 34
0.0
1001
ACAD
1000
DSTYLE
1002
{
1070
144
1040
1.0
1070
40
1040
1.0
1002
}
  0
LINE
  5
231
100
AcDbEntity
  8
0
 62
256
370
-1
 48
1.0
  6
ByLayer
100
AcDbLine
 10
2371.7874019781015704
 20
2150.923821976095951
 30
0.0
 11
2374.7874019781015704
 21
2150.923821976095951
 31
0.0
  0
LINE
  5
232
100
AcDbEntity
  8
0
 62
256
370
-1
 48
1.0
  6
ByLayer
100
AcDbLine
 10
2371.7874019781011157
 20
2121.4238219760954962
 30
0.0
 11
2374.7874019781011157
 21
2121.4238219760954962
 31
0.0
  0
LINE
  5
233
100
AcDbEntity
  8
0
 62
256
370
-1
 48
1.0
  6
ByLayer
100
AcDbLine
 10
2375.2874019781011157
 20
2121.4119744586841989
 30
0.0
 11
2375.2874019781011157
 21
2161.4238219760954962
 31
0.0
  0
LINE
  5
234
100
AcDbEntity
  8
0
 62
256
370
-1
 48
1.0
  6
ByLayer
100
AcDbLine
 10
2371.2874019781011157
 20
2121.4119744586841989
 30
0.0
 11
2371.2874019781011157
 21
2161.4238219760954962
 31
0.0
  0
LINE
  5
235
100
AcDbEntity
  8
0
 62
256
370
-1
 48
1.0
  6
ByLayer
100
AcDbLine
 10
2371.2874019781011157
 20
2161.4238219760954962
 30
0.0
 11
2375.2874019781011157
 21
2161.4238219760954962
 31
0.0
  0
LINE
  5
236
100
AcDbEntity
  8
Main
 62
256
370
-1
 48
1.0
  6
ByLayer
100
AcDbLine
 10
2323.3374257938394294
 20
3141.8676759230738753
 30
0.0
 11
2323.3374257938394294
 21
3076.8676759230738753
 31
0.0
  0
LINE
  5
237
100
AcDbEntity
  8
Main
 62
256
370
-1
 48
1.0
  6
ByLayer
100
AcDbLine
 10
2323.3374257938394294
 20
3076.8676759230738753
 30
0.0
 11
2313.3374257938394294
 21
3076.8676759230743301
 31
0.0
  0
LINE
  5
238
100
AcDbEntity
  8
Axis
 62
256
370
-1
 48
0.5
  6
ACAD_ISO04W100
100
AcDbLine
 10
2313.3374257938394294
 20
3175.0635886278969338
 30
0.0
 11
2313.3374257938394294
 21
3044.9364113721030662
 31
0.0
  0
LINE
  5
239
100
AcDbEntity
  8
Main
 62
256
370
-1
 48
1.0
  6
ByLayer
100
AcDbLine
 10
2326.0374257938392475
 20
3106.8676759230738753
 30
0.0
 11
2325.0874257938394294
 21
3106.8676759230738753
 31
0.0
  0
LINE
  5
23A
100
AcDbEntity
  8
0
 62
256
370
-1
 48
1.0
  6
ByLayer
100
AcDbLine
 10
2315.5874257938394294
 20
3076.8676759230743301
 30
0.0
 11
2315.5874257938394294
 21
3071.8676759230743301
 31
0.0
  0
LINE
  5
23B
100
AcDbEntity
  8
Unvisible
 62
256
370
-1
 48
1.0
  6
ByLayer
100
AcDbLine
 10
2310.3374257938394294
 20
3076.8676759230743301
 30
0.0
 11
2310.3374257938394294
 21
3071.8676759230743301
 31
0.0
  0
LINE
  5
23C
100
AcDbEntity
  8
0
 62
256
370
-1
 48
1.0
  6
ByLayer
100
AcDbLine
 10
2316.3374257938394294
 20
3071.8676759230743301
 30
0.0
 11
2316.3374257938394294
 21
3063.0635886278969338
 31
0.0
  0
SOLID
  5
23D
100
AcDbEntity
  8
0
 62
256
370
-1
 48
1.0
  6
ByLayer
100
AcDbTrace
 10
2316.3374257938394294
 20
3063.0635886278969338
 30
0.0
 11
2313.8374257938394294
 21
3062.647303970124085
 31
0.0
 12
2313.8374257938394294
 22
3063.4798732856697825
 32
0.0
 13
2313.8374257938394294
 23
3063.4798732856697825
 33
0.0
 39
0.0
  0
MTEXT
  5
23E
100
AcDbEntity
  8
0
 62
256
370
-1
 48
1.0
  6
ByLayer
100
AcDbMText
 10
2310.97692619624695
 20
3065.0635886278960243
 30
0.0
 40
2.5
 41
0.0
 71
5
 72
1
  1
M6
  7
textstyle4
 50
0.0
 73
2
 44
1.0
  0
LINE
  5
23F
100
AcDbEntity
  8
0
 62
256
370
-1
 48
1.0
  6
ByLayer
100
AcDbLine
 10
2316.3374257938385199
 20
3063.0635886278973885
 30
0.0
 11
2308.97692619624695
 21
3063.0635886278969338
 31
0.0
  0
SOLID
  5
240
100
AcDbEntity
  8
0
 62
256
370
-1
 48
1.0
  6
ByLayer
100
AcDbTrace
 10
2323.255419785673439
 20
3150.8058829701089962
 30
0.0
 11
2320.755419785673439
 21
3150.3895983123361475
 31
0.0
 12
2320.755419785673439
 22
3151.222167627881845
 32
0.0
 13
2320.755419785673439
 23
3151.222167627881845
 33
0.0
 39
0.0
  0
LINE
  5
241
100
AcDbEntity
  8
0
 62
256
370
-1
 48
1.0
  6
ByLayer
100
AcDbLine
 10
2323.2554197856725295
 20
3150.805882970109451
 30
0.0
 11
2311.186236516871304
 21
3150.9567477609693924
 31
0.0
  0
DIMENSION
  5
242
100
AcDbEntity
  8
0
 62
256
370
-1
 48
1.0
  6
ByLayer
100
AcDbDimension
 10
2289.0470161240218658
 20
3076.8676759230743301
 30
0.0
 11
2287.1720161240214111
 21
3074.3676759230738753
 31
0.0
 70
128
 71
8
 72
2
 41
1.0
 42
0.0
  1

  3
Standard
100
AcDbAlignedDimension
 13
2313.3374257938394294
 23
3076.8676759230738753
 33
0.0
 14
2300.6374257938391565
 24
3071.8676759230743301
 34
0.0
 50
90.0
100
AcDbRotatedDimension
1001
ACAD
1000
DSTYLE
1002
{
1070
144
1040
1.0
1070
40
1040
1.0
1002
}
  0
LWPOLYLINE
  5
243
100
AcDbEntity
  8
0
 62
256
370
-1
 48
1.0
  6
ByLayer
100
AcDbPolyline
 90
9
 70
0
 10
2323.3374257938394294
 20
3141.8676759230734206
 10
2325.0874257938394294
 20
3141.8676759230734206
 10
2325.0874257938394294
 20
3106.8676759230738753
 10
2326.0374257938392475
 20
3106.8676759230738753
 10
2326.0374257938392475
 20
3071.8676759230743301
 10
2316.3374257938394294
 20
3071.8676759230743301
 10
2316.3374257938394294
 20
3076.8676759230738753
 10
2323.3374257938394294
 20
3076.8676759230738753
 10
2323.3374257938394294
 20
3141.8676759230734206
  0
HATCH
  5
244
100
AcDbEntity
  8
0
 62
256
370
-1
 48
1.0
  6
ByLayer
100
AcDbHatch
 10
0.0
 20
0.0
 30
0.0
210
0.0
220
0.0
230
1.0
  2
ANSI31
 70
0
 71
0
 91
1
 92
1
 93
8
 72
1
 10
2323.3374257938394294
 20
3141.8676759230734206
 11
2325.0874257938394294
 21
3141.8676759230734206
 72
1
 10
2325.0874257938394294
 20
3141.8676759230734206
 11
2325.0874257938394294
 21
3106.8676759230738753
 72
1
 10
2325.0874257938394294
 20
3106.8676759230738753
 11
2326.0374257938392475
 21
3106.8676759230738753
 72
1
 10
2326.0374257938392475
 20
3106.8676759230738753
 11
2326.0374257938392475
 21
3071.8676759230743301
 72
1
 10
2326.0374257938392475
 20
3071.8676759230743301
 11
2316.3374257938394294
 21
3071.8676759230743301
 72
1
 10
2316.3374257938394294
 20
3071.8676759230743301
 11
2316.3374257938394294
 21
3076.8676759230738753
 72
1
 10
2316.3374257938394294
 20
3076.8676759230738753
 11
2323.3374257938394294
 21
3076.8676759230738753
 72
1
 10
2323.3374257938394294
 20
3076.8676759230738753
 11
2323.3374257938394294
 21
3141.8676759230734206
 97
0
 75
0
 76
1
 52
0.0
 41
0.5
 77
0
 78
1
 53
45.0
 43
0.0
 44
0.0
 45
-0.0883883476483184
 46
0.0883883476483185
 79
0
 98
0
1001
ACAD
1010
0.0
1020
0.0
1030
0
  0
LINE
  5
245
100
AcDbEntity
  8
0
 62
256
370
-1
 48
1.0
  6
ByLayer
100
AcDbLine
 10
2323.3374257938394294
 20
3141.8676759230738753
 30
0.0
 11
2323.3374257938394294
 21
3153.0437107011985063
 31
0.0
  0
LINE
  5
246
100
AcDbEntity
  8
Main
 62
256
370
-1
 48
1.0
  6
ByLayer
100
AcDbLine
 10
1.0
 20
0.0
 30
0.0
 11
1.0
 21
0.0
 31
0.0
  0
LINE
  5
247
100
AcDbEntity
  8
Main
 62
256
370
-1
 48
1.0
  6
ByLayer
100
AcDbLine
 10
1.0
 20
0.0
 30
0.0
 11
0.0
 21
0.0
 31
0.0
  0
LINE
  5
248
100
AcDbEntity
  8
Main
 62
256
370
-1
 48
1.0
  6
ByLayer
100
AcDbLine
 10
0.0
 20
0.0
 30
0.0
 11
0.0
 21
0.0
 31
0.0
  0
LINE
  5
249
100
AcDbEntity
  8
Main
 62
256
370
-1
 48
1.0
  6
ByLayer
100
AcDbLine
 10
0.0
 20
0.0
 30
0.0
 11
0.0
 21
0.0
 31
0.0
  0
LINE
  5
24A
100
AcDbEntity
  8
Main
 62
256
370
-1
 48
1.0
  6
ByLayer
100
AcDbLine
 10
0.0
 20
0.0
 30
0.0
 11
0.0
 21
0.0
 31
0.0
  0
INSERT
  5
24B
100
AcDbEntity
  8
Main
 62
256
370
-1
 48
1.0
  6
ByLayer
100
AcDbBlockReference
  2
\U+0423\U+043f\U+043e\U+0440\U+0413\U+0443\U+0441\U+044f
 10
2368.6126754838142006
 20
2638.0535655909329762
 30
0.0
 50
34.0
  0
INSERT
  5
24C
100
AcDbEntity
  8
Main
 62
256
370
-1
 48
1.0
  6
ByLayer
100
AcDbBlockReference
  2
\U+0423\U+043f\U+043e\U+0440\U+0413\U+0443\U+0441\U+044f
 10
3550.3413633468735497
 20
2257.31995856490812
 30
0.0
  0
INSERT
  5
24D
100
AcDbEntity
  8
0
 62
256
370
-1
 48
1.0
  6
ByLayer
100
AcDbBlockReference
  2
\U+0410\U+043c\U+043e\U+0440\U+0442
 10
3896.7888142922124644
 20
2266.7780976290828221
 30
0.0
  0
DIMENSION
  5
24E
100
AcDbEntity
  8
0
 62
256
370
-1
 48
1.0
  6
ByLayer
100
AcDbDimension
 10
2309.9966583076648021
 20
2968.6678965244618666
 30
0.0
 11
2305.9966583076648021
 21
2970.5428965244618666
 31
0.0
 70
0
 71
8
 72
2
 41
1.0
 42
0.0
  1

  3
Standard
100
AcDbAlignedDimension
 13
2309.9966583076648021
 23
2977.6970423733687312
 33
0.0
 14
2301.9966583076643474
 24
2977.697042373369186
 34
0.0
 50
0.0
100
AcDbRotatedDimension
1001
ACAD
1000
DSTYLE
1002
{
1070
144
1040
1.0
1070
40
1040
1.0
1002
}
  0
LINE
  5
24F
100
AcDbEntity
  8
0
 62
256
370
-1
 48
1.0
  6
ByLayer
100
AcDbLine
 10
2341.9886900870592399
 20
2722.2852390405769256
 30
0.0
 11
2352.9886900870596946
 21
2722.2852390405769256
 31
0.0
  0
SOLID
  5
250
100
AcDbEntity
  8
0
 62
256
370
-1
 48
1.0
  6
ByLayer
100
AcDbTrace
 10
2346.9886900870592399
 20
2722.2852390405769256
 30
0.0
 11
2344.4886900870592399
 21
2721.8689543828040769
 31
0.0
 12
2344.4886900870592399
 22
2722.7015236983497743
 32
0.0
 13
2344.4886900870592399
 23
2722.7015236983497743
 33
0.0
 39
0.0
  0
SOLID
  5
251
100
AcDbEntity
  8
0
 62
256
370
-1
 48
1.0
  6
ByLayer
100
AcDbTrace
 10
2347.9886900870596946
 20
2722.2852390405769256
 30
0.0
 11
2350.4886900870596946
 21
2722.7015236983497743
 31
0.0
 12
2350.4886900870596946
 22
2721.8689543828040769
 32
0.0
 13
2350.4886900870596946
 23
2721.8689543828040769
 33
0.0
 39
0.0
  0
LINE
  5
252
100
AcDbEntity
  8
0
 62
256
370
-1
 48
1.0
  6
ByLayer
100
AcDbLine
 10
2346.9886900870592399
 20
2728.3876245354399543
 30
0.0
 11
2346.9886900870592399
 21
2721.0352390405769256
 31
0.0
  0
LINE
  5
253
100
AcDbEntity
  8
0
 62
256
370
-1
 48
1.0
  6
ByLayer
100
AcDbLine
 10
2347.9886900870596946
 20
2729.3876245354399543
 30
0.0
 11
2347.9886900870596946
 21
2721.0352390405769256
 31
0.0
  0
LINE
  5
254
100
AcDbEntity
  8
Main
 62
256
370
-1
 48
1.0
  6
ByLayer
100
AcDbLine
 10
2380.0233200253464929
 20
2914.4685899679352588
 30
0.0
 11
2492.0233200253464929
 21
2914.4685899679352588
 31
0.0
  0
LINE
  5
255
100
AcDbEntity
  8
Main
 62
256
370
-1
 48
1.0
  6
ByLayer
100
AcDbLine
 10
2492.0233200253464929
 20
2914.4685899679352588
 30
0.0
 11
2492.0233200253464929
 21
2901.4685899679352588
 31
0.0
  0
LINE
  5
256
100
AcDbEntity
  8
Main
 62
256
370
-1
 48
1.0
  6
ByLayer
100
AcDbLine
 10
2492.0233200253464929
 20
2901.4685899679352588
 30
0.0
 11
2380.0233200253464929
 21
2901.4685899679352588
 31
0.0
  0
LINE
  5
257
100
AcDbEntity
  8
Main
 62
256
370
-1
 48
1.0
  6
ByLayer
100
AcDbLine
 10
2380.0233200253464929
 20
2901.4685899679352588
 30
0.0
 11
2380.0233200253464929
 21
2914.4685899679352588
 31
0.0
  0
LINE
  5
258
100
AcDbEntity
  8
Axis
 62
256
370
-1
 48
1.0
  6
ByLayer
100
AcDbLine
 10
2358.6524117756544001
 20
2907.9685899679352588
 30
0.0
 11
2509.6524117756544001
 21
2907.9685899679352588
 31
0.0
  0
INSERT
  5
259
100
AcDbEntity
  8
0
 62
256
370
-1
 48
1.0
  6
ByLayer
100
AcDbBlockReference
  2
Hole
 10
2380.0233200253464929
 20
2907.9685899679352588
 30
0.0
  0
INSERT
  5
25A
100
AcDbEntity
  8
0
 62
256
370
-1
 48
1.0
  6
ByLayer
100
AcDbBlockReference
  2
Hole
 10
2492.0233200253464929
 20
2907.9685899679352588
 30
0.0
 41
1.0
 42
-1.0
 43
1.0
 50
180.0
  0
LINE
  5
25B
100
AcDbEntity
  8
0
 62
256
370
-1
 48
1.0
  6
ByLayer
100
AcDbLine
 10
2290.3475882243455999
 20
2915.5812663242827512
 30
0.0
 11
2296.8475882243455999
 21
2915.5812663242827512
 31
0.0
  0
LINE
  5
25C
100
AcDbEntity
  8
0
 62
256
370
-1
 48
1.0
  6
ByLayer
100
AcDbLine
 10
2299.8475882243455999
 20
2913.5812663242827512
 30
0.0
 11
2299.8475882243455999
 21
2901.5812663242822964
 31
0.0
  0
LINE
  5
25D
100
AcDbEntity
  8
0
 62
256
370
-1
 48
1.0
  6
ByLayer
100
AcDbLine
 10
2309.8475882243455999
 20
2912.5812663242827512
 30
0.0
 11
2309.8475882243460546
 21
2902.5812663242827512
 31
0.0
  0
LINE
  5
25E
100
AcDbEntity
  8
0
 62
256
370
-1
 48
1.0
  6
ByLayer
100
AcDbLine
 10
2296.8475882243455999
 20
2899.5812663242827512
 30
0.0
 11
2290.3475882243455999
 21
2899.5812663242827512
 31
0.0
  0
LINE
  5
25F
100
AcDbEntity
  8
0
 62
256
370
-1
 48
1.0
  6
ByLayer
100
AcDbLine
 10
2290.3475882243455999
 20
2899.5812663242827512
 30
0.0
 11
2290.3475882243455999
 21
2915.5812663242827512
 31
0.0
  0
LINE
  5
260
100
AcDbEntity
  8
0
 62
256
370
-1
 48
1.0
  6
ByLayer
100
AcDbLine
 10
2349.8475882243455999
 20
2903.5812663242822964
 30
0.0
 11
2349.8475882243455999
 21
2911.5812663242822964
 31
0.0
  0
LINE
  5
261
100
AcDbEntity
  8
0
 62
256
370
-1
 48
1.0
  6
ByLayer
100
AcDbLine
 10
2348.8475882243460546
 20
2912.5812663242822964
 30
0.0
 11
2299.8475882243455999
 21
2912.5812663242827512
 31
0.0
  0
LINE
  5
262
100
AcDbEntity
  8
0
 62
256
370
-1
 48
1.0
  6
ByLayer
100
AcDbLine
 10
2348.8475882243455999
 20
2902.5812663242822964
 30
0.0
 11
2299.8475882243455999
 21
2902.5812663242827512
 31
0.0
  0
LINE
  5
263
100
AcDbEntity
  8
0
 62
256
370
-1
 48
1.0
  6
ByLayer
100
AcDbLine
 10
2349.5975882243455999
 20
2911.8312663242827512
 30
0.0
 11
2309.8475882243455999
 21
2911.8312663242818417
 31
0.0
  0
LINE
  5
264
100
AcDbEntity
  8
0
 62
256
370
-1
 48
1.0
  6
ByLayer
100
AcDbLine
 10
2349.5975882243465094
 20
2903.3312663242827512
 30
0.0
 11
2309.8475882243455999
 21
2903.3312663242836607
 31
0.0
  0
LINE
  5
265
100
AcDbEntity
  8
0
 62
256
370
-1
 48
1.0
  6
ByLayer
100
AcDbLine
 10
2348.8475882243460546
 20
2912.5812663242822964
 30
0.0
 11
2349.8475882243455999
 21
2911.5812663242822964
 31
0.0
  0
LINE
  5
266
100
AcDbEntity
  8
0
 62
256
370
-1
 48
1.0
  6
ByLayer
100
AcDbLine
 10
2348.8475882243455999
 20
2902.5812663242822964
 30
0.0
 11
2349.8475882243455999
 21
2903.5812663242822964
 31
0.0
  0
LINE
  5
267
100
AcDbEntity
  8
Unvisible
 62
256
370
-1
 48
1.0
  6
ByLayer
100
AcDbLine
 10
2290.3475882243455999
 20
2912.2812663242825693
 30
0.0
 11
2297.3475882243455999
 21
2912.2812663242825693
 31
0.0
  0
LINE
  5
268
100
AcDbEntity
  8
Unvisible
 62
256
370
-1
 48
1.0
  6
ByLayer
100
AcDbLine
 10
2290.3475882243455999
 20
2902.8812663242829331
 30
0.0
 11
2297.3475882243455999
 21
2902.8812663242829331
 31
0.0
  0
LINE
  5
269
100
AcDbEntity
  8
Unvisible
 62
256
370
-1
 48
1.0
  6
ByLayer
100
AcDbLine
 10
2297.3475882243455999
 20
2912.2812663242825693
 30
0.0
 11
2297.3475882243455999
 21
2902.8812663242829331
 31
0.0
  0
LINE
  5
26A
100
AcDbEntity
  8
0
 62
256
370
-1
 48
1.0
  6
ByLayer
100
AcDbLine
 10
2299.8475882243455999
 20
2913.5812663242827512
 30
0.0
 11
2296.8475882243455999
 21
2913.5812663242827512
 31
0.0
  0
LINE
  5
26B
100
AcDbEntity
  8
0
 62
256
370
-1
 48
1.0
  6
ByLayer
100
AcDbLine
 10
2299.8475882243455999
 20
2901.5812663242827512
 30
0.0
 11
2296.8475882243455999
 21
2901.5812663242827512
 31
0.0
  0
LINE
  5
26C
100
AcDbEntity
  8
0
 62
256
370
-1
 48
1.0
  6
ByLayer
100
AcDbLine
 10
2296.8475882243455999
 20
2913.5812663242827512
 30
0.0
 11
2296.8475882243455999
 21
2915.5812663242827512
 31
0.0
  0
LINE
  5
26D
100
AcDbEntity
  8
0
 62
256
370
-1
 48
1.0
  6
ByLayer
100
AcDbLine
 10
2296.8475882243455999
 20
2901.5812663242827512
 30
0.0
 11
2296.8475882243455999
 21
2899.5812663242827512
 31
0.0
  0
LINE
  5
26E
100
AcDbEntity
  8
Unvisible
 62
256
370
-1
 48
1.0
  6
ByLayer
100
AcDbLine
 10
2296.8475882243455999
 20
2915.5812663242827512
 30
0.0
 11
2299.8475882243455999
 21
2915.5812663242827512
 31
0.0
  0
LINE
  5
26F
100
AcDbEntity
  8
Unvisible
 62
256
370
-1
 48
1.0
  6
ByLayer
100
AcDbLine
 10
2299.8475882243455999
 20
2915.5812663242827512
 30
0.0
 11
2296.8475882243455999
 21
2915.5812663242827512
 31
0.0
  0
LINE
  5
270
100
AcDbEntity
  8
Unvisible
 62
256
370
-1
 48
1.0
  6
ByLayer
100
AcDbLine
 10
2296.8475882243455999
 20
2899.5812663242827512
 30
0.0
 11
2299.8475882243455999
 21
2899.5812663242827512
 31
0.0
  0
LINE
  5
271
100
AcDbEntity
  8
Unvisible
 62
256
370
-1
 48
1.0
  6
ByLayer
100
AcDbLine
 10
2299.8475882243455999
 20
2915.5812663242827512
 30
0.0
 11
2299.8475882243455999
 21
2913.5812663242822964
 31
0.0
  0
LINE
  5
272
100
AcDbEntity
  8
Unvisible
 62
256
370
-1
 48
1.0
  6
ByLayer
100
AcDbLine
 10
2299.8475882243455999
 20
2899.5812663242827512
 30
0.0
 11
2299.8475882243455999
 21
2901.5812663242827512
 31
0.0
  0
DIMENSION
  5
273
100
AcDbEntity
  8
0
 62
256
370
-1
 48
1.0
  6
ByLayer
100
AcDbDimension
 10
2296.8475882243455999
 20
2921.5933204296329677
 30
0.0
 11
2298.3475882243455999
 21
2923.4683204296329677
 31
0.0
 70
128
 71
8
 72
2
 41
1.0
 42
0.0
  1

  3
Standard
100
AcDbAlignedDimension
 13
2296.8475882243460546
 23
2915.5812663242822964
 33
0.0
 14
2299.8475882243455999
 24
2915.5812663242822964
 34
0.0
 50
0.0
100
AcDbRotatedDimension
1001
ACAD
1000
DSTYLE
1002
{
1070
144
1040
1.0
1070
40
1040
1.0
1002
}
  0
DIMENSION
  5
274
100
AcDbEntity
  8
0
 62
256
370
-1
 48
1.0
  6
ByLayer
100
AcDbDimension
 10
2306.6524117756544001
 20
2913.5812663242822964
 30
0.0
 11
2304.7774117756544001
 21
2907.5812663242822964
 31
0.0
 70
128
 71
8
 72
2
 41
1.0
 42
0.0
  1

  3
Standard
100
AcDbAlignedDimension
 13
2299.8475882243460546
 23
2913.5812663242818417
 33
0.0
 14
2299.8475882243455999
 24
2901.5812663242827512
 34
0.0
 50
90.0
100
AcDbRotatedDimension
1001
ACAD
1000
DSTYLE
1002
{
1070
144
1040
1.0
1070
40
1040
1.0
1002
}
  0
LINE
  5
275
100
AcDbEntity
  8
Main
 62
256
370
-1
 48
1.0
  6
ByLayer
100
AcDbLine
 10
2420.0233200253464929
 20
2911.4685899679352588
 30
0.0
 11
2452.0233200253464929
 21
2911.4685899679352588
 31
0.0
  0
LINE
  5
276
100
AcDbEntity
  8
Main
 62
256
370
-1
 48
1.0
  6
ByLayer
100
AcDbLine
 10
2420.0233200253469477
 20
2904.4685899679370777
 30
0.0
 11
2452.0233200253460382
 21
2904.4685899679370777
 31
0.0
  0
DIMENSION
  5
277
100
AcDbEntity
  8
0
 62
256
370
-1
 48
1.0
  6
ByLayer
100
AcDbDimension
 10
2380.0233200253464929
 20
2923.9340294606340649
 30
0.0
 11
2436.0233200253469477
 21
2925.8090294606340649
 31
0.0
 70
0
 71
8
 72
2
 41
1.0
 42
0.0
  1
X-2*8mm-2*1mm
  3
Standard
100
AcDbAlignedDimension
 13
2380.0233200253464929
 23
2914.4685899679352588
 33
0.0
 14
2492.0233200253469477
 24
2914.468589967934804
 34
0.0
 50
0.0
100
AcDbRotatedDimension
1001
ACAD
1000
DSTYLE
1002
{
1070
144
1040
1.0
1070
40
1040
1.0
1002
}
  0
DIMENSION
  5
278
100
AcDbEntity
  8
0
 62
256
370
-1
 48
1.0
  6
ByLayer
100
AcDbDimension
 10
2373.118018649318401
 20
2914.4685899679352588
 30
0.0
 11
2371.243018649318401
 21
2907.9685899679352588
 31
0.0
 70
0
 71
8
 72
2
 41
1.0
 42
0.0
  1

  3
Standard
100
AcDbAlignedDimension
 13
2380.0233200253464929
 23
2914.4685899679352588
 33
0.0
 14
2380.0233200253464929
 24
2901.4685899679352588
 34
0.0
 50
90.0
100
AcDbRotatedDimension
1001
ACAD
1000
DSTYLE
1002
{
1070
144
1040
1.0
1070
40
1040
1.0
1002
}
  0
DIMENSION
  5
279
100
AcDbEntity
  8
0
 62
256
370
-1
 48
1.0
  6
ByLayer
100
AcDbDimension
 10
2380.0233200253464929
 20
2891.1955003982006929
 30
0.0
 11
2399.0233200253460382
 21
2893.0705003982006929
 31
0.0
 70
0
 71
8
 72
2
 41
1.0
 42
0.0
  1

  3
Standard
100
AcDbAlignedDimension
 13
2380.0233200253464929
 23
2901.4685899679352588
 33
0.0
 14
2418.0233200253460382
 24
2902.968589967934804
 34
0.0
 50
0.0
100
AcDbRotatedDimension
1001
ACAD
1000
DSTYLE
1002
{
1070
144
1040
1.0
1070
40
1040
1.0
1002
}
  0
LINE
  5
27A
100
AcDbEntity
  8
0
 62
256
370
-1
 48
1.0
  6
ByLayer
100
AcDbLine
 10
2503.6524117756544001
 20
2912.9685899679357135
 30
0.0
 11
2503.6524117756544001
 21
2902.9685899679352588
 31
0.0
  0
SOLID
  5
27B
100
AcDbEntity
  8
0
 62
256
370
-1
 48
1.0
  6
ByLayer
100
AcDbTrace
 10
2503.6524117756544001
 20
2912.9685899679357135
 30
0.0
 11
2504.0686964334272488
 21
2910.4685899679357135
 31
0.0
 12
2503.2361271178815514
 22
2910.4685899679357135
 32
0.0
 13
2503.2361271178815514
 23
2910.4685899679357135
 33
0.0
 39
0.0
  0
SOLID
  5
27C
100
AcDbEntity
  8
0
 62
256
370
-1
 48
1.0
  6
ByLayer
100
AcDbTrace
 10
2503.6524117756544001
 20
2902.9685899679352588
 30
0.0
 11
2503.2361271178815514
 21
2905.4685899679352588
 31
0.0
 12
2504.0686964334272488
 22
2905.4685899679352588
 32
0.0
 13
2504.0686964334272488
 23
2905.4685899679352588
 33
0.0
 39
0.0
  0
LINE
  5
27D
100
AcDbEntity
  8
0
 62
256
370
-1
 48
1.0
  6
ByLayer
100
AcDbLine
 10
2492.6483200253464929
 20
2912.9685899679357135
 30
0.0
 11
2504.9024117756544001
 21
2912.9685899679357135
 31
0.0
  0
LINE
  5
27E
100
AcDbEntity
  8
0
 62
256
370
-1
 48
1.0
  6
ByLayer
100
AcDbLine
 10
2492.6483200253464929
 20
2902.9685899679352588
 30
0.0
 11
2504.9024117756544001
 21
2902.9685899679352588
 31
0.0
  0
MTEXT
  5
27F
100
AcDbEntity
  8
0
 62
256
370
-1
 48
1.0
  6
ByLayer
100
AcDbMText
 10
2501.6524117756544001
 20
2921.0544996017997619
 30
0.0
 40
2.5
 41
0.0
 71
5
 72
1
  1
M10x1.5
  7
textstyle3
 50
90.0
 73
2
 44
1.0
  0
LINE
  5
280
100
AcDbEntity
  8
0
 62
256
370
-1
 48
1.0
  6
ByLayer
100
AcDbLine
 10
2503.6524117756544001
 20
2912.9685899679352588
 30
0.0
 11
2503.6524117756544001
 21
2930.0544996017997619
 31
0.0
  0
LINE
  5
281
100
AcDbEntity
  8
0
 62
256
370
-1
 48
1.0
  6
ByLayer
100
AcDbLine
 10
1681.9209767408915468
 20
2791.0094564287087451
 30
0.0
 11
1881.9209767408915468
 21
2791.0094564287087451
 31
0.0
  0
LINE
  5
282
100
AcDbEntity
  8
0
 62
256
370
-1
 48
1.0
  6
ByLayer
100
AcDbLine
 10
1641.1117326612525176
 20
2891.0094564289156551
 30
0.0
 11
1681.9209767411384746
 21
2791.0094564287087451
 31
0.0
  0
INSERT
  5
283
100
AcDbEntity
  8
0
 62
256
370
-1
 48
1.0
  6
ByLayer
100
AcDbBlockReference
  2
AngelPattern
 10
1681.9209767162774369
 20
2791.0094564895207441
 30
0.0
  0
LINE
  5
284
100
AcDbEntity
  8
Axis
 62
256
370
-1
 48
1.0
  6
ByLayer
100
AcDbLine
 10
3168.0269680177657392
 20
2434.8193079806028436
 30
0.0
 11
3169.9601252400188969
 21
1963.1289457507766656
 31
0.0
  0
DIMENSION
  5
285
100
AcDbEntity
  8
0
 62
256
370
-1
 48
1.0
  6
ByLayer
100
AcDbDimension
 10
2290.9958400000004985
 20
3201.7349312000001191
 30
0.0
 11
2355.9958400000004985
 21
3203.6099312000001191
 31
0.0
 70
0
 71
8
 72
2
 41
1.0
 42
0.0
  1
X+2*4mm
  3
Standard
100
AcDbAlignedDimension
 13
2290.9958400000004985
 23
3222.2893153577160774
 33
0.0
 14
2420.9958400000004985
 24
3222.2893153577160774
 34
0.0
 50
0.0
100
AcDbRotatedDimension
1001
ACAD
1000
DSTYLE
1002
{
1070
144
1040
1.0
1070
40
1040
1.0
1002
}
  0
DIMENSION
  5
286
100
AcDbEntity
  8
0
 62
256
370
-1
 48
1.0
  6
ByLayer
100
AcDbDimension
 10
2303.9999999999995453
 20
2240.0
 30
0.0
 11
2370.0
 21
2241.875
 31
0.0
 70
0
 71
8
 72
2
 41
1.0
 42
0.0
  1

  3
Standard
100
AcDbAlignedDimension
 13
2303.9999999999995453
 23
2250.0
 33
0.0
 14
2436.0
 24
2250.0000000000004547
 34
0.0
 50
0.0
100
AcDbRotatedDimension
1001
ACAD
1000
DSTYLE
1002
{
1070
144
1040
1.0
1070
40
1040
1.0
1002
}
  0
LWPOLYLINE
  5
287
100
AcDbEntity
  8
0
 62
256
370
-1
 48
1.0
  6
ByLayer
100
AcDbPolyline
 90
7
 70
0
 10
1551.2916715052642758
 20
3111.1067975607593326
 10
1681.920976741138702
 20
2791.0094564287078356
 10
2104.920976740891092
 20
2791.0094564287078356
 10
2124.920976740891092
 20
2776.0094564287078356
 10
2124.920976740891092
 20
2751.0094564287073808
 10
2121.7111761986402598
 20
2751.0094564287078356
 10
2122.2928570279150335
 20
2752.3717787845253042
  0
LWPOLYLINE
  5
288
100
AcDbEntity
  8
0
 62
256
370
-1
 48
1.0
  6
ByLayer
100
AcDbPolyline
 90
8
 70
0
 10
1551.2916715052645031
 20
3111.1067975607588778
 10
1681.9209767410052336
 20
2791.0094564284768239
 10
2104.920976740891092
 20
2791.0094564287078356
 10
2124.920976740891092
 20
2776.0094564287078356
 10
2124.920976740891092
 20
2751.0094564287078356
 10
1655.0420922233879537
 20
2751.0094564287073808
 10
1530.3546325732929745
 20
3056.5467494160066053
 10
1551.2916715052640484
 20
3111.1067975607579683
  0
CIRCLE
  5
289
100
AcDbEntity
  8
0
 62
256
370
-1
 48
1.0
  6
ByLayer
100
AcDbCircle
 10
2106.920976740891092
 20
2748.5094564287078356
 30
0.0
 40
15.0
  0
ENDSEC
  0
SECTION
  2
OBJECTS
  0
DICTIONARY
  5
C
100
AcDbDictionary
280
0
281
1
  3
ACAD_GROUP
350
D
  3
ACAD_LAYOUT
350
1A
  3
ACAD_MLINESTYLE
350
17
  3
ACAD_PLOTSETTINGS
350
19
  3
ACAD_PLOTSTYLENAME
350
E
  3
AcDbVariableDictionary
350
28A
  3
QCAD_OBJECTS
350
28B
  0
DICTIONARY
  5
D
100
AcDbDictionary
280
0
281
1
  0
ACDBDICTIONARYWDFLT
  5
E
100
AcDbDictionary
281
1
  3
Normal
350
F
100
AcDbDictionaryWithDefault
340
F
  0
ACDBPLACEHOLDER
  5
F
  0
DICTIONARY
  5
17
100
AcDbDictionary
280
0
281
1
  3
Standard
350
18
  0
MLINESTYLE
  5
18
100
AcDbMlineStyle
  2
STANDARD
 70
0
  3

 62
256
 51
90.0
 52
90.0
 71
2
 49
0.5
 62
256
  6
BYLAYER
 49
-0.5
 62
256
  6
BYLAYER
  0
DICTIONARY
  5
19
100
AcDbDictionary
280
0
281
1
  0
DICTIONARY
  5
1A
100
AcDbDictionary
281
1
  3
Layout1
350
1E
  3
Layout2
350
26
  3
Model
350
22
  0
LAYOUT
  5
1E
100
AcDbPlotSettings
  1

  2
none_device
  4

  6

 40
0.0
 41
0.0
 42
0.0
 43
0.0
 44
0.0
 45
0.0
 46
0.0
 47
0.0
 48
0.0
 49
0.0
140
0.0
141
0.0
142
1.0
143
1.0
 70
688
 72
0
 73
0
 74
5
  7

 75
16
147
1.0
148
0.0
149
0.0
100
AcDbLayout
  1
Layout1
 70
1
 71
1
 10
0.0
 20
0.0
 11
420.0
 21
297.0
 12
0.0
 22
0.0
 32
0.0
 14
100000000000000000000.0
 24
100000000000000000000.0
 34
100000000000000000000.0
 15
-100000000000000000000.0
 25
-100000000000000000000.0
 35
-100000000000000000000.0
146
0.0
 13
0.0
 23
0.0
 33
0.0
 16
1.0
 26
0.0
 36
0.0
 17
0.0
 27
1.0
 37
0.0
 76
0
330
1B
  0
LAYOUT
  5
22
100
AcDbPlotSettings
  1

  2
none_device
  4

  6

 40
0.0
 41
0.0
 42
0.0
 43
0.0
 44
0.0
 45
0.0
 46
0.0
 47
0.0
 48
0.0
 49
0.0
140
0.0
141
0.0
142
1.0
143
1.0
 70
1712
 72
0
 73
0
 74
0
  7

 75
0
147
1.0
148
0.0
149
0.0
100
AcDbLayout
  1
Model
 70
1
 71
0
 10
0.0
 20
0.0
 11
12.0
 21
9.0
 12
0.0
 22
0.0
 32
0.0
 14
0.0
 24
0.0
 34
0.0
 15
0.0
 25
0.0
 35
0.0
146
0.0
 13
0.0
 23
0.0
 33
0.0
 16
1.0
 26
0.0
 36
0.0
 17
0.0
 27
1.0
 37
0.0
 76
0
330
1F
  0
LAYOUT
  5
26
100
AcDbPlotSettings
  1

  2
none_device
  4

  6

 40
0.0
 41
0.0
 42
0.0
 43
0.0
 44
0.0
 45
0.0
 46
0.0
 47
0.0
 48
0.0
 49
0.0
140
0.0
141
0.0
142
1.0
143
1.0
 70
688
 72
0
 73
0
 74
5
  7

 75
16
147
1.0
148
0.0
149
0.0
100
AcDbLayout
  1
Layout2
 70
1
 71
2
 10
0.0
 20
0.0
 11
12.0
 21
9.0
 12
0.0
 22
0.0
 32
0.0
 14
0.0
 24
0.0
 34
0.0
 15
0.0
 25
0.0
 35
0.0
146
0.0
 13
0.0
 23
0.0
 33
0.0
 16
1.0
 26
0.0
 36
0.0
 17
0.0
 27
1.0
 37
0.0
 76
0
330
23
  0
DICTIONARY
  5
28A
100
AcDbDictionary
281
1
  3
DIMASSOC
350
28D
  3
HIDETEXT
350
28C
  0
DICTIONARYVAR
  5
28C
100
DictionaryVariables
280
0
  1
2
  0
DICTIONARYVAR
  5
28D
100
DictionaryVariables
280
0
  1
1
  0
DICTIONARY
  5
28B
100
AcDbDictionary
281
1
  3
ColorSettings/BackgroundColor
350
28E
  3
ColorSettings/ColorMode
350
28F
  3
Grid/DisplayGrid00
350
290
  3
Grid/DisplayGrid01
350
291
  3
Grid/DisplayGrid02
350
292
  3
Grid/DisplayGrid03
350
293
  3
Grid/GridSpacingX00
350
294
  3
Grid/GridSpacingX01
350
295
  3
Grid/GridSpacingX02
350
296
  3
Grid/GridSpacingX03
350
297
  3
Grid/GridSpacingY00
350
298
  3
Grid/GridSpacingY01
350
299
  3
Grid/GridSpacingY02
350
29A
  3
Grid/GridSpacingY03
350
29B
  3
Grid/IsometricGrid00
350
29C
  3
Grid/IsometricGrid01
350
29D
  3
Grid/IsometricGrid02
350
29E
  3
Grid/IsometricGrid03
350
29F
  3
Grid/IsometricProjection00
350
2A0
  3
Grid/IsometricProjection01
350
2A1
  3
Grid/IsometricProjection02
350
2A2
  3
Grid/IsometricProjection03
350
2A3
  3
Grid/MetaGridSpacingX00
350
2A4
  3
Grid/MetaGridSpacingX01
350
2A5
  3
Grid/MetaGridSpacingX02
350
2A6
  3
Grid/MetaGridSpacingX03
350
2A7
  3
Grid/MetaGridSpacingY00
350
2A8
  3
Grid/MetaGridSpacingY01
350
2A9
  3
Grid/MetaGridSpacingY02
350
2AA
  3
Grid/MetaGridSpacingY03
350
2AB
  3
MultiPageSettings/Columns
350
2AC
  3
MultiPageSettings/GlueMarginsBottom
350
2AD
  3
MultiPageSettings/GlueMarginsLeft
350
2AE
  3
MultiPageSettings/GlueMarginsRight
350
2AF
  3
MultiPageSettings/GlueMarginsTop
350
2B0
  3
MultiPageSettings/PrintCropMarks
350
2B1
  3
MultiPageSettings/Rows
350
2B2
  3
PageSettings/OffsetX
350
2B3
  3
PageSettings/OffsetY
350
2B4
  3
PageSettings/PageOrientation
350
2B5
  3
PageSettings/PaperHeight
350
2B6
  3
PageSettings/PaperWidth
350
2B7
  3
PageSettings/Scale
350
2B8
  3
PageSettings/ShowPaperBorders
350
2B9
  3
QCADVersion
350
2BA
  3
UnitSettings/PaperUnit
350
2BB
  3
ViewportCenter
350
2BC
  3
ViewportHeight
350
2BD
  3
ViewportWidth
350
2BE
  0
XRECORD
  5
28E
330
28B
100
AcDbXrecord
280
1
1000
\U+0411\U+0435\U+043b\U+044b\U+0439
  0
XRECORD
  5
28F
330
28B
100
AcDbXrecord
280
1
1000
FullColor
  0
XRECORD
  5
290
330
28B
100
AcDbXrecord
280
1
290
0
  0
XRECORD
  5
291
330
28B
100
AcDbXrecord
280
1
290
1
  0
XRECORD
  5
292
330
28B
100
AcDbXrecord
280
1
290
1
  0
XRECORD
  5
293
330
28B
100
AcDbXrecord
280
1
290
1
  0
XRECORD
  5
294
330
28B
100
AcDbXrecord
280
1
1000
auto
  0
XRECORD
  5
295
330
28B
100
AcDbXrecord
280
1
1000
auto
  0
XRECORD
  5
296
330
28B
100
AcDbXrecord
280
1
1000
auto
  0
XRECORD
  5
297
330
28B
100
AcDbXrecord
280
1
1000
auto
  0
XRECORD
  5
298
330
28B
100
AcDbXrecord
280
1
1000
auto
  0
XRECORD
  5
299
330
28B
100
AcDbXrecord
280
1
1000
auto
  0
XRECORD
  5
29A
330
28B
100
AcDbXrecord
280
1
1000
auto
  0
XRECORD
  5
29B
330
28B
100
AcDbXrecord
280
1
1000
auto
  0
XRECORD
  5
29C
330
28B
100
AcDbXrecord
280
1
290
0
  0
XRECORD
  5
29D
330
28B
100
AcDbXrecord
280
1
290
0
  0
XRECORD
  5
29E
330
28B
100
AcDbXrecord
280
1
290
0
  0
XRECORD
  5
29F
330
28B
100
AcDbXrecord
280
1
290
0
  0
XRECORD
  5
2A0
330
28B
100
AcDbXrecord
280
1
 90
65537
  0
XRECORD
  5
2A1
330
28B
100
AcDbXrecord
280
1
 90
65537
  0
XRECORD
  5
2A2
330
28B
100
AcDbXrecord
280
1
 90
65537
  0
XRECORD
  5
2A3
330
28B
100
AcDbXrecord
280
1
 90
65537
  0
XRECORD
  5
2A4
330
28B
100
AcDbXrecord
280
1
1000
auto
  0
XRECORD
  5
2A5
330
28B
100
AcDbXrecord
280
1
1000
auto
  0
XRECORD
  5
2A6
330
28B
100
AcDbXrecord
280
1
1000
auto
  0
XRECORD
  5
2A7
330
28B
100
AcDbXrecord
280
1
1000
auto
  0
XRECORD
  5
2A8
330
28B
100
AcDbXrecord
280
1
1000
auto
  0
XRECORD
  5
2A9
330
28B
100
AcDbXrecord
280
1
1000
auto
  0
XRECORD
  5
2AA
330
28B
100
AcDbXrecord
280
1
1000
auto
  0
XRECORD
  5
2AB
330
28B
100
AcDbXrecord
280
1
1000
auto
  0
XRECORD
  5
2AC
330
28B
100
AcDbXrecord
280
1
 90
1
  0
XRECORD
  5
2AD
330
28B
100
AcDbXrecord
280
1
 40
10.0
  0
XRECORD
  5
2AE
330
28B
100
AcDbXrecord
280
1
 40
10.0
  0
XRECORD
  5
2AF
330
28B
100
AcDbXrecord
280
1
 40
10.0
  0
XRECORD
  5
2B0
330
28B
100
AcDbXrecord
280
1
 40
10.0
  0
XRECORD
  5
2B1
330
28B
100
AcDbXrecord
280
1
290
0
  0
XRECORD
  5
2B2
330
28B
100
AcDbXrecord
280
1
 90
1
  0
XRECORD
  5
2B3
330
28B
100
AcDbXrecord
280
1
 40
420.0097576904884136
  0
XRECORD
  5
2B4
330
28B
100
AcDbXrecord
280
1
 40
84.7304797658227926
  0
XRECORD
  5
2B5
330
28B
100
AcDbXrecord
280
1
1000
Portrait
  0
XRECORD
  5
2B6
330
28B
100
AcDbXrecord
280
1
 40
297.0
  0
XRECORD
  5
2B7
330
28B
100
AcDbXrecord
280
1
 40
210.0
  0
XRECORD
  5
2B8
330
28B
100
AcDbXrecord
280
1
1000
2:1
  0
XRECORD
  5
2B9
330
28B
100
AcDbXrecord
280
1
290
1
  0
XRECORD
  5
2BA
330
28B
100
AcDbXrecord
280
1
1000
3.19.2
  0
XRECORD
  5
2BB
330
28B
100
AcDbXrecord
280
1
 90
4
  0
XRECORD
  5
2BD
330
28B
100
AcDbXrecord
280
1
 40
192.3752644405371939
  0
XRECORD
  5
2BE
330
28B
100
AcDbXrecord
280
1
 40
348.8572716859498541
  0
ENDSEC
  0
EOF
